<svg width="40" height="40" viewBox="0 0 40 40" fill="none" xmlns="http://www.w3.org/2000/svg">
<mask id="mask0_2312_55" style="mask-type:alpha" maskUnits="userSpaceOnUse" x="0" y="0" width="40" height="40">
<rect width="40" height="40" fill="#D9D9D9"/>
</mask>
<g mask="url(#mask0_2312_55)">
<path d="M20.0632 10H20.1331C20.3626 10.0393 20.5968 10.0264 20.8271 10.0279C21.8821 10.0315 22.9234 10.143 23.954 10.3481C25.1968 10.5954 26.4045 10.9428 27.5302 11.5103C28.2135 11.8549 28.8368 12.268 29.3445 12.8313C29.8522 13.3945 30.0552 14.0371 29.9875 14.764C29.9298 15.3823 29.5984 15.8755 29.1651 16.3166C28.5738 16.9191 27.8449 17.3401 27.059 17.6775C25.6384 18.2872 24.1319 18.5931 22.592 18.7776C21.7126 18.8826 20.8301 18.9312 19.9431 18.9477C19.4186 18.957 18.8934 18.952 18.372 18.9298C16.6603 18.8569 14.9729 18.6246 13.3281 18.1564C12.3567 17.8805 11.4302 17.5131 10.5918 16.967C10.0491 16.6125 9.59004 16.1843 9.25104 15.6447C9.09827 15.4016 9.04506 15.14 9.01922 14.8684C9.01694 14.8462 9.01694 14.8241 9.00098 14.8062V14.1479C9.04734 13.9992 9.03974 13.8413 9.08459 13.6933C9.15147 13.4746 9.28069 13.2844 9.42054 13.1015C9.91307 12.461 10.5728 12.0064 11.2972 11.6283C12.79 10.8485 14.4097 10.4396 16.0819 10.1808C16.7523 10.0772 17.4265 10.0472 18.1037 10.0315C18.3424 10.0257 18.5803 10.0136 18.8189 10.0172H19.7599C19.861 10.0086 19.9636 10.0336 20.0632 10Z" fill="#1A4FC9"/>
<path d="M9.00098 24.5846C9.08002 24.4417 9.08307 24.278 9.14159 24.1279C9.2366 23.8827 9.36505 23.6583 9.54747 23.461C9.61588 23.3866 9.66909 23.3838 9.74661 23.456C10.6473 24.2916 11.7517 24.8041 12.923 25.2036C14.263 25.6611 15.6532 25.9127 17.0654 26.0599C18.1683 26.175 19.2773 26.2015 20.3839 26.1586C22.2971 26.0842 24.179 25.8226 25.9918 25.2115C27.0521 24.8541 28.0577 24.3995 28.9181 23.6976C29.0192 23.6154 29.115 23.5267 29.2115 23.4388C29.2647 23.3902 29.3111 23.3802 29.3476 23.4517C29.5475 23.8405 29.8051 24.2058 29.8971 24.6397C30.0172 25.2101 29.8637 25.729 29.549 26.2115C29.1165 26.8762 28.4803 27.3351 27.778 27.7204C26.5748 28.3809 25.2621 28.7604 23.9077 29.0256C22.8671 29.2293 21.8152 29.3444 20.7533 29.3987C20.0183 29.4359 19.2826 29.4459 18.5499 29.4159C16.4695 29.3294 14.4333 29.0177 12.492 28.2729C11.5244 27.9019 10.6146 27.4366 9.87051 26.7297C9.51859 26.3952 9.23812 26.0121 9.09447 25.5532C9.0633 25.4531 9.0329 25.353 9.0329 25.2472C8.99414 25.1836 9.04506 25.1079 9.00098 25.0457V24.5846Z" fill="#A6BAEA"/>
<path d="M9.03268 19.2493C9.09577 18.8298 9.30555 18.4724 9.55942 18.1321C9.61642 18.0564 9.66203 18.0449 9.73804 18.1136C10.9937 19.2515 12.5572 19.8205 14.2012 20.2343C15.3421 20.5217 16.5058 20.6811 17.6832 20.7711C18.5626 20.8383 19.4435 20.8562 20.3229 20.8233C22.2246 20.7533 24.0959 20.4959 25.9019 19.9048C26.9044 19.5767 27.8561 19.1536 28.6975 18.5338C28.8723 18.4052 29.041 18.2701 29.1946 18.12C29.2402 18.0757 29.2941 18.0213 29.3428 18.1128C29.5526 18.5038 29.811 18.8755 29.8984 19.3151C30.0109 19.8841 29.8581 20.4052 29.5412 20.8862C29.0988 21.5581 28.4497 22.0213 27.7345 22.4058C26.3633 23.1428 24.8682 23.5345 23.326 23.7932C21.7633 24.0556 20.1869 24.1406 18.6044 24.082C16.5058 24.0048 14.4513 23.6853 12.4926 22.9369C11.5356 22.571 10.6311 22.1149 9.89537 21.4166C9.46289 21.0063 9.12085 20.5374 9.03344 19.9434C8.99088 19.8819 9.04484 19.8054 9 19.744V19.4145C9.04256 19.3651 8.99544 19.3008 9.03268 19.2493Z" fill="#A6BAEA"/>
</g>
</svg>
