<svg width="40" height="40" viewBox="0 0 40 40" fill="none" xmlns="http://www.w3.org/2000/svg">
<mask id="mask0_2312_82" style="mask-type:alpha" maskUnits="userSpaceOnUse" x="0" y="0" width="40" height="40">
<rect width="40" height="40" fill="#F2F2F2"/>
</mask>
<g mask="url(#mask0_2312_82)">
<path fill-rule="evenodd" clip-rule="evenodd" d="M10.7524 11.0829C11.7114 10 12.7743 10 12.7743 10H15.001V15.001H10V12.7514C10 12.7514 10.0914 11.8314 10.7524 11.0829ZM10 17.501H15.001V22.501H10V17.501ZM10 25.001H15.001V30.001H12.3362C12.3362 30.001 11.5657 29.9962 10.8181 29.3314C10 28.6019 10 27.501 10 27.501V25.001ZM25 10H27.6257C27.6257 10 28.6381 10.0324 29.2895 10.779C29.66 11.2048 30 11.8229 30 12.3895V15.001H25V10ZM25 17.501H30V22.501H25V17.501ZM25 25.001H30V27.3381C30 27.3381 29.9981 28.4229 29.3152 29.1838C28.661 29.9124 27.5 30.001 27.5 30.001H25V25.001ZM17.6257 10H22.6248V15.001H17.6257V10ZM17.6257 17.501H22.6248V22.501H17.6257V17.501ZM17.6257 25.001H22.6248V30.001H17.6257V25.001Z" fill="#1A4FC9"/>
</g>
</svg>
