<svg width="24" height="23" viewBox="0 0 24 23" fill="none" xmlns="http://www.w3.org/2000/svg">
<path d="M7.66846 4.32198C7.66846 5.46824 8.12381 6.56755 8.93434 7.37808C9.74486 8.18861 10.8442 8.64396 11.9904 8.64396C13.1367 8.64396 14.236 8.18861 15.0465 7.37808C15.8571 6.56755 16.3124 5.46824 16.3124 4.32198C16.3124 3.17572 15.8571 2.07641 15.0465 1.26588C14.236 0.45535 13.1367 0 11.9904 0C10.8442 0 9.74486 0.45535 8.93434 1.26588C8.12381 2.07641 7.66846 3.17572 7.66846 4.32198Z" fill="#1A4FC9"/>
<path d="M8.06263 15.4635C7.26129 14.071 5.80312 13.2959 4.31867 13.2959C3.58301 13.2959 2.84736 13.4798 2.16425 13.8739C0.0886445 15.0694 -0.607602 17.7099 0.574703 19.7855C1.37604 21.178 2.83422 21.953 4.31867 21.953C5.05432 21.953 5.78998 21.7691 6.47309 21.375C8.54869 20.1796 9.25808 17.526 8.06263 15.4635ZM21.8299 13.8739C21.1468 13.4798 20.4111 13.2959 19.6755 13.2959C18.1779 13.2959 16.7329 14.071 15.9315 15.4635C14.7361 17.5391 15.4455 20.1796 17.5211 21.375C18.2042 21.7691 18.9398 21.953 19.6755 21.953C21.1731 21.953 22.6181 21.178 23.4195 19.7855C24.6149 17.723 23.9055 15.0694 21.8299 13.8739ZM18.5195 11.9954C18.9004 11.9166 19.2814 11.8772 19.6755 11.8772C20.3455 11.8772 21.0154 11.9954 21.646 12.2319C21.3964 9.35491 19.8857 6.83266 17.6656 5.22998C17.4948 6.30719 17.0219 7.29245 16.3256 8.09379C17.4685 9.07904 18.2699 10.4453 18.5195 11.9954ZM4.30553 11.8772C4.69963 11.8772 5.0806 11.9166 5.46156 11.9954C5.7243 10.4453 6.5125 9.07904 7.6554 8.08065C6.97229 7.29245 6.48623 6.30719 6.31545 5.22998C4.09534 6.83266 2.58462 9.35491 2.33502 12.2319C2.96559 12.0085 3.63556 11.8772 4.30553 11.8772ZM14.1843 19.3388C13.5012 19.5753 12.7656 19.7198 11.9905 19.7198C11.2154 19.7198 10.4798 19.5884 9.79668 19.3388C9.4814 20.3635 8.89025 21.2699 8.08891 21.9662C9.28435 22.4916 10.6112 22.7938 11.9905 22.7938C13.383 22.7938 14.6967 22.4916 15.8921 21.9662C15.0908 21.2699 14.4996 20.3635 14.1843 19.3388Z" fill="#1A4FC9"/>
</svg>
