<svg width="40" height="40" viewBox="0 0 40 40" fill="none" xmlns="http://www.w3.org/2000/svg">
<mask id="mask0_2312_68" style="mask-type:alpha" maskUnits="userSpaceOnUse" x="0" y="0" width="40" height="40">
<rect width="40" height="40" fill="#D9D9D9"/>
</mask>
<g mask="url(#mask0_2312_68)">
<path d="M28.1071 10.3925H26.7143C26.6228 10.3925 26.5323 10.4105 26.4478 10.4455C26.3633 10.4805 26.2865 10.5318 26.2218 10.5965C26.1572 10.6612 26.1059 10.7379 26.0709 10.8224C26.0359 10.9069 26.0179 10.9975 26.0179 11.0889V13.1782C26.0179 13.2697 25.9998 13.3602 25.9648 13.4447C25.9298 13.5292 25.8785 13.606 25.8139 13.6707C25.7492 13.7353 25.6724 13.7866 25.5879 13.8216C25.5034 13.8566 25.4129 13.8747 25.3214 13.8747H14.1786C14.0871 13.8747 13.9966 13.8566 13.9121 13.8216C13.8276 13.7866 13.7508 13.7353 13.6861 13.6707C13.6215 13.606 13.5702 13.5292 13.5352 13.4447C13.5002 13.3602 13.4821 13.2697 13.4821 13.1782V11.0889C13.4821 10.9042 13.4088 10.7271 13.2782 10.5965C13.1476 10.4659 12.9704 10.3925 12.7857 10.3925H11.3929C11.0234 10.3925 10.6692 10.5393 10.408 10.8005C10.1467 11.0617 10 11.416 10 11.7854V30.5889C10 30.9584 10.1467 31.3126 10.408 31.5738C10.6692 31.8351 11.0234 31.9818 11.3929 31.9818H28.1071C28.4766 31.9818 28.8308 31.8351 29.092 31.5738C29.3533 31.3126 29.5 30.9584 29.5 30.5889V11.7854C29.5 11.416 29.3533 11.0617 29.092 10.8005C28.8308 10.5393 28.4766 10.3925 28.1071 10.3925ZM21.1429 24.3211H14.1786C13.9939 24.3211 13.8167 24.2477 13.6861 24.1171C13.5555 23.9865 13.4821 23.8094 13.4821 23.6247C13.4821 23.44 13.5555 23.2628 13.6861 23.1322C13.8167 23.0016 13.9939 22.9282 14.1786 22.9282H21.1429C21.3276 22.9282 21.5047 23.0016 21.6353 23.1322C21.7659 23.2628 21.8393 23.44 21.8393 23.6247C21.8393 23.8094 21.7659 23.9865 21.6353 24.1171C21.5047 24.2477 21.3276 24.3211 21.1429 24.3211ZM21.1429 21.5354H14.1786C13.9939 21.5354 13.8167 21.462 13.6861 21.3314C13.5555 21.2008 13.4821 21.0236 13.4821 20.8389C13.4821 20.6542 13.5555 20.4771 13.6861 20.3465C13.8167 20.2159 13.9939 20.1425 14.1786 20.1425H21.1429C21.3276 20.1425 21.5047 20.2159 21.6353 20.3465C21.7659 20.4771 21.8393 20.6542 21.8393 20.8389C21.8393 21.0236 21.7659 21.2008 21.6353 21.3314C21.5047 21.462 21.3276 21.5354 21.1429 21.5354ZM25.3214 18.7497H14.1786C13.9939 18.7497 13.8167 18.6763 13.6861 18.5457C13.5555 18.4151 13.4821 18.2379 13.4821 18.0532C13.4821 17.8685 13.5555 17.6914 13.6861 17.5608C13.8167 17.4302 13.9939 17.3568 14.1786 17.3568H25.3214C25.5061 17.3568 25.6833 17.4302 25.8139 17.5608C25.9445 17.6914 26.0179 17.8685 26.0179 18.0532C26.0179 18.2379 25.9445 18.4151 25.8139 18.5457C25.6833 18.6763 25.5061 18.7497 25.3214 18.7497Z" fill="#1950C9"/>
<path d="M15.5714 9H23.9286C24.3929 9 24.625 9.23214 24.625 9.69643V11.7857C24.625 12.25 24.3929 12.4821 23.9286 12.4821H15.5714C15.1071 12.4821 14.875 12.25 14.875 11.7857V9.69643C14.875 9.23214 15.1071 9 15.5714 9Z" fill="#1950C9"/>
</g>
</svg>
