<svg width="40" height="40" viewBox="0 0 40 40" fill="none" xmlns="http://www.w3.org/2000/svg">
<mask id="mask0_2312_48" style="mask-type:alpha" maskUnits="userSpaceOnUse" x="0" y="0" width="40" height="40">
<rect width="40" height="40" fill="#D9D9D9"/>
</mask>
<g mask="url(#mask0_2312_48)">
<path d="M11.8301 13.8494C13.6001 11.9581 16.2104 10.88 18.8 11.0107C20.7299 11.0599 22.6298 11.7746 24.1306 12.9862C24.4169 13.1869 24.6218 13.4817 24.9195 13.6681C25.0416 13.8552 25.1973 14.0144 25.3522 14.1736C25.8348 14.7312 26.234 15.3567 26.5702 16.0114C26.6424 16.1456 26.6988 16.2877 26.7287 16.4383C26.3253 16.8039 25.9791 17.233 25.5421 17.5593C23.4401 19.2686 20.9441 20.3988 18.4359 21.3741C16.2739 22.1124 14.0741 22.7956 11.798 23.0727C11.1682 23.1298 10.5349 23.199 9.90306 23.1319C9.30546 21.4305 9.20835 19.557 9.6603 17.8092C10.0287 16.3327 10.7941 14.9604 11.8301 13.8494ZM16.9272 11.1834C15.4614 11.4348 14.0649 12.0616 12.8925 12.9748C12.7954 13.0655 12.6226 13.1233 12.619 13.2768C12.6005 13.2697 12.5641 13.2561 12.5462 13.249C11.8815 13.8602 11.2682 14.5363 10.7984 15.3103C10.0573 16.4926 9.60461 17.8506 9.47324 19.2386C9.33473 20.5359 9.53036 21.8589 9.96303 23.0869C10.6949 23.1148 11.4253 23.0741 12.1492 22.967C14.2091 22.6743 16.2032 22.0538 18.1724 21.3984C19.137 21.0342 20.0909 20.6423 21.029 20.216C21.0362 20.1996 21.049 20.1675 21.0554 20.151C21.119 20.1496 21.1797 20.1382 21.2382 20.1168C22.5255 19.4942 23.785 18.8009 24.9352 17.947C25.5343 17.4815 26.1376 17.0067 26.6152 16.4119L26.6538 16.222L26.4203 16.4298C26.4781 16.3641 26.5381 16.2998 26.5967 16.2334C25.5628 13.9872 23.5444 12.2294 21.1911 11.4819C19.8224 11.0264 18.3459 10.965 16.9272 11.1834Z" fill="#535353"/>
<path d="M28.8961 12.0774C29.815 12.006 30.756 12.1831 31.5807 12.595C32.2761 12.9349 32.7516 13.6325 32.9073 14.38C33.0336 14.8698 32.9937 15.3781 32.9951 15.8786C32.9287 17.3045 32.189 18.5982 31.2515 19.6363C30.8574 20.0233 30.4833 20.4303 30.0606 20.7873C28.15 22.4037 25.9367 23.6132 23.6791 24.6706C21.6571 25.5759 19.6029 26.4456 17.4367 26.9432C16.7106 27.1567 15.9631 27.2731 15.2227 27.423C14.4673 27.5744 13.6983 27.6422 12.9329 27.7229C11.6021 27.7771 10.2398 27.8057 8.94962 27.4237C8.37987 27.2688 7.8401 27.0096 7.36815 26.6562C7.22893 26.5305 7.10684 26.3842 6.93977 26.2935C6.82767 26.1114 6.70558 25.9358 6.5635 25.7759C6.31289 25.2925 6.0987 24.7827 6.03015 24.2379C5.92234 23.2933 6.09156 22.2566 6.73414 21.5227C7.28319 21.0429 7.98432 20.7044 8.71615 20.658C8.71187 21.0165 8.79326 21.3685 8.79683 21.7269C8.4277 21.9918 8.17852 22.418 8.14925 22.8735C8.14354 23.1691 8.25278 23.5004 8.51981 23.6582C9.27877 24.0987 10.187 24.1387 11.0409 24.0716C11.5292 24.0095 12.0226 23.9802 12.5045 23.871C12.9922 23.7596 13.4905 23.6982 13.9725 23.5639C14.7864 23.3369 15.6125 23.1534 16.4129 22.8792C17.3532 22.5594 18.3178 22.3052 19.2345 21.9161C20.8388 21.2942 22.4017 20.5617 23.894 19.7042C24.2303 19.4928 24.5787 19.2993 24.8985 19.0623C25.3976 18.711 25.9174 18.3847 26.3651 17.9663C26.782 17.6743 27.1005 17.2709 27.466 16.9203C27.7138 16.5891 28.0186 16.2742 28.125 15.8629C28.18 15.5973 28.2093 15.2839 28.0422 15.0526C27.7066 14.7884 27.2675 14.9669 26.8898 15.009C26.5021 14.5492 26.128 14.0787 25.7617 13.6018C26.6614 12.8592 27.7145 12.2102 28.8961 12.0774ZM28.577 12.1852C27.5538 12.393 26.6578 12.9735 25.8467 13.6075C26.2165 14.0516 26.5514 14.5264 26.9448 14.9483C27.259 14.8819 27.5853 14.8312 27.9044 14.8969C28.1593 14.9869 28.2485 15.2768 28.2186 15.5238C28.26 16.0243 27.9337 16.437 27.6517 16.8132C27.0062 17.5786 26.2351 18.2291 25.4112 18.7931C23.3628 20.2611 21.0423 21.2928 18.7019 22.1995C17.7345 22.5258 16.7613 22.8371 15.7881 23.1484C14.8307 23.3812 13.8911 23.6932 12.9172 23.8517C12.1954 24.0173 11.4571 24.0873 10.7224 24.1623C9.94777 24.1958 9.14311 24.0923 8.46055 23.7025C8.23564 23.5747 8.14854 23.3133 8.09499 23.0763C8.02573 22.8542 8.1928 22.6351 8.10998 22.4159C8.13426 22.4159 8.18281 22.4173 8.20708 22.418C8.26848 22.1181 8.48339 21.8847 8.71972 21.7054C8.74328 21.3763 8.68688 21.0522 8.63262 20.7287C8.32775 20.728 8.05072 20.8665 7.7687 20.9629C7.74085 21.0429 7.67874 21.0936 7.6052 21.0286C7.29461 21.1771 6.99831 21.3656 6.75699 21.6119C6.37572 22.0403 6.18009 22.6001 6.08799 23.1584C6.06228 23.7075 6.03872 24.2729 6.22221 24.8013C6.48567 25.7566 7.16753 26.5712 8.05429 27.0118C8.07143 26.9968 8.10498 26.9668 8.12212 26.9518C8.12712 26.9782 8.13783 27.031 8.14354 27.0567C9.34445 27.6129 10.6875 27.7079 11.9919 27.715C12.3289 27.6736 12.6673 27.6529 13.0072 27.6593C13.819 27.5744 14.6343 27.4923 15.434 27.3173C17.491 26.9496 19.5115 26.367 21.4407 25.5617C24.0275 24.5057 26.5671 23.2805 28.8476 21.6526C30.0428 20.7723 31.198 19.787 32.0105 18.5304C32.5032 17.8078 32.8287 16.9668 32.9223 16.0957C32.933 15.6652 32.9394 15.2346 32.923 14.8041C32.8544 14.1023 32.5317 13.4226 32.0041 12.9506C31.3129 12.4116 30.4269 12.2181 29.5758 12.1095C29.2403 12.056 28.9083 12.1467 28.577 12.1852ZM26.6285 23.8767C26.7206 23.8074 26.8363 23.8053 26.9455 23.7931C26.5807 24.8434 25.9816 25.8044 25.2548 26.6433C25.0342 26.9375 24.7615 27.1888 24.4744 27.4173C22.6474 29.0794 20.1006 29.9048 17.6445 29.6563C16.3979 29.5157 15.1962 29.1116 14.0617 28.5875C14.0574 28.4826 14.0917 28.4019 14.2095 28.4055C16.5207 27.9578 18.8804 27.6001 21.0559 26.6598C22.0269 26.3042 22.9537 25.8451 23.8947 25.4196C24.2974 25.2032 24.6993 24.9869 25.107 24.7806C25.6318 24.51 26.1237 24.1815 26.6285 23.8767ZM25.9295 24.3864C25.7418 24.5078 25.5283 24.5942 25.3705 24.7563C25.3555 24.7527 25.3262 24.7442 25.3119 24.7406C23.8825 25.5374 22.391 26.2214 20.8638 26.8083C19.5694 27.363 18.1871 27.6665 16.8184 27.9756C16.6628 28.0113 16.4957 28.012 16.3508 28.0863C15.5889 28.1648 14.8457 28.3862 14.0839 28.4733C14.3288 28.6725 14.6415 28.7574 14.9228 28.8917C15.1477 28.9616 15.3705 29.1066 15.6146 29.063C15.6111 29.0837 15.6032 29.1237 15.5996 29.1437C16.6342 29.4464 17.7059 29.6978 18.7919 29.6521C19.2331 29.5985 19.6815 29.5935 20.1149 29.4871C21.9469 29.1601 23.6462 28.2162 24.9428 26.889C25.7732 26.0029 26.4465 24.9641 26.8727 23.8245C26.5471 23.9938 26.2465 24.203 25.9295 24.3864Z" fill="#535353"/>
<path d="M16.9276 11.1835C18.3463 10.965 19.8228 11.0264 21.1915 11.4819C23.5448 12.2295 25.5632 13.9873 26.5971 16.2335C26.5385 16.2999 26.4786 16.3641 26.4207 16.4298L26.6542 16.2221L26.6156 16.412C26.138 17.0067 25.5347 17.4815 24.9356 17.947C23.7854 18.801 22.526 19.4942 21.2386 20.1168C21.1801 20.1382 21.1194 20.1497 21.0559 20.1511C21.0494 20.1675 21.0366 20.1997 21.0294 20.2161C20.0913 20.6423 19.1374 21.0343 18.1728 21.3984C16.2036 22.0539 14.2095 22.6743 12.1497 22.967C11.4257 23.0741 10.6953 23.1148 9.96345 23.087C9.53078 21.8589 9.33514 20.5359 9.47366 19.2386C9.60503 17.8507 10.0577 16.4927 10.7988 15.3103C11.2686 14.5364 11.8819 13.8602 12.5466 13.249C12.5645 13.2562 12.6009 13.2697 12.6195 13.2769C12.623 13.1234 12.7958 13.0656 12.8929 12.9749C14.0653 12.0617 15.4618 11.4348 16.9276 11.1835Z" fill="#1A4FC9"/>
<path d="M28.577 12.1853C28.9083 12.1467 29.2403 12.056 29.5758 12.1096C30.4269 12.2181 31.3129 12.4116 32.0041 12.9506C32.5317 13.4226 32.8544 14.1023 32.923 14.8041C32.9394 15.2347 32.933 15.6652 32.9223 16.0957C32.8287 16.9668 32.5032 17.8079 32.0105 18.5304C31.198 19.787 30.0428 20.7723 28.8476 21.6526C26.5671 23.2805 24.0275 24.5057 21.4407 25.5617C19.5115 26.3671 17.491 26.9497 15.434 27.3174C14.6343 27.4923 13.819 27.5744 13.0072 27.6594C12.6673 27.6529 12.3289 27.6737 11.9919 27.7151C10.6874 27.7079 9.34445 27.613 8.14353 27.0568C8.13782 27.0311 8.12711 26.9782 8.12211 26.9518C8.10498 26.9668 8.07142 26.9968 8.05429 27.0118C7.16752 26.5713 6.48567 25.7566 6.22221 24.8013C6.03872 24.273 6.06228 23.7075 6.08798 23.1584C6.18008 22.6001 6.37572 22.0403 6.75698 21.612C6.99831 21.3656 7.29461 21.1771 7.60519 21.0286C7.67873 21.0936 7.74085 21.0429 7.76869 20.9629C8.05072 20.8666 8.32774 20.728 8.63261 20.7288C8.68687 21.0522 8.74328 21.3763 8.71972 21.7055C8.48339 21.8847 8.26848 22.1182 8.20708 22.418C8.1828 22.4173 8.13425 22.4159 8.10998 22.4159C8.1928 22.6351 8.02573 22.8543 8.09498 23.0763C8.14853 23.3134 8.23564 23.5747 8.46054 23.7025C9.14311 24.0923 9.94776 24.1958 10.7224 24.1623C11.4571 24.0873 12.1954 24.0174 12.9172 23.8517C13.8911 23.6932 14.8307 23.3812 15.7881 23.1484C16.7613 22.8371 17.7344 22.5258 18.7019 22.1996C21.0423 21.2928 23.3628 20.2611 25.4112 18.7932C26.2351 18.2291 27.0062 17.5787 27.6516 16.8133C27.9337 16.437 28.26 16.0243 28.2185 15.5238C28.2485 15.2768 28.1593 14.9869 27.9044 14.897C27.5852 14.8313 27.259 14.882 26.9448 14.9484C26.5514 14.5264 26.2165 14.0516 25.8467 13.6075C26.6578 12.9735 27.5538 12.393 28.577 12.1853ZM25.9295 24.3865C26.2465 24.203 26.5471 23.9938 26.8727 23.8246C26.4464 24.9641 25.7732 26.0029 24.9428 26.889C23.6462 28.2163 21.9469 29.1602 20.1149 29.4872C19.6815 29.5935 19.2331 29.5985 18.7919 29.6521C17.7059 29.6978 16.6342 29.4465 15.5996 29.1437C15.6032 29.1238 15.6111 29.0838 15.6146 29.0631C15.3705 29.1066 15.1477 28.9617 14.9228 28.8917C14.6415 28.7575 14.3288 28.6725 14.0839 28.4733C14.8457 28.3862 15.5889 28.1649 16.3507 28.0863C16.4957 28.0121 16.6628 28.0114 16.8184 27.9757C18.1871 27.6665 19.5694 27.3631 20.8638 26.8083C22.391 26.2214 23.8825 25.5374 25.3119 24.7406C25.3262 24.7442 25.3555 24.7528 25.3705 24.7563C25.5283 24.5943 25.7417 24.5079 25.9295 24.3865Z" fill="#1A4FC9"/>
</g>
</svg>
