<svg xmlns="http://www.w3.org/2000/svg" width="26" height="19" viewBox="0 0 26 19" fill="none">
    <path d="M5.61439 2.74391C7.3188 0.922623 9.83243 -0.115558 12.3261 0.010261C14.1845 0.0577011 16.0141 0.745926 17.4593 1.91268C17.735 2.10588 17.9323 2.38983 18.219 2.56928C18.3366 2.74941 18.4865 2.90273 18.6357 3.05605C19.1004 3.59302 19.4848 4.1953 19.8086 4.82578C19.878 4.95503 19.9324 5.09185 19.9612 5.23692C19.5728 5.58894 19.2393 6.00215 18.8186 6.31636C16.7944 7.96232 14.3908 9.05069 11.9755 9.98987C9.89363 10.7008 7.77532 11.3588 5.58345 11.6255C4.97704 11.6805 4.3672 11.7472 3.75873 11.6826C3.18326 10.0442 3.08975 8.24009 3.52496 6.55699C3.87973 5.13517 4.61677 3.81372 5.61439 2.74391ZM10.5227 0.176645C9.11121 0.418658 7.76638 1.02232 6.63745 1.90168C6.54394 1.98899 6.37756 2.04468 6.37412 2.19251C6.35624 2.18563 6.32118 2.17257 6.30399 2.16569C5.66389 2.75422 5.0733 3.40532 4.6209 4.15061C3.90723 5.28918 3.47134 6.59687 3.34483 7.93344C3.21145 9.1827 3.39983 10.4567 3.81648 11.6393C4.52121 11.6661 5.22456 11.6269 5.92172 11.5238C7.90527 11.2419 9.82556 10.6444 11.7218 10.0132C12.6507 9.6626 13.5692 9.28514 14.4726 8.87468C14.4795 8.85887 14.4919 8.82793 14.4981 8.81212C14.5593 8.81074 14.6177 8.79974 14.6741 8.77912C15.9137 8.17958 17.1265 7.51198 18.2341 6.68969C18.811 6.24142 19.392 5.7842 19.8519 5.21148L19.889 5.0286L19.6642 5.22867C19.7199 5.16542 19.7777 5.10354 19.834 5.0396C18.8385 2.87661 16.8948 1.18389 14.6287 0.464036C13.3107 0.0253866 11.8889 -0.0337415 10.5227 0.176645Z" fill="#535353" />
    <path d="M22.0481 1.03756C22.933 0.968808 23.8392 1.13932 24.6333 1.53603C25.3029 1.86329 25.7608 2.53502 25.9107 3.25487C26.0324 3.72652 25.9939 4.21605 25.9953 4.69801C25.9313 6.07102 25.219 7.31684 24.3163 8.31652C23.9368 8.68917 23.5765 9.08107 23.1695 9.42483C21.3296 10.9814 19.1983 12.1461 17.0243 13.1644C15.0772 14.0361 13.0991 14.8736 11.0131 15.3528C10.3139 15.5584 9.59406 15.6704 8.88108 15.8148C8.15367 15.9606 7.41319 16.0259 6.67615 16.1036C5.39458 16.1558 4.08276 16.1833 2.84038 15.8155C2.29172 15.6663 1.77194 15.4167 1.31748 15.0764C1.18341 14.9554 1.06584 14.8144 0.904959 14.7271C0.797016 14.5518 0.679447 14.3827 0.542627 14.2287C0.301301 13.7632 0.0950401 13.2723 0.0290365 12.7477C-0.0747817 11.8381 0.0881647 10.8398 0.706949 10.133C1.23567 9.67097 1.91083 9.34508 2.61555 9.30039C2.61143 9.64553 2.68981 9.98449 2.69324 10.3296C2.33779 10.5847 2.09784 10.9952 2.06965 11.4338C2.06415 11.7185 2.16934 12.0375 2.42648 12.1894C3.15733 12.6136 4.03188 12.6521 4.85418 12.5875C5.32445 12.5277 5.79954 12.4995 6.26363 12.3943C6.73322 12.2871 7.21312 12.2279 7.67721 12.0987C8.461 11.88 9.25648 11.7033 10.0272 11.4393C10.9327 11.1313 11.8616 10.8865 12.7444 10.5118C14.2893 9.91299 15.7943 9.20757 17.2312 8.38184C17.5551 8.17833 17.8906 7.99201 18.1986 7.76374C18.6792 7.42547 19.1797 7.11127 19.6108 6.70837C20.0123 6.42717 20.319 6.03871 20.671 5.70113C20.9096 5.38211 21.2031 5.07891 21.3056 4.68289C21.3585 4.42712 21.3867 4.12529 21.2258 3.90253C20.9027 3.64814 20.4798 3.82003 20.1161 3.86059C19.7428 3.41782 19.3825 2.96473 19.0298 2.50545C19.8961 1.79042 20.9102 1.16544 22.0481 1.03756ZM21.7408 1.14138C20.7555 1.34145 19.8927 1.90042 19.1116 2.51095C19.4678 2.9386 19.7902 3.39582 20.1691 3.80215C20.4716 3.73821 20.7858 3.68939 21.0931 3.75265C21.3386 3.83928 21.4245 4.11842 21.3956 4.35631C21.4355 4.83827 21.1213 5.23567 20.8497 5.598C20.2282 6.33504 19.4857 6.96139 18.6922 7.50454C16.7197 8.91812 14.4852 9.91161 12.2315 10.7848C11.2998 11.099 10.3627 11.3988 9.42561 11.6985C8.50363 11.9227 7.59883 12.2231 6.66102 12.3757C5.96592 12.5353 5.25501 12.6026 4.54753 12.6748C3.80156 12.7071 3.0267 12.6074 2.36941 12.232C2.15284 12.109 2.06896 11.8573 2.0174 11.6291C1.9507 11.4153 2.11159 11.2042 2.03183 10.9931C2.05521 10.9931 2.10196 10.9945 2.12534 10.9952C2.18447 10.7064 2.39142 10.4816 2.61899 10.309C2.64168 9.99205 2.58736 9.67991 2.53511 9.36846C2.24153 9.36777 1.97477 9.50115 1.70319 9.59397C1.67638 9.67097 1.61656 9.71979 1.54574 9.65722C1.24667 9.80023 0.961338 9.98174 0.72895 10.2189C0.361805 10.6315 0.173419 11.1705 0.084727 11.7081C0.0599757 12.2369 0.0372869 12.7814 0.213984 13.2902C0.467685 14.2101 1.12428 14.9946 1.97821 15.4188C1.99471 15.4044 2.02702 15.3755 2.04352 15.361C2.04833 15.3865 2.05865 15.4374 2.06415 15.4621C3.22059 15.9977 4.51384 16.0891 5.76998 16.096C6.09449 16.0561 6.42039 16.0362 6.74765 16.0424C7.52939 15.9606 8.31455 15.8815 9.08459 15.7131C11.0654 15.359 13.0111 14.7979 14.8688 14.0224C17.3598 13.0055 19.8054 11.8257 22.0014 10.2581C23.1523 9.41039 24.2647 8.46159 25.0472 7.25153C25.5216 6.55574 25.8351 5.74582 25.9251 4.90702C25.9355 4.49244 25.9416 4.07785 25.9258 3.66327C25.8598 2.98742 25.5491 2.33288 25.041 1.87842C24.3754 1.35933 23.5222 1.17301 22.7027 1.0685C22.3795 1.01694 22.0598 1.10425 21.7408 1.14138ZM19.8645 12.3998C19.9532 12.3331 20.0646 12.3311 20.1698 12.3194C19.8184 13.3307 19.2416 14.2562 18.5417 15.064C18.3292 15.3473 18.0666 15.5893 17.7902 15.8093C16.0308 17.4099 13.5783 18.2047 11.2132 17.9654C10.0128 17.83 8.85564 17.4408 7.76315 16.9362C7.75902 16.8351 7.79202 16.7574 7.90547 16.7609C10.131 16.3298 12.4033 15.9853 14.4983 15.0798C15.4333 14.7374 16.3257 14.2954 17.2319 13.8856C17.6197 13.6773 18.0068 13.4689 18.3994 13.2702C18.9047 13.0097 19.3784 12.6934 19.8645 12.3998ZM19.1914 12.8907C19.0106 13.0076 18.805 13.0908 18.6531 13.2469C18.6386 13.2434 18.6104 13.2352 18.5967 13.2317C17.2202 13.999 15.784 14.6577 14.3133 15.2228C13.0668 15.7571 11.7357 16.0493 10.4177 16.347C10.2678 16.3813 10.107 16.382 9.96739 16.4535C9.23379 16.5292 8.51806 16.7423 7.78446 16.8262C8.02029 17.018 8.32143 17.0998 8.59232 17.2291C8.80889 17.2965 9.0234 17.436 9.25854 17.3941C9.2551 17.414 9.24754 17.4525 9.2441 17.4718C10.2403 17.7633 11.2723 18.0053 12.3181 17.9613C12.743 17.9097 13.1748 17.9049 13.5921 17.8025C15.3563 17.4876 16.9927 16.5787 18.2412 15.3005C19.0408 14.4473 19.6892 13.4469 20.0996 12.3496C19.7861 12.5126 19.4967 12.714 19.1914 12.8907Z" fill="#535353" />
    <path d="M10.523 0.176634C11.8891 -0.0337522 13.3109 0.0253759 14.6289 0.464025C16.8951 1.18388 18.8387 2.87659 19.8343 5.03959C19.7779 5.10353 19.7202 5.16541 19.6645 5.22866L19.8893 5.02859L19.8522 5.21147C19.3922 5.78419 18.8112 6.2414 18.2344 6.68968C17.1268 7.51197 15.9139 8.17957 14.6743 8.77911C14.6179 8.79973 14.5595 8.81073 14.4983 8.81211C14.4921 8.82792 14.4797 8.85886 14.4729 8.87467C13.5694 9.28513 12.6509 9.66259 11.722 10.0132C9.8258 10.6444 7.90551 11.2419 5.92197 11.5238C5.2248 11.6269 4.52145 11.6661 3.81673 11.6393C3.40008 10.4567 3.21169 9.18269 3.34508 7.93343C3.47158 6.59686 3.90748 5.28916 4.62114 4.1506C5.07354 3.40531 5.66414 2.75421 6.30424 2.16568C6.32143 2.17256 6.35649 2.18562 6.37437 2.19249C6.3778 2.04467 6.54419 1.98898 6.63769 1.90167C7.76663 1.02231 9.11145 0.418648 10.523 0.176634Z" fill="#1A4FC9" />
    <path d="M21.7412 1.14125C22.0602 1.10412 22.3799 1.01681 22.7031 1.06837C23.5226 1.17288 24.3758 1.3592 25.0414 1.87829C25.5495 2.33275 25.8602 2.98729 25.9262 3.66314C25.9421 4.07772 25.9359 4.49231 25.9256 4.90689C25.8355 5.74569 25.522 6.55561 25.0476 7.2514C24.2652 8.46146 23.1527 9.41027 22.0018 10.258C19.8058 11.8256 17.3602 13.0054 14.8693 14.0223C13.0115 14.7978 11.0658 15.3588 9.08501 15.7129C8.31496 15.8814 7.5298 15.9604 6.74807 16.0423C6.4208 16.0361 6.09491 16.056 5.77039 16.0959C4.51426 16.089 3.221 15.9976 2.06456 15.462C2.05906 15.4372 2.04875 15.3863 2.04393 15.3609C2.02743 15.3753 1.99512 15.4042 1.97862 15.4187C1.12469 14.9944 0.468096 14.21 0.214395 13.29C0.0376979 12.7813 0.0603866 12.2367 0.085138 11.708C0.17383 11.1704 0.362216 10.6313 0.729361 10.2188C0.961749 9.98161 1.24708 9.8001 1.54616 9.65709C1.61697 9.71966 1.67679 9.67084 1.7036 9.59384C1.97518 9.50102 2.24194 9.36764 2.53552 9.36833C2.58778 9.67978 2.64209 9.99192 2.6194 10.3089C2.39183 10.4815 2.18488 10.7063 2.12575 10.995C2.10237 10.9944 2.05562 10.993 2.03224 10.993C2.112 11.2041 1.95112 11.4151 2.01781 11.629C2.06937 11.8572 2.15325 12.1089 2.36983 12.2319C3.02711 12.6073 3.80197 12.707 4.54795 12.6747C5.25542 12.6025 5.96634 12.5351 6.66144 12.3756C7.59924 12.223 8.50404 11.9225 9.42603 11.6984C10.3631 11.3986 11.3003 11.0989 12.2319 10.7847C14.4856 9.91148 16.7201 8.91799 18.6927 7.50441C19.4861 6.96126 20.2286 6.33491 20.8502 5.59787C21.1217 5.23554 21.4359 4.83814 21.3961 4.35618C21.4249 4.11829 21.339 3.83915 21.0935 3.75252C20.7862 3.68927 20.472 3.73808 20.1695 3.80202C19.7907 3.39569 19.4682 2.93847 19.1121 2.51083C19.8931 1.90029 20.756 1.34132 21.7412 1.14125ZM19.1918 12.8906C19.4971 12.7139 19.7865 12.5124 20.1 12.3495C19.6896 13.4468 19.0412 14.4472 18.2416 15.3004C16.9931 16.5785 15.3567 17.4875 13.5925 17.8024C13.1752 17.9048 12.7434 17.9096 12.3185 17.9612C11.2728 18.0052 10.2408 17.7632 9.24452 17.4716C9.24795 17.4524 9.25552 17.4139 9.25895 17.394C9.02382 17.4359 8.8093 17.2963 8.59273 17.2289C8.32184 17.0997 8.0207 17.0179 7.78487 16.826C8.51848 16.7422 9.2342 16.529 9.9678 16.4534C10.1074 16.3819 10.2683 16.3812 10.4181 16.3468C11.7362 16.0491 13.0672 15.7569 14.3137 15.2227C15.7844 14.6576 17.2206 13.9989 18.5971 13.2316C18.6108 13.235 18.639 13.2433 18.6535 13.2467C18.8054 13.0907 19.011 13.0075 19.1918 12.8906Z" fill="#1A4FC9" />
</svg>