<svg xmlns="http://www.w3.org/2000/svg" width="18" height="23" viewBox="0 0 18 23" fill="none">
<path d="M6.66595 22.5C6.66595 22.5 -3.31228 20.3051 1.14752 9.41175C1.14752 9.41175 2.16003 10.6222 2.02081 11.2047C2.02081 11.2047 2.8145 8.45522 4.5276 6.81272C5.99855 5.40141 7.49311 1.43381 6.1147 0C6.1147 0 12.9421 1.43381 13.702 8.60569C13.702 8.60569 14.5753 6.32053 16.3683 6.09469C16.3683 6.09469 15.817 7.35019 16.3683 9.23344C16.3683 9.23344 22.0237 18.9141 12.2772 22.1861C12.2772 22.1861 15.1988 18.8688 9.00287 13.176C9.00287 13.176 7.54205 16.2247 6.66849 17.2991C6.66595 17.3019 4.22891 20.034 6.66595 22.5Z" fill="#1A4FC9"/>
</svg>
