<svg width="40" height="40" viewBox="0 0 40 40" fill="none" xmlns="http://www.w3.org/2000/svg">
<mask id="mask0_2312_356" style="mask-type:alpha" maskUnits="userSpaceOnUse" x="0" y="0" width="40" height="40">
<rect width="40" height="40" fill="#F2F2F2"/>
</mask>
<g mask="url(#mask0_2312_356)">
<path d="M17.2956 30.25C17.2956 30.25 7.87174 28.1771 12.0838 17.8889C12.0838 17.8889 13.04 19.0321 12.9085 19.5822C12.9085 19.5822 13.6581 16.9855 15.2761 15.4342C16.6653 14.1013 18.0768 10.3542 16.775 9C16.775 9 23.2231 10.3542 23.9408 17.1276C23.9408 17.1276 24.7656 14.9694 26.4589 14.7561C26.4589 14.7561 25.9383 15.9418 26.4589 17.7205C26.4589 17.7205 31.8001 26.8633 22.5951 29.9536C22.5951 29.9536 25.3545 26.8205 19.5027 21.444C19.5027 21.444 18.123 24.3234 17.298 25.3381C17.2956 25.3407 14.994 27.921 17.2956 30.25Z" fill="#1A4FC9"/>
</g>
</svg>
