<svg width="25" height="23" viewBox="0 0 25 23" fill="none" xmlns="http://www.w3.org/2000/svg">
<path d="M15.3297 18.8L20.7437 13.3859L22.2906 14.9328L16.8766 20.3469L15.3297 18.8ZM13.125 22.6562L16.0938 21.0938L14.5312 19.6875L13.125 22.6562ZM24.2188 12.3438L23.4375 11.5625C23.2812 11.4062 22.8125 11.4062 22.6562 11.5625L21.5625 12.6563L23.125 14.2188L24.2188 13.125C24.375 12.8125 24.375 12.5 24.2188 12.3438ZM13.5938 16.5625C12.3438 15.7813 12.6563 13.9063 12.6563 13.9063C14.0625 12.3438 14.5312 10.9375 14.5312 10.9375C15.3125 10.4688 15.9375 9.6875 15.9375 8.90625C15.7812 7.96875 15.1562 8.125 15.1562 8.125C15.1562 8.125 15.7812 5.78125 15.3125 3.75C15 1.5625 12.9688 0.46875 10.625 0.46875C7.96875 0.46875 7.03125 0 7.03125 0C6.875 0.625 7.03125 1.09375 7.03125 1.5625C6.40625 2.03125 5.78125 2.8125 5.625 3.75C5.15625 5.625 5.78125 8.125 5.78125 8.125C5.78125 8.125 5.15625 7.96875 5.15625 8.90625C5 9.6875 5.625 10.4688 6.40625 10.9375C6.40625 10.9375 7.03125 12.3438 8.28125 13.9063C8.28125 13.9063 8.59375 15.7813 7.34375 16.5625C5.78125 17.5 3.125 17.3438 1.5625 18.4375C0 19.5312 0 20.7812 0 21.25C0.15625 21.7188 0.3125 21.7188 0.625 21.7188H9.6875L14.5312 16.875C14.2188 16.875 13.9062 16.7188 13.5938 16.5625Z" fill="#1A4FC9"/>
</svg>
