<svg xmlns="http://www.w3.org/2000/svg" width="21" height="21" viewBox="0 0 21 21">
  <metadata><?xpacket begin="﻿" id="W5M0MpCehiHzreSzNTczkc9d"?>
<x:xmpmeta xmlns:x="adobe:ns:meta/" x:xmptk="Adobe XMP Core 5.6-c138 79.159824, 2016/09/14-01:09:01        ">
   <rdf:RDF xmlns:rdf="http://www.w3.org/1999/02/22-rdf-syntax-ns#">
      <rdf:Description rdf:about=""/>
   </rdf:RDF>
</x:xmpmeta>
                                                                                                    
                                                                                                    
                                                                                                    
                                                                                                    
                                                                                                    
                                                                                                    
                                                                                                    
                                                                                                    
                                                                                                    
                                                                                                    
                                                                                                    
                                                                                                    
                                                                                                    
                                                                                                    
                                                                                                    
                                                                                                    
                                                                                                    
                                                                                                    
                                                                                                    
                                                                                                    
                           
<?xpacket end="w"?></metadata>
<defs>
    <style>
      .cls-1 {
        fill: #fff;
        fill-rule: evenodd;
      }
    </style>
  </defs>
  <path id="形状_3023" data-name="形状 3023" class="cls-1" d="M1810,504.5a10.5,10.5,0,1,1-10.5-10.5,10.5,10.5,0,0,1,10.5,10.5h0Zm-13.42-7.628-0.26.1a8.179,8.179,0,0,0-4.9,6.357h3.52a14.454,14.454,0,0,1,1.64-6.461h0Zm0,15.257-0.06-.1a14.762,14.762,0,0,1-1.58-6.362l-3.52,0a8.155,8.155,0,0,0,5.16,6.461h0Zm5.3-8.8c-0.22-3.566-1.4-6.222-2.3-6.222s-2.08,2.656-2.3,6.222h4.6Zm0,2.334h-4.6c0.22,3.567,1.39,6.222,2.3,6.222s2.08-2.655,2.3-6.222h0Zm5.7-2.334a8.163,8.163,0,0,0-4.95-6.377,14.646,14.646,0,0,1,1.58,6.377h3.37Zm0,2.334h-3.37a14.662,14.662,0,0,1-1.58,6.378,8.163,8.163,0,0,0,4.95-6.378h0Zm0,0" transform="translate(-1789 -494)"/>
</svg>
