<svg width="40" height="40" viewBox="0 0 40 40" fill="none" xmlns="http://www.w3.org/2000/svg">
<mask id="mask0_2312_61" style="mask-type:alpha" maskUnits="userSpaceOnUse" x="0" y="0" width="40" height="40">
<rect width="40" height="40" fill="#D9D9D9"/>
</mask>
<g mask="url(#mask0_2312_61)">
<mask id="mask1_2312_61" style="mask-type:luminance" maskUnits="userSpaceOnUse" x="9" y="9" width="22" height="22">
<path fill-rule="evenodd" clip-rule="evenodd" d="M9 9H31V30.1485H9V9Z" fill="white"/>
</mask>
<g mask="url(#mask1_2312_61)">
<path fill-rule="evenodd" clip-rule="evenodd" d="M22.3981 20.4131C22.1452 20.7168 21.7899 20.9189 21.4 20.9798C21.0126 21.0458 20.6168 20.9299 20.3258 20.6669L17.3146 18.1632L14.3034 22.1471C14.0573 22.4634 13.6944 22.6681 13.2969 22.7138H13.1108C12.7733 22.7053 12.446 22.5962 12.1719 22.4008L9.53291 20.227C8.90699 19.7085 8.81987 18.7807 9.33837 18.1547C9.85687 17.5288 10.7847 17.4417 11.4107 17.9602L12.8571 19.1613L15.8682 15.1774C16.1203 14.867 16.4789 14.6623 16.8748 14.6022C17.2816 14.5498 17.6927 14.6623 18.0167 14.9152L21.0194 17.4358L24.9271 12.623L23.8445 11.7433C23.0908 11.1174 23.2685 10.4322 24.2251 10.2377L29.8076 9.04508C30.8133 8.85053 31.0586 9.29883 30.5012 10.1362L22.3981 20.4131ZM30.1207 30.1487H10.2774C9.79864 30.136 9.41378 29.7478 9.40617 29.2691V23.6189C9.40617 22.6538 9.84601 22.2309 10.3535 22.6538L13.0433 24.8107C13.4239 25.1236 13.9229 25.5643 14.2359 25.1837L17.3147 21.4874C17.6277 21.1059 18.1352 20.5992 18.5074 20.9122L21.1464 23.2205C21.5186 23.5334 22.2883 24.0409 22.5251 23.6612L29.1226 15.7526C29.9938 14.746 31.0004 14.9913 31.0004 16.184V29.2691C30.9691 29.7402 30.5927 30.1166 30.1207 30.1487Z" fill="#1A4FC9"/>
</g>
</g>
</svg>
