<svg xmlns="http://www.w3.org/2000/svg" width="26" height="25" viewBox="0 0 26 25">
  <metadata><?xpacket begin="﻿" id="W5M0MpCehiHzreSzNTczkc9d"?>
<x:xmpmeta xmlns:x="adobe:ns:meta/" x:xmptk="Adobe XMP Core 5.6-c138 79.159824, 2016/09/14-01:09:01        ">
   <rdf:RDF xmlns:rdf="http://www.w3.org/1999/02/22-rdf-syntax-ns#">
      <rdf:Description rdf:about=""/>
   </rdf:RDF>
</x:xmpmeta>
                                                                                                    
                                                                                                    
                                                                                                    
                                                                                                    
                                                                                                    
                                                                                                    
                                                                                                    
                                                                                                    
                                                                                                    
                                                                                                    
                                                                                                    
                                                                                                    
                                                                                                    
                                                                                                    
                                                                                                    
                                                                                                    
                                                                                                    
                                                                                                    
                                                                                                    
                                                                                                    
                           
<?xpacket end="w"?></metadata>
<defs>
    <style>
      .cls-1 {
        fill: #1a4fc9;
        fill-rule: evenodd;
      }
    </style>
  </defs>
  <path id="_333" data-name="333" class="cls-1" d="M1168.96,1182H1145.5a1.057,1.057,0,0,1-1.03-1.04v-6.68c0-1.14.52-1.64,1.12-1.14l3.18,2.55c0.45,0.37,1.04.89,1.41,0.44l3.64-4.37c0.37-.45.97-1.05,1.41-0.68l3.12,2.73c0.44,0.37,1.35.97,1.63,0.52l7.8-9.35c1.03-1.19,2.22-.9,2.22.51v15.47a1.118,1.118,0,0,1-1.04,1.04h0Zm-9.13-11.51a1.915,1.915,0,0,1-1.18.67,1.515,1.515,0,0,1-1.27-.37l-3.56-2.96-3.56,4.71a1.762,1.762,0,0,1-1.19.67h-0.22a1.994,1.994,0,0,1-1.11-.37l-3.12-2.57a1.74,1.74,0,0,1,2.22-2.68l1.71,1.42,3.56-4.71a1.906,1.906,0,0,1,1.19-.68,1.818,1.818,0,0,1,1.35.37l3.55,2.98,4.62-5.69-1.28-1.04c-0.89-.74-0.68-1.55.45-1.78l6.6-1.41c1.19-.23,1.48.3,0.82,1.29Zm0,0" transform="translate(-1144 -1157)"/>
</svg>
