<svg xmlns="http://www.w3.org/2000/svg" width="88" height="24" viewBox="0 0 88 24">
  <metadata><?xpacket begin="﻿" id="W5M0MpCehiHzreSzNTczkc9d"?>
<x:xmpmeta xmlns:x="adobe:ns:meta/" x:xmptk="Adobe XMP Core 5.6-c138 79.159824, 2016/09/14-01:09:01        ">
   <rdf:RDF xmlns:rdf="http://www.w3.org/1999/02/22-rdf-syntax-ns#">
      <rdf:Description rdf:about=""/>
   </rdf:RDF>
</x:xmpmeta>
                                                                                                    
                                                                                                    
                                                                                                    
                                                                                                    
                                                                                                    
                                                                                                    
                                                                                                    
                                                                                                    
                                                                                                    
                                                                                                    
                                                                                                    
                                                                                                    
                                                                                                    
                                                                                                    
                                                                                                    
                                                                                                    
                                                                                                    
                                                                                                    
                                                                                                    
                                                                                                    
                           
<?xpacket end="w"?></metadata>
<defs>
    <style>
      .cls-1 {
        fill: #fff;
        fill-rule: evenodd;
      }
    </style>
  </defs>
  <path id="FILFOX_LOGO" data-name="FILFOX LOGO" class="cls-1" d="M2457.98,1526.2a2.5,2.5,0,0,1-1.06,1.71,5.521,5.521,0,0,1-2.29,1.02l2.55,4.43c0.04,0.08.03,0.11-.06,0.11h-4.01a0.176,0.176,0,0,1-.15-0.09l-1.63-3.17a0.881,0.881,0,0,0-.69.53,1,1,0,0,0,.03.76,6.7,6.7,0,0,0,.37.7,2.331,2.331,0,0,1,.2.38,1.309,1.309,0,0,1-.68.88,2.437,2.437,0,0,1-1.38.42,2.238,2.238,0,0,1-1.66-.6,1.929,1.929,0,0,1-.52-1.55q0.2-2.37,3.46-3.11l-2.44-4.27c-0.03-.06-0.02-0.09.06-0.09h3.94a0.151,0.151,0,0,1,.14.09l1.66,3.11a0.748,0.748,0,0,0,.62-0.51,0.928,0.928,0,0,0-.07-0.71,7.19,7.19,0,0,0-.37-0.67,2.819,2.819,0,0,1-.2-0.34,1.219,1.219,0,0,1,.67-0.87,2.427,2.427,0,0,1,1.38-.41,2.105,2.105,0,0,1,1.66.65A1.889,1.889,0,0,1,2457.98,1526.2Zm-13.45,6.42a5.23,5.23,0,0,1-3.83,1.18,4.763,4.763,0,0,1-3.46-1.7,4.558,4.558,0,0,1-1.02-3.61,5.035,5.035,0,0,1,1.89-3.39,5.272,5.272,0,0,1,3.81-1.19,4.759,4.759,0,0,1,3.45,1.7,4.558,4.558,0,0,1,1.02,3.61A5.056,5.056,0,0,1,2444.53,1532.62Zm-1.84-5.76a1.155,1.155,0,0,0-1.02-.9,1.306,1.306,0,0,0-1.24.74,5.328,5.328,0,0,0-.64,2.05,5,5,0,0,0,.14,2.1,1.144,1.144,0,0,0,1.03.9,1.258,1.258,0,0,0,1.22-.71,5.385,5.385,0,0,0,.63-2.07A4.728,4.728,0,0,0,2442.69,1526.86Zm-7.42-3.22a2.739,2.739,0,0,1-.81-0.12,1,1,0,0,1-.46-0.21,0.255,0.255,0,0,1,.01-0.19c0.03-.07.07-0.18,0.13-0.34a3.333,3.333,0,0,0,.12-0.5c0.07-.64-0.13-0.95-0.59-0.95a0.786,0.786,0,0,0-.71.34,1.407,1.407,0,0,0-.2.88,6.786,6.786,0,0,0,.1.93q0.075,0.375.18,0.72h2.51l0.05,0.06v0.04l-0.18,1.59a0.106,0.106,0,0,1-.09.09h-2.42l-0.89,7.38-0.09.11h-3.5a0.088,0.088,0,0,1-.08-0.09l0.91-7.4h-1.02l-0.05-.05v-0.04l0.18-1.61,0.09-.08h1.04a5.829,5.829,0,0,1,.51-2.07,3.336,3.336,0,0,1,1.07-1.35,4.5,4.5,0,0,1,1.38-.7,5.206,5.206,0,0,1,1.56-.22,4.088,4.088,0,0,1,2.4.61,1.576,1.576,0,0,1,.72,1.53,1.737,1.737,0,0,1-.6,1.16A1.844,1.844,0,0,1,2435.27,1523.64Zm-9.17,7.75a1.138,1.138,0,0,0,.32.7c0.14,0.1.25,0.19,0.34,0.25a0.17,0.17,0,0,1,.07.24,2.367,2.367,0,0,1-.99.88,3.177,3.177,0,0,1-1.52.42,2.09,2.09,0,0,1-1.73-.75,2.661,2.661,0,0,1-.47-2.04l1.31-10.7a0.106,0.106,0,0,1,.09-0.09h3.63l0.08,0.06v0.03l-1.13,9.4A5.977,5.977,0,0,0,2426.1,1531.39Zm-7.17-8.03a2.07,2.07,0,0,1-1.43-.49,1.36,1.36,0,0,1-.48-1.21,1.735,1.735,0,0,1,.76-1.2,2.489,2.489,0,0,1,1.55-.51,2.036,2.036,0,0,1,1.43.51,1.326,1.326,0,0,1,.49,1.2,1.689,1.689,0,0,1-.76,1.21A2.606,2.606,0,0,1,2418.93,1523.36Zm1.74,0.94q-0.66,4.17-.82,5.44a5.309,5.309,0,0,0-.03,1.36,2,2,0,0,0,.21.73,0.7,0.7,0,0,0,.3.33,1.27,1.27,0,0,1,.23.16,0.162,0.162,0,0,1,.02.2,2,2,0,0,1-.91.89,2.859,2.859,0,0,1-1.43.41,2.123,2.123,0,0,1-1.74-.75,2.646,2.646,0,0,1-.46-2.03l0.82-6.73,0.09-.11h3.63A0.1,0.1,0,0,1,2420.67,1524.3Zm-7.25-.52a10.938,10.938,0,0,1-2.96-.73c-0.01.12-.05,0.5-0.13,1.14s-0.15,1.16-.19,1.59h2.98l0.09,0.04v0.07l-0.24,1.94a0.075,0.075,0,0,1-.04.07,0.145,0.145,0,0,1-.07.02h-2.98l-0.67,5.46a0.1,0.1,0,0,1-.11.09h-3.94l-0.05-.01a0.059,0.059,0,0,1,0-.08l1.7-11.52a0.2,0.2,0,0,0-.09-0.02,1.984,1.984,0,0,0-1.2.27,1.4,1.4,0,0,0-.61.74,2.279,2.279,0,0,0-.1.85,1.072,1.072,0,0,0,.22.61,1.294,1.294,0,0,0,.33.33c0.13,0.1.23,0.17,0.29,0.22a0.257,0.257,0,0,1,.05.27,1.352,1.352,0,0,1-.27.52,2.729,2.729,0,0,1-.88.71,3.132,3.132,0,0,1-1.49.32,2.752,2.752,0,0,1-1.68-.59,2.684,2.684,0,0,1-.96-1.27,3.466,3.466,0,0,1,.27-3.02,3.073,3.073,0,0,1,.9-0.97,4.121,4.121,0,0,1,1.27-.6,13.367,13.367,0,0,1,1.33-.32,7.217,7.217,0,0,1,1.36-.13c0.49-.01.84-0.01,1.04,0s0.44,0.01.69,0.03c0.45,0.02,1.25.09,2.4,0.2s2,0.18,2.55.21a10.421,10.421,0,0,0,1.88-.09,3.28,3.28,0,0,0,1.57-.54c0.18-.13.32,0.02,0.43,0.44a3.334,3.334,0,0,1-.16,2.12A2.457,2.457,0,0,1,2413.42,1523.78ZM2381.9,1539a11.748,11.748,0,0,1-5.6-1.41c4.11-.45,5.87-8.85,5.87-8.85a2.211,2.211,0,0,1,.05-0.25,12.127,12.127,0,0,0,3.58.07,2.761,2.761,0,0,0,2.45-1.93,3.334,3.334,0,0,0,.16-2.12c-0.11-.42-0.25-0.56-0.43-0.44a3.323,3.323,0,0,1-1.58.54,10.313,10.313,0,0,1-1.87.09c-0.3-.02-0.71-0.05-1.2-0.09,1.46-3.73,2.7-6.07,4.47-6.5a0.44,0.44,0,0,0,.1-0.02,4.241,4.241,0,0,1,1.95-.01A12.021,12.021,0,0,1,2381.9,1539Zm-8.58-3.69a12.018,12.018,0,0,1,8.58-20.31,11.84,11.84,0,0,1,4.5.89c-4.04.43-6.22,6.1-7.86,12.3C2376.73,1535.01,2375.46,1535.08,2373.32,1535.31Z" transform="translate(-2370 -1515)"/>
</svg>
