<svg width="40" height="40" viewBox="0 0 40 40" fill="none" xmlns="http://www.w3.org/2000/svg">
<mask id="mask0_2312_85" style="mask-type:alpha" maskUnits="userSpaceOnUse" x="0" y="0" width="40" height="40">
<rect width="40" height="40" fill="#F2F2F2"/>
</mask>
<g mask="url(#mask0_2312_85)">
<path fill-rule="evenodd" clip-rule="evenodd" d="M29.6959 16.2382L28.1865 17.759C27.9896 17.9568 27.7236 18.0675 27.4463 18.0666C27.1689 18.0666 26.9029 17.9542 26.7069 17.7555L26.1994 17.244C25.7907 16.8326 25.7881 16.165 26.1959 15.7528L27.7053 14.2329C27.9013 14.0342 28.1681 13.9235 28.4464 13.9244C28.7229 13.9244 28.9898 14.0368 29.1849 14.2355L29.6924 14.7471C30.1011 15.1576 30.1028 15.8251 29.6959 16.2382ZM22.7579 22.6595H16.498C16.1655 22.6595 15.8523 22.5 15.6545 22.2298C15.4568 21.9597 15.399 21.6111 15.4988 21.2903L16.8069 17.0705C16.9434 16.6295 17.3486 16.3297 17.8062 16.3297H21.3824C21.8348 16.3297 22.2355 16.6226 22.3764 17.0557L23.7537 21.2755C23.8587 21.5971 23.8036 21.9492 23.6058 22.2237C23.4098 22.4974 23.0939 22.6595 22.7579 22.6595ZM19.9876 14.2547H19.2701C18.6926 14.2556 18.2236 13.785 18.2218 13.2028V11.0519C18.2218 10.7722 18.3312 10.5037 18.5281 10.3059C18.725 10.109 18.9918 9.99828 19.2701 10H19.9876C20.566 9.99915 21.0341 10.4698 21.035 11.0519V13.2028C21.0359 13.4825 20.9256 13.751 20.7287 13.9479C20.5319 14.1458 20.2659 14.2564 19.9876 14.2547ZM12.2936 17.7555C11.8867 18.1669 11.2243 18.1686 10.8157 17.759L9.30626 16.2382C9.10851 16.0404 8.99913 15.7711 9.00001 15.4922C9.00001 15.2125 9.11201 14.9441 9.30801 14.7471L9.8164 14.2347C10.225 13.8233 10.8865 13.8216 11.2961 14.2312L12.8055 15.7528C13.0023 15.9506 13.1126 16.2191 13.1117 16.4988C13.1117 16.7786 12.9997 17.0461 12.8037 17.2431L12.2936 17.7555ZM11.5638 24.4556C11.6994 24.0147 12.1037 23.7149 12.5622 23.7149H16.1375C16.5908 23.7149 16.9907 24.0077 17.1324 24.4399L18.5088 28.6606C18.6138 28.9822 18.5596 29.3352 18.3627 29.6088C18.1658 29.8825 17.8499 30.0455 17.5139 30.0455H11.2541C10.9207 30.0455 10.6074 29.8851 10.4105 29.6149C10.2137 29.3448 10.1559 28.9953 10.2548 28.6763L11.5638 24.4556ZM22.0316 24.4556C22.169 24.0147 22.5733 23.7149 23.0318 23.7149H26.6054C27.0578 23.7149 27.4594 24.0077 27.6003 24.4399L28.9767 28.6606C29.0817 28.9822 29.0283 29.3352 28.8305 29.6088C28.6328 29.8825 28.3178 30.0455 27.9826 30.0455H21.7228C21.3894 30.0455 21.0761 29.8851 20.8792 29.6149C20.6815 29.3439 20.6246 28.9953 20.7244 28.6763L22.0316 24.4556Z" fill="#1A4FC9"/>
</g>
</svg>
