<svg width="40" height="40" viewBox="0 0 40 40" fill="none" xmlns="http://www.w3.org/2000/svg">
<mask id="mask0_2312_73" style="mask-type:alpha" maskUnits="userSpaceOnUse" x="0" y="0" width="40" height="40">
<rect width="40" height="40" fill="#D9D9D9"/>
</mask>
<g mask="url(#mask0_2312_73)">
<mask id="mask1_2312_73" style="mask-type:luminance" maskUnits="userSpaceOnUse" x="7" y="7" width="25" height="25">
<path fill-rule="evenodd" clip-rule="evenodd" d="M7 7H32V32H7V7Z" fill="white"/>
</mask>
<g mask="url(#mask1_2312_73)">
<path fill-rule="evenodd" clip-rule="evenodd" d="M22.1398 29.8846C22.0899 29.6095 21.8396 29.4594 21.4017 29.5844C21.7519 28.0838 21.9272 27.2335 22.6653 26.5957C23.7289 25.6704 22.7904 24.6449 21.9771 24.7575C21.3391 24.8575 21.7395 23.9697 21.1638 23.9196C20.5884 23.8696 19.85 22.7317 19.0243 22.344C18.5864 22.1314 18.1608 21.5812 17.4852 21.5562C16.8846 21.5312 16.0213 22.0564 16.0213 21.6562C16.0087 20.7809 15.9588 19.9055 15.8585 19.0427C15.8336 18.7425 15.6583 18.9426 16.4716 18.9551C16.9096 18.9676 16.6969 18.0798 17.1348 18.0423C17.5602 18.0047 18.5737 18.4424 18.8366 18.2674C19.0742 18.1048 20.6008 22.2815 20.6008 18.9551C20.6008 18.555 20.4007 17.8797 20.6008 17.5045C21.4141 16.0289 22.1648 14.8285 22.0899 14.6534C21.6144 14.5033 21.1013 14.5158 20.6383 14.6784C20.4257 14.7534 20.7009 15.0786 20.4007 15.1536C19.2619 15.4162 18.2484 14.841 18.5988 14.3032C18.9618 13.753 20.2756 14.0656 20.388 12.9527C20.4506 12.3149 20.5132 11.5896 20.5508 11.0394C22.0899 11.277 21.9272 9.0386 19.6373 8.80101C24.1544 8.85103 28.1458 11.7272 29.6347 15.9914C29.5598 15.9289 29.4722 15.8789 29.3845 15.8789C28.6839 14.1532 27.0071 15.4037 27.5827 16.9293C24.5298 19.2803 25.3056 20.9184 26.3189 21.8438C26.8446 22.369 27.2949 22.9693 27.6829 23.607C27.3199 24.6449 28.9967 24.2323 29.8224 22.4691C28.7338 26.1205 25.8184 28.9342 22.1398 29.8846ZM8.77659 19.5054C8.77659 18.7676 8.85167 18.0298 9.00182 17.292C9.46478 17.7922 10.5534 17.7797 10.8161 17.0419C11.2916 17.3295 11.9297 17.3796 11.9297 17.9423C11.9297 19.8181 11.9923 21.8189 13.694 21.8439C14.3446 22.1065 14.8451 22.6317 15.0704 23.2945C15.2205 23.6821 15.8086 23.2945 16.4467 23.2945C16.7722 23.2945 16.4467 23.8322 16.4467 25.0077C16.4467 26.1706 18.9619 27.9589 18.9619 27.9589C18.9492 28.5841 18.9742 29.2219 19.0493 29.8471C18.5738 29.8346 18.086 29.8971 17.6354 30.0347C12.5179 29.1468 8.77659 24.7075 8.77659 19.5054ZM30.2103 19.6801C30.1728 19.0674 30.0978 18.4546 29.9727 17.8544C29.9851 17.6418 29.9851 17.4417 29.9851 17.2541C30.1477 17.9919 30.2229 18.7422 30.2229 19.5051L30.2103 19.6801ZM32 19.5051C32 12.6023 26.4069 7 19.5124 7C12.6181 7 7 12.5898 7 19.4801C7 25.7826 11.6922 31.0973 17.9484 31.8851C18.3738 31.9726 18.7992 32.0102 19.2247 31.9977C19.3623 31.9977 19.4999 31.9851 19.6376 31.9726C26.4819 31.9226 32 26.3454 32 19.5051Z" fill="#1950C9"/>
</g>
</g>
</svg>
