<svg 
 xmlns="http://www.w3.org/2000/svg"
 xmlns:xlink="http://www.w3.org/1999/xlink"
 width="23px" height="23px">
<path fill-rule="evenodd"  fill="rgb(26, 79, 201)"
 d="M10.544,0.039 C12.523,-0.125 14.547,0.226 16.348,1.068 C18.204,1.933 19.797,3.276 20.964,4.961 C21.996,6.451 22.660,8.167 22.899,9.964 C23.163,11.947 22.907,13.998 22.146,15.847 C21.455,17.525 20.380,19.015 19.006,20.198 C17.009,21.931 14.398,22.934 11.753,22.980 C11.173,23.022 10.589,23.000 10.016,22.889 C7.534,22.576 5.170,21.415 3.399,19.647 C2.218,18.479 1.305,17.068 0.724,15.512 C0.031,13.666 -0.167,11.640 0.139,9.695 C0.465,7.623 1.355,5.681 2.710,4.081 C4.103,2.431 5.933,1.205 7.989,0.546 C8.819,0.280 9.675,0.111 10.544,0.039 L10.544,0.039 ZM11.674,1.663 C12.096,1.691 12.511,1.839 12.849,2.097 C13.124,2.309 13.347,2.615 13.385,2.968 C13.413,3.196 13.333,3.447 13.138,3.583 C12.947,3.727 12.693,3.732 12.464,3.708 C12.422,4.299 12.380,4.892 12.317,5.482 C12.294,5.718 12.179,5.948 11.981,6.084 C11.643,6.325 11.201,6.332 10.847,6.540 C10.684,6.634 10.551,6.837 10.630,7.028 C10.718,7.239 10.934,7.357 11.139,7.433 C11.532,7.569 11.968,7.573 12.368,7.465 C12.567,7.401 12.361,7.095 12.560,7.039 C12.989,6.913 13.470,6.861 13.899,7.005 C13.865,7.212 13.757,7.395 13.664,7.580 C13.288,8.282 12.876,8.965 12.500,9.667 C12.337,10.073 12.498,10.511 12.510,10.929 C12.510,11.275 12.511,11.630 12.412,11.965 C12.383,12.067 12.299,12.201 12.173,12.155 C11.942,12.042 11.816,11.800 11.678,11.595 C11.410,11.186 11.228,10.724 10.922,10.341 C10.835,10.363 10.745,10.389 10.654,10.379 C10.203,10.342 9.779,10.142 9.326,10.136 C9.117,10.144 9.065,10.382 9.024,10.545 C8.976,10.699 8.957,10.919 8.776,10.972 C8.557,10.990 8.338,10.953 8.127,10.905 C8.238,11.758 8.292,12.618 8.301,13.478 C8.297,13.584 8.418,13.612 8.503,13.598 C8.918,13.543 9.311,13.328 9.738,13.377 C10.130,13.418 10.447,13.671 10.752,13.897 C10.971,14.066 11.235,14.162 11.451,14.335 C11.906,14.670 12.263,15.123 12.737,15.433 C12.868,15.528 13.033,15.531 13.180,15.586 C13.416,15.734 13.328,16.075 13.507,16.264 C13.590,16.343 13.710,16.323 13.813,16.317 C14.218,16.274 14.632,16.523 14.788,16.897 C14.883,17.119 14.862,17.378 14.751,17.589 C14.584,17.928 14.229,18.113 14.030,18.429 C13.567,19.119 13.453,19.965 13.248,20.753 C13.420,20.724 13.616,20.690 13.773,20.795 C13.860,20.848 13.898,20.947 13.937,21.036 C15.657,20.596 17.228,19.700 18.481,18.441 C19.643,17.278 20.495,15.842 20.959,14.266 C20.667,14.843 20.249,15.388 19.661,15.684 C19.477,15.767 19.243,15.852 19.057,15.737 C18.911,15.625 18.962,15.422 19.000,15.272 C18.625,14.667 18.213,14.076 17.690,13.589 C17.364,13.273 17.089,12.882 16.983,12.434 C16.869,11.969 16.961,11.473 17.172,11.048 C17.565,10.260 18.235,9.658 18.918,9.122 C18.744,8.652 18.779,8.078 19.118,7.690 C19.318,7.449 19.664,7.309 19.966,7.433 C20.274,7.555 20.454,7.858 20.583,8.148 C20.661,8.176 20.737,8.209 20.810,8.247 C20.183,6.468 19.041,4.872 17.548,3.717 C16.123,2.609 14.419,1.914 12.627,1.711 C12.309,1.674 11.990,1.646 11.674,1.663 L11.674,1.663 ZM3.533,9.232 C3.450,9.417 3.316,9.583 3.128,9.668 C2.701,9.863 2.199,9.784 1.852,9.469 C1.534,11.021 1.581,12.649 2.016,14.173 C2.497,15.870 3.425,17.406 4.704,18.621 C6.026,19.883 7.676,20.751 9.465,21.128 C9.607,21.151 9.756,21.214 9.898,21.159 C10.285,21.041 10.693,21.010 11.096,21.014 C11.024,20.437 11.014,19.855 11.016,19.274 C10.297,18.735 9.594,18.149 9.059,17.419 C8.890,17.173 8.731,16.901 8.712,16.596 C8.697,16.151 8.771,15.710 8.832,15.271 C8.834,15.181 8.867,15.056 8.779,14.998 C8.404,14.949 8.051,15.135 7.680,15.142 C7.573,15.147 7.475,15.080 7.441,14.979 C7.257,14.514 6.942,14.097 6.522,13.823 C6.390,13.740 6.249,13.648 6.087,13.645 C5.794,13.629 5.501,13.529 5.280,13.332 C4.979,13.068 4.823,12.682 4.726,12.303 C4.550,11.559 4.561,10.790 4.551,10.031 C4.551,9.855 4.447,9.695 4.301,9.602 C4.060,9.448 3.782,9.372 3.533,9.232 L3.533,9.232 ZM21.164,10.148 C21.259,10.615 21.323,11.088 21.333,11.563 C21.379,10.854 21.279,10.144 21.142,9.448 C21.151,9.681 21.108,9.919 21.164,10.148 L21.164,10.148 Z"/>
</svg>