<svg 
 xmlns="http://www.w3.org/2000/svg"
 xmlns:xlink="http://www.w3.org/1999/xlink"
 width="26px" height="21px">
<path fill-rule="evenodd"  fill="rgb(26, 79, 201)"
 d="M23.481,20.553 C23.254,20.835 22.929,21.000 22.572,21.000 L4.397,21.000 C4.039,21.000 3.697,20.835 3.487,20.553 C1.602,17.987 0.628,14.674 1.081,11.131 C1.813,5.367 6.411,0.730 12.031,0.084 C19.583,-0.794 25.983,5.251 25.999,12.836 C25.999,15.618 25.122,18.334 23.481,20.553 ZM14.727,12.670 C14.662,12.538 14.565,12.405 14.467,12.306 L10.066,7.934 L11.544,14.012 C11.754,14.906 12.648,15.452 13.525,15.237 C13.671,15.204 13.818,15.138 13.947,15.055 L14.126,14.956 C14.904,14.492 15.182,13.465 14.727,12.670 Z"/>
</svg>