<svg 
 xmlns="http://www.w3.org/2000/svg"
 xmlns:xlink="http://www.w3.org/1999/xlink"
 width="22px" height="22px">
<path fill-rule="evenodd"  fill="rgb(26, 79, 201)"
 d="M11.404,12.025 L20.429,12.025 C20.337,17.626 15.689,22.091 10.047,21.999 C4.407,21.906 -0.091,17.292 0.002,11.692 C0.002,9.001 1.077,6.419 2.995,4.516 C4.911,2.613 7.511,1.544 10.222,1.544 L10.222,10.855 C10.222,11.503 10.751,12.028 11.404,12.028 L11.404,12.027 L11.405,12.027 L11.404,12.025 ZM12.573,0.000 C17.476,0.669 21.330,4.499 22.000,9.367 L13.846,9.367 C13.507,9.367 13.183,9.234 12.944,8.996 C12.707,8.759 12.572,8.437 12.573,8.102 L12.573,0.000 Z"/>
</svg>