<svg width="40" height="40" viewBox="0 0 40 40" fill="none" xmlns="http://www.w3.org/2000/svg">
<mask id="mask0_2312_88" style="mask-type:alpha" maskUnits="userSpaceOnUse" x="0" y="0" width="40" height="40">
<rect width="40" height="40" fill="#F2F2F2"/>
</mask>
<g mask="url(#mask0_2312_88)">
<path fill-rule="evenodd" clip-rule="evenodd" d="M24.3545 23.0026L20.52 16.0222C20.4108 15.811 20.2142 15.6821 20.0021 15.6821C19.7899 15.6821 19.5944 15.811 19.4852 16.0222L15.6497 23.0026C15.5654 23.1638 15.4313 23.2793 15.2763 23.323C15.1203 23.3677 14.956 23.3375 14.8198 23.2387L10.9489 20.4432C10.4351 20.0719 9.8392 20.7157 10.0472 21.4135L12.3914 29.2073C12.4746 29.5078 12.7117 29.7138 12.981 29.72H27.0242C27.2946 29.7138 27.5306 29.5078 27.6138 29.2073L29.9559 21.4135C30.167 20.7157 29.5659 20.0719 29.0542 20.4432L25.1844 23.2387C25.0482 23.3365 24.8849 23.3677 24.7278 23.323C24.5718 23.2782 24.4377 23.1638 24.3545 23.0026ZM21.5049 12.7555C21.5205 13.392 21.2366 13.989 20.7665 14.3124C20.2974 14.6358 19.713 14.6358 19.2439 14.3124C18.7749 13.989 18.492 13.392 18.5055 12.7555C18.5055 11.7862 19.1774 11 20.0062 11C20.8351 11 21.5059 11.7862 21.5059 12.7555H21.5049ZM33 18.6149C33 19.5842 32.3282 20.3694 31.5003 20.3694C30.6714 20.3694 30.0006 19.5842 30.0006 18.6149C30.0006 17.6456 30.6714 16.8594 31.5003 16.8594C32.3282 16.8594 33 17.6456 33 18.6149ZM10.0004 18.617C10.0004 19.5862 9.3296 20.3714 8.50072 20.3714C7.67184 20.3714 7 19.5862 7 18.617C7 17.6477 7.67184 16.8614 8.50072 16.8614C9.3296 16.8614 10.0004 17.6477 10.0004 18.617Z" fill="#1A4FC9"/>
</g>
</svg>
