<svg 
 xmlns="http://www.w3.org/2000/svg"
 xmlns:xlink="http://www.w3.org/1999/xlink"
 width="25px" height="18px">
<path fill-rule="evenodd"  fill="rgb(26, 79, 201)"
 d="M16.687,11.541 L13.000,4.829 C12.895,4.626 12.706,4.502 12.502,4.502 C12.298,4.502 12.110,4.626 12.005,4.829 L8.317,11.541 C8.236,11.696 8.107,11.807 7.958,11.849 C7.808,11.892 7.650,11.863 7.519,11.768 L3.797,9.080 C3.303,8.723 2.730,9.342 2.930,10.013 L5.184,17.507 C5.264,17.796 5.492,17.994 5.751,18.000 L19.254,18.000 C19.514,17.994 19.741,17.796 19.821,17.507 L22.073,10.013 C22.276,9.342 21.698,8.723 21.206,9.080 L17.485,11.768 C17.354,11.862 17.197,11.892 17.046,11.849 C16.896,11.806 16.767,11.696 16.687,11.541 L16.687,11.541 ZM13.947,1.688 C13.962,2.300 13.689,2.874 13.237,3.185 C12.786,3.496 12.224,3.496 11.773,3.185 C11.322,2.874 11.050,2.300 11.063,1.688 C11.063,0.756 11.709,0.000 12.506,0.000 C13.303,0.000 13.948,0.756 13.948,1.688 L13.947,1.688 ZM25.000,7.322 C25.000,8.254 24.354,9.009 23.558,9.009 C22.761,9.009 22.116,8.254 22.116,7.322 C22.116,6.390 22.761,5.634 23.558,5.634 C24.354,5.634 25.000,6.390 25.000,7.322 L25.000,7.322 ZM2.885,7.324 C2.885,8.256 2.240,9.011 1.443,9.011 C0.646,9.011 0.000,8.256 0.000,7.324 C0.000,6.392 0.646,5.636 1.443,5.636 C2.240,5.636 2.885,6.392 2.885,7.324 L2.885,7.324 Z"/>
</svg>