<svg xmlns="http://www.w3.org/2000/svg" width="23" height="19" viewBox="0 0 23 19">
  <metadata><?xpacket begin="﻿" id="W5M0MpCehiHzreSzNTczkc9d"?>
<x:xmpmeta xmlns:x="adobe:ns:meta/" x:xmptk="Adobe XMP Core 5.6-c138 79.159824, 2016/09/14-01:09:01        ">
   <rdf:RDF xmlns:rdf="http://www.w3.org/1999/02/22-rdf-syntax-ns#">
      <rdf:Description rdf:about=""/>
   </rdf:RDF>
</x:xmpmeta>
                                                                                                    
                                                                                                    
                                                                                                    
                                                                                                    
                                                                                                    
                                                                                                    
                                                                                                    
                                                                                                    
                                                                                                    
                                                                                                    
                                                                                                    
                                                                                                    
                                                                                                    
                                                                                                    
                                                                                                    
                                                                                                    
                                                                                                    
                                                                                                    
                                                                                                    
                                                                                                    
                           
<?xpacket end="w"?></metadata>
<defs>
    <style>
      .cls-1 {
        fill: #fff;
        fill-rule: evenodd;
      }
    </style>
  </defs>
  <path id="形状_3026" data-name="形状 3026" class="cls-1" d="M1637.86,511.417V513l-3.3-3.168,3.3-3.166v1.583h4.92a4.929,4.929,0,0,0,4.68-3.239,4.661,4.661,0,0,0-1.7-5.3l0.01-.022,2.32-2.233a7.739,7.739,0,0,1,2.41,8.768,8.213,8.213,0,0,1-7.72,5.192l-4.93,0h0.01Zm3.28-15.834V494l3.36,3.168-3.36,3.166v-1.583h-4.93a4.926,4.926,0,0,0-4.67,3.239,4.662,4.662,0,0,0,1.7,5.3l-2.33,2.251a7.737,7.737,0,0,1-2.41-8.766,8.211,8.211,0,0,1,7.71-5.192h4.93Zm0,0" transform="translate(-1628 -494)"/>
</svg>
