<svg xmlns="http://www.w3.org/2000/svg" width="18" height="20" viewBox="0 0 18 20" fill="none">
<path d="M16.3518 0.89193C16.3518 0.399468 15.9526 0 15.4599 0H14.7806C14.4401 0 14.1135 0.186881 13.9818 0.500956C13.7762 0.99163 13.2927 1.33633 12.7273 1.33633C12.162 1.33633 11.6783 0.99163 11.4728 0.500956C11.3412 0.186881 11.0146 0.000223419 10.6741 0.000223419H10.223C9.88254 0.000223419 9.55595 0.187104 9.42428 0.500956C9.21862 0.99163 8.7351 1.33633 8.16977 1.33633C7.60443 1.33633 7.12069 0.99163 6.91525 0.500956C6.78381 0.187104 6.45699 0.000223419 6.11654 0.000223419H5.68354C5.34309 0.000223419 5.01649 0.187104 4.88483 0.500956C4.67917 0.99163 4.19565 1.33633 3.63031 1.33633C3.06498 1.33633 2.58123 0.99163 2.3758 0.500956C2.24436 0.186881 1.91754 0 1.57708 0H0.89193C0.399468 0 0 0.399245 0 0.89193V4.89891H16.3514V0.89193H16.3518ZM9.01922 14.9444C9.26579 12.8172 10.9459 11.0483 13.0582 10.6958C13.9964 10.5391 14.8917 10.6544 15.6861 10.9703C16.0067 11.0977 16.3521 10.8688 16.3521 10.5239V5.71975H0.00156478V18.8001C0.00156478 19.2496 0.369514 19.6175 0.819056 19.6175H9.88254C10.3108 19.6175 10.5187 19.115 10.2328 18.7958C9.33799 17.7959 8.84732 16.4269 9.01922 14.9444ZM7.36949 10.1331C7.36949 10.4056 7.14863 10.6263 6.87636 10.6263H2.95768C2.68518 10.6263 2.46454 10.4054 2.46454 10.1331V9.48441C2.46454 9.21192 2.6854 8.99128 2.95768 8.99128H6.87636C7.14885 8.99128 7.36949 9.21214 7.36949 9.48441V10.1331Z" fill="#1A4FC9"/>
<path d="M13.9123 11.4424C11.6547 11.4424 9.82458 13.2725 9.82458 15.5301C9.82458 17.7876 11.6547 19.6178 13.9123 19.6178C16.1698 19.6178 17.9999 17.7876 17.9999 15.5301C17.9999 13.2725 16.1698 11.4424 13.9123 11.4424ZM15.8146 15.0895L13.9445 17.2409C13.8249 17.3786 13.6156 17.3915 13.4799 17.2699L12.0922 16.0266C11.9578 15.9061 11.9464 15.6995 12.0669 15.5652L12.4492 15.1384C12.5697 15.0041 12.776 14.9927 12.9106 15.1132L13.6185 15.7474L14.8894 14.2847C15.0078 14.1486 15.2142 14.1341 15.3503 14.2526L15.7824 14.6285C15.9188 14.747 15.9331 14.9534 15.8146 15.0895Z" fill="#1A4FC9"/>
</svg>