<svg width="40" height="40" viewBox="0 0 40 40" fill="none" xmlns="http://www.w3.org/2000/svg">
<mask id="mask0_2319_580" style="mask-type:alpha" maskUnits="userSpaceOnUse" x="0" y="0" width="40" height="40">
<rect width="40" height="40" fill="#F2F2F2"/>
</mask>
<g mask="url(#mask0_2319_580)">
<path d="M27.3518 10.8919C27.3518 10.3995 26.9526 10 26.4599 10H25.7806C25.4401 10 25.1135 10.1869 24.9818 10.501C24.7762 10.9916 24.2927 11.3363 23.7273 11.3363C23.162 11.3363 22.6783 10.9916 22.4728 10.501C22.3412 10.1869 22.0146 10.0002 21.6741 10.0002H21.223C20.8825 10.0002 20.556 10.1871 20.4243 10.501C20.2186 10.9916 19.7351 11.3363 19.1698 11.3363C18.6044 11.3363 18.1207 10.9916 17.9152 10.501C17.7838 10.1871 17.457 10.0002 17.1165 10.0002H16.6835C16.3431 10.0002 16.0165 10.1871 15.8848 10.501C15.6792 10.9916 15.1957 11.3363 14.6303 11.3363C14.065 11.3363 13.5812 10.9916 13.3758 10.501C13.2444 10.1869 12.9175 10 12.5771 10H11.8919C11.3995 10 11 10.3992 11 10.8919V14.8989H27.3514L27.3518 10.8919ZM20.0192 24.9444C20.2658 22.8172 21.9459 21.0483 24.0582 20.6958C24.9964 20.5391 25.8917 20.6544 26.6861 20.9703C27.0067 21.0977 27.3521 20.8688 27.3521 20.5239V15.7197H11.0016V28.8001C11.0016 29.2496 11.3695 29.6175 11.8191 29.6175H20.8825C21.3108 29.6175 21.5187 29.115 21.2328 28.7958C20.338 27.7959 19.8473 26.4269 20.0192 24.9444ZM18.3695 20.1331C18.3695 20.4056 18.1486 20.6263 17.8764 20.6263H13.9577C13.6852 20.6263 13.4645 20.4054 13.4645 20.1331V19.4844C13.4645 19.2119 13.6854 18.9913 13.9577 18.9913H17.8764C18.1488 18.9913 18.3695 19.2121 18.3695 19.4844V20.1331Z" fill="#1A4FC9"/>
<path d="M24.9123 21.4424C22.6547 21.4424 20.8246 23.2725 20.8246 25.5301C20.8246 27.7876 22.6547 29.6178 24.9123 29.6178C27.1698 29.6178 28.9999 27.7876 28.9999 25.5301C28.9999 23.2725 27.1698 21.4424 24.9123 21.4424ZM26.8146 25.0895L24.9445 27.2409C24.8249 27.3786 24.6156 27.3915 24.4799 27.2699L23.0922 26.0266C22.9578 25.9061 22.9464 25.6995 23.0669 25.5652L23.4492 25.1384C23.5697 25.0041 23.776 24.9927 23.9106 25.1132L24.6185 25.7474L25.8894 24.2847C26.0078 24.1486 26.2142 24.1341 26.3503 24.2526L26.7824 24.6285C26.9188 24.747 26.9331 24.9534 26.8146 25.0895Z" fill="#1A4FC9"/>
</g>
</svg>
