<?xml version="1.0" encoding="utf-8"?>
<!-- Generator: Adobe Illustrator 19.0.0, SVG Export Plug-In . SVG Version: 6.00 Build 0)  -->
<svg version="1.1" id="图层_1" xmlns="http://www.w3.org/2000/svg" xmlns:xlink="http://www.w3.org/1999/xlink" x="0px" y="0px"
	 viewBox="34.6 258.8 746.4 335.1" style="enable-background:new 34.6 258.8 746.4 335.1;" xml:space="preserve">
<style type="text/css">
	.st0{fill:#D7E7FC;}
	.st1{fill:#3789EE;}
</style>
<g>
	<path class="st0" d="M669,478.8v28c0,14.4-9.8,26.6-23.3,29.8c67.8,2.1,110.6,5.1,110.6,8.4c0,6.1-147,11.2-328.4,11.2
		S99.5,551.3,99.5,545c0-4,62.9-7.5,157.2-9.6c-11.4-4.4-19.6-15.6-19.6-28.6v-28H184c-2.6,0-5.1-0.5-7.5-1.2
		c-15.1-1.9-27-14.7-27-30.5V356c0-17,13.7-30.7,30.7-30.7s30.7,13.7,30.7,30.7v74.3H237v-35.4c0-17,13.7-30.7,30.7-30.7
		s30.7,13.7,30.7,30.7v35.4h10.2c13.3,0,24.2,10.7,24.2,24.2s-10.7,24.2-24.2,24.2h-10.2v28c0,12.6-7.7,23.5-18.4,28.2
		c49.3-0.8,98.6-1.2,147.9-1.2c75.7,0,145.6,0.9,201,2.3c-12.6-4-21.7-15.6-21.7-29.3v-28h-53.1c-2.6,0-5.1-0.5-7.5-1.2
		c-15.1-1.9-27-14.7-27-30.5v-91.1c0-17,13.7-30.7,30.7-30.7s30.7,13.7,30.7,30.7v74.3h26.1v-35.4c0-17,13.7-30.7,30.7-30.7
		s30.7,13.7,30.7,30.7v35.4h10.2c13.3,0,24.2,10.7,24.2,24.2s-10.7,24.2-24.2,24.2H669V478.8z M428.8,505.6
		c-35.9,0-65.2-29.1-65.2-65.2s29.1-65.2,65.2-65.2s65.2,29.1,65.2,65.2S464.7,505.6,428.8,505.6L428.8,505.6z M428.8,474.2
		c18.4,0,33.5-14.9,33.5-33.5s-14.9-33.5-33.5-33.5s-33.5,14.9-33.5,33.5C395.3,459.2,410.4,474.2,428.8,474.2L428.8,474.2z"/>
	<path class="st1" d="M366.4,459.2h-7.7c-2.1-7.9-2.8-16.3-2.1-24.9c3.5-39.8,38.7-69.4,78.7-65.9c2.1,0.2,3.5,2.1,3.5,4
		s-2.1,3.5-4,3.5c-35.9-3-67.3,23.3-70.6,59.2C363.1,443.4,364.1,451.6,366.4,459.2L366.4,459.2z M491.2,459.2
		c1.2-4.2,2.1-8.4,2.6-13c2.1-23.5-8.9-46.1-28-59.2c-1.6-1.2-2.1-3.5-0.9-5.1s3.5-2.1,5.1-0.9c21.2,14.7,33.3,39.8,31,66.1
		c-0.5,4.2-1.2,8.4-2.1,12.3h-7.7V459.2z M458.2,374.2c1.9,0.9,2.8,3,1.9,4.9s-3,2.8-4.9,1.9c-2.8-1.2-5.6-2.3-8.6-3
		c-1.9-0.5-3-2.6-2.6-4.7c0.5-1.9,2.6-3,4.7-2.6C451.9,371.7,454.9,372.8,458.2,374.2L458.2,374.2z M490.1,418.3h7.7
		c2.3,7,3.5,14.7,3.5,22.4c0,40.1-32.4,72.4-72.7,72.4c-2.1,0-3.7-1.6-3.7-3.7s1.6-3.7,3.7-3.7c35.9,0,65.2-29.1,65.2-65.2
		C494,432.7,492.6,425.2,490.1,418.3L490.1,418.3z M376.6,401.5c-8.2,10.9-13,24.5-13,39.1c0,15.1,5.1,29.3,14.4,41
		c5.6,6.8,12.3,12.3,20,16.5c2.1,1.2,4.2,2.1,6.3,3c1.9,0.7,2.8,3,2.1,4.9c-0.7,1.9-3,2.8-4.9,2.1c-2.3-0.9-4.9-2.1-7-3.3
		c-8.6-4.7-16.1-10.9-22.4-18.4c-10.2-12.8-16.1-28.6-16.1-45.7c0-19.6,7.7-37.5,20.5-50.5v11.3H376.6z M428.8,477.6
		c-20.5,0-37.3-16.8-37.3-37.3s16.8-37.3,37.3-37.3s37.3,16.8,37.3,37.3C466.1,461.1,449.3,477.6,428.8,477.6L428.8,477.6z
		 M428.8,470.4c16.5,0,29.8-13.3,29.8-29.8s-13.3-29.8-29.8-29.8S399,424.1,399,440.6S412.3,470.4,428.8,470.4L428.8,470.4z
		 M430.2,423.4l15.8,15.8c0.7,0.7,0.7,1.9,0,2.6l-15.8,15.8c-0.7,0.7-1.9,0.7-2.6,0l-15.8-15.8c-0.7-0.7-0.7-1.9,0-2.6l15.8-15.8
		C428.1,422.7,429.5,422.7,430.2,423.4L430.2,423.4z M428.8,432.7l-7.9,7.9l7.9,7.9l7.9-7.9L428.8,432.7z M157.2,405.2v-9.3
		c0-2.1,1.6-3.7,3.7-3.7c2.1,0,3.7,1.6,3.7,3.7v9.3c0,2.1-1.6,3.7-3.7,3.7C158.9,408.9,157.2,407.3,157.2,405.2L157.2,405.2z
		 M218.5,470.4h26.1c4.2,0,7.5,3.3,7.5,7.5v28.9c0,12.8,10.5,23.3,23.3,23.3s23.3-10.5,23.3-23.3v-28.9c0-4.2,3.3-7.5,7.5-7.5h9.3
		c9.3,0,16.8-7.5,16.8-16.8s-7.5-16.8-16.8-16.8h-9.3c-4.2,0-7.5-3.3-7.5-7.5v-18.6c0-2.1,1.6-3.7,3.7-3.7s3.7,1.6,3.7,3.7v16.9
		c0,0.9,0.9,1.9,1.9,1.9h7.5c13.3,0,24.2,10.7,24.2,24.2s-10.7,24.2-24.2,24.2H308c-0.9,0-1.9,0.9-1.9,1.9v27
		c0,17-13.7,30.7-30.7,30.7s-30.7-13.7-30.7-30.7v-27c0-0.9-0.9-1.9-1.9-1.9h-24.2c-2.1,0-3.7-1.6-3.7-3.7
		C214.8,472.1,216.4,470.4,218.5,470.4L218.5,470.4z M203.6,477.6h-16.8c-16.5-0.5-29.8-14-29.8-30.7v-30.7c0-2.1,1.6-3.7,3.7-3.7
		c2.1,0,3.7,1.6,3.7,3.7v30.7c0,12.6,10,22.8,22.4,23.3h16.8c2.1,0,3.7,1.6,3.7,3.7C207.3,476,205.7,477.6,203.6,477.6L203.6,477.6z
		 M306.1,395.9c0,2.1-1.6,3.7-3.7,3.7s-3.7-1.6-3.7-3.7V395c0-12.8-10.5-23.3-23.3-23.3s-23.3,10.5-23.3,23.3v34.5
		c0,4.2-3.3,7.5-7.5,7.5h-26.1c-4.2,0-7.5-3.3-7.5-7.5v-73.4c0-12.8-10.5-23.3-23.3-23.3s-23.3,10.5-23.3,23.3V385
		c0,2.1-1.6,3.7-3.7,3.7c-2.1,0-3.7-1.6-3.7-3.7v-28.9c0-17,13.7-30.7,30.7-30.7s30.7,13.7,30.7,30.7v71.5c0,0.9,0.9,1.9,1.9,1.9
		h22.4c0.9,0,1.9-0.9,1.9-1.9V395c0-17,13.7-30.7,30.7-30.7S306,378,306,395v0.9H306.1z M527.3,405.2v-9.3c0-2.1,1.6-3.7,3.7-3.7
		c2.1,0,3.7,1.6,3.7,3.7v9.3c0,2.1-1.6,3.7-3.7,3.7C529,408.9,527.3,407.3,527.3,405.2L527.3,405.2z M588.8,470.4h26.1
		c4.2,0,7.5,3.3,7.5,7.5v28.9c0,12.8,10.5,23.3,23.3,23.3s23.3-10.5,23.3-23.3v-28.9c0-4.2,3.3-7.5,7.5-7.5h9.3
		c9.3,0,16.8-7.5,16.8-16.8s-7.5-16.8-16.8-16.8h-9.3c-4.2,0-7.5-3.3-7.5-7.5v-18.6c0-2.1,1.6-3.7,3.7-3.7c2.1,0,3.7,1.6,3.7,3.7
		v16.9c0,0.9,0.9,1.9,1.9,1.9h7.5c13.3,0,24.2,10.7,24.2,24.2s-10.7,24.2-24.2,24.2h-7.5c-0.9,0-1.9,0.9-1.9,1.9v27
		c0,17-13.7,30.7-30.7,30.7S615,523.8,615,506.8v-27c0-0.9-0.9-1.9-1.9-1.9h-24.2c-2.1,0-3.7-1.6-3.7-3.7
		C585.1,472.1,586.7,470.4,588.8,470.4L588.8,470.4z M573.9,477.6h-16.8c-16.5-0.5-29.8-14-29.8-30.7v-30.7c0-2.1,1.6-3.7,3.7-3.7
		c2.1,0,3.7,1.6,3.7,3.7v30.7c0,12.6,10,22.8,22.4,23.3h16.8c2.1,0,3.7,1.6,3.7,3.7C577.7,476,576,477.6,573.9,477.6L573.9,477.6z
		 M676.2,395.9c0,2.1-1.6,3.7-3.7,3.7c-2.1,0-3.7-1.6-3.7-3.7V395c0-12.8-10.5-23.3-23.3-23.3s-23.3,10.5-23.3,23.3v34.5
		c0,4.2-3.3,7.5-7.5,7.5h-25.9c-4.2,0-7.5-3.3-7.5-7.5v-73.4c0-12.8-10.5-23.3-23.3-23.3s-23.3,10.5-23.3,23.3V385
		c0,2.1-1.6,3.7-3.7,3.7c-2.1,0-3.7-1.6-3.7-3.7v-28.9c0-17,13.7-30.7,30.7-30.7s30.7,13.7,30.7,30.7v71.5c0,0.9,0.9,1.9,1.9,1.9
		H613c0.9,0,1.9-0.9,1.9-1.9V395c0-17,13.7-30.7,30.7-30.7s30.7,13.7,30.7,30.7v0.9H676.2z M319.1,293.6c-3,0-5.6,2.6-5.6,5.6
		c0-3-2.6-5.6-5.6-5.6c3,0,5.6-2.6,5.6-5.6C313.5,291.1,315.9,293.6,319.1,293.6L319.1,293.6z M549.7,535.4c-3,0-5.6,2.6-5.6,5.6
		c0-3-2.6-5.6-5.6-5.6c3,0,5.6-2.6,5.6-5.6C544.1,532.8,546.7,535.4,549.7,535.4L549.7,535.4z M341.5,288.1c-3,0-5.6,2.6-5.6,5.6
		c0-3-2.6-5.6-5.6-5.6c3,0,5.6-2.6,5.6-5.6C335.9,285.5,338.2,288.1,341.5,288.1L341.5,288.1z M572.1,529.8c-3,0-5.6,2.6-5.6,5.6
		c0-3-2.6-5.6-5.6-5.6c3,0,5.6-2.6,5.6-5.6C566.5,527.3,569,529.8,572.1,529.8L572.1,529.8z M335.9,306.7c-6.1,0-11.2,4.9-11.2,11.2
		c0-6.1-4.9-11.2-11.2-11.2c6.1,0,11.2-4.9,11.2-11.2C324.7,301.6,329.6,306.7,335.9,306.7L335.9,306.7z M566.5,548.5
		c-6.1,0-11.2,4.9-11.2,11.2c0-6.1-4.9-11.2-11.2-11.2c6.1,0,11.2-4.9,11.2-11.2C555.3,543.6,560.4,548.5,566.5,548.5L566.5,548.5z"
		/>
</g>
</svg>
