<svg xmlns="http://www.w3.org/2000/svg" width="14" height="14" viewBox="0 0 14 14">
  <metadata><?xpacket begin="﻿" id="W5M0MpCehiHzreSzNTczkc9d"?>
<x:xmpmeta xmlns:x="adobe:ns:meta/" x:xmptk="Adobe XMP Core 5.6-c138 79.159824, 2016/09/14-01:09:01        ">
   <rdf:RDF xmlns:rdf="http://www.w3.org/1999/02/22-rdf-syntax-ns#">
      <rdf:Description rdf:about=""/>
   </rdf:RDF>
</x:xmpmeta>
                                                                                                    
                                                                                                    
                                                                                                    
                                                                                                    
                                                                                                    
                                                                                                    
                                                                                                    
                                                                                                    
                                                                                                    
                                                                                                    
                                                                                                    
                                                                                                    
                                                                                                    
                                                                                                    
                                                                                                    
                                                                                                    
                                                                                                    
                                                                                                    
                                                                                                    
                                                                                                    
                           
<?xpacket end="w"?></metadata>
<defs>
    <style>
      .cls-1 {
        fill: #747474;
        fill-rule: evenodd;
      }
    </style>
  </defs>
  <path id="形状_3034" data-name="形状 3034" class="cls-1" d="M2895,1843a7,7,0,1,1,7-7A7,7,0,0,1,2895,1843Zm4.04-11.04a5.734,5.734,0,1,0,1.67,4.04A5.664,5.664,0,0,0,2899.04,1831.96Zm-3.18,1.75a0.533,0.533,0,0,1-.47-0.19,0.625,0.625,0,0,1-.12-0.39,0.769,0.769,0,0,1,.45-0.67,0.565,0.565,0,0,1,.75.3,0.7,0.7,0,0,1-.19.77A0.624,0.624,0,0,1,2895.86,1833.71Zm-0.05.93a0.34,0.34,0,0,1,.21.29,1.119,1.119,0,0,1-.02.48c-0.18.66-.35,1.31-0.53,1.98-0.1.38-.19,0.78-0.27,1.16a0.158,0.158,0,0,0,.15.2,0.481,0.481,0,0,0,.24-0.07c0.13-.08.25-0.16,0.37-0.25,0.05-.03.1-0.07,0.14-0.09,0.06-.03.1-0.01,0.15,0.08,0.03,0.05.05,0.11,0.08,0.17-0.23.16-.44,0.31-0.66,0.45a6.2,6.2,0,0,1-.94.54,0.466,0.466,0,0,1-.53-0.15,0.581,0.581,0,0,1-.13-0.49c0.09-.44.19-0.86,0.28-1.29,0.14-.56.28-1.11,0.41-1.67a0.6,0.6,0,0,0,0-.19,0.141,0.141,0,0,0-.2-0.07,3.492,3.492,0,0,0-.39.19,3.617,3.617,0,0,0-.32.22,0.106,0.106,0,0,1-.12-0.02,1.081,1.081,0,0,1-.11-0.18c0.09-.07.18-0.14,0.26-0.2,0.37-.27.73-0.54,1.1-0.8a5.054,5.054,0,0,1,.51-0.28A0.441,0.441,0,0,1,2895.81,1834.64Z" transform="translate(-2888 -1829)"/>
</svg>
