<svg 
 xmlns="http://www.w3.org/2000/svg"
 xmlns:xlink="http://www.w3.org/1999/xlink"
 width="21px" height="21px">
<path fill-rule="evenodd"  fill="rgb(26, 79, 201)"
 d="M0.790,1.136 C1.797,-0.001 2.913,-0.001 2.913,-0.001 L5.251,-0.001 L5.251,5.250 L0.000,5.250 L0.000,2.888 C0.000,2.888 0.096,1.922 0.790,1.136 L0.790,1.136 ZM0.000,7.875 L5.251,7.875 L5.251,13.125 L0.000,13.125 L0.000,7.875 ZM0.000,15.750 L5.251,15.750 L5.251,21.000 L2.453,21.000 C2.453,21.000 1.644,20.995 0.859,20.297 C0.000,19.531 0.000,18.375 0.000,18.375 L0.000,15.750 ZM15.750,-0.001 L18.507,-0.001 C18.507,-0.001 19.570,0.033 20.254,0.817 C20.643,1.264 21.000,1.913 21.000,2.508 L21.000,5.250 L15.750,5.250 L15.750,-0.001 ZM15.750,7.875 L21.000,7.875 L21.000,13.125 L15.750,13.125 L15.750,7.875 ZM15.750,15.750 L21.000,15.750 L21.000,18.204 C21.000,18.204 20.998,19.343 20.281,20.142 C19.594,20.907 18.375,21.000 18.375,21.000 L15.750,21.000 L15.750,15.750 ZM8.007,-0.001 L13.256,-0.001 L13.256,5.250 L8.007,5.250 L8.007,-0.001 ZM8.007,7.875 L13.256,7.875 L13.256,13.125 L8.007,13.125 L8.007,7.875 ZM8.007,15.750 L13.256,15.750 L13.256,21.000 L8.007,21.000 L8.007,15.750 Z"/>
</svg>