<svg 
 xmlns="http://www.w3.org/2000/svg"
 xmlns:xlink="http://www.w3.org/1999/xlink"
 width="127px" height="38px">
<path fill-rule="evenodd"  fill="rgb(255, 255, 255)"
 d="M125.836,16.543 C125.534,16.359 125.244,16.266 124.965,16.266 C123.742,16.266 122.308,17.279 120.660,19.306 L120.130,19.949 L121.786,23.821 C122.168,24.746 122.550,25.208 122.933,25.208 C123.456,25.208 124.185,24.657 125.118,23.555 L124.853,24.885 C123.729,26.128 122.732,26.750 121.863,26.750 C121.030,26.750 120.358,26.139 119.842,24.919 L118.418,21.524 L117.525,22.667 C115.398,25.389 113.734,26.750 112.536,26.750 C112.234,26.750 111.844,26.657 111.365,26.472 L112.337,24.442 C112.609,24.598 112.918,24.675 113.264,24.675 C114.383,24.675 115.785,23.662 117.469,21.636 L118.132,20.826 L116.630,17.275 C116.255,16.381 115.888,15.933 115.527,15.933 C115.086,15.933 114.416,16.536 113.517,17.741 L113.805,16.288 C114.880,14.869 115.799,14.158 116.565,14.158 C117.279,14.158 117.947,14.876 118.573,16.310 L119.831,19.206 L120.549,18.285 C122.698,15.533 124.460,14.158 125.836,14.158 C126.204,14.158 126.582,14.281 126.973,14.524 L125.836,16.543 ZM102.260,26.750 C101.296,26.750 100.491,26.371 99.847,25.612 C99.204,24.855 98.882,23.910 98.882,22.778 C98.882,20.648 99.683,18.679 101.287,16.871 C102.892,15.062 104.640,14.158 106.531,14.158 C107.554,14.158 108.397,14.528 109.059,15.268 C109.722,16.007 110.052,16.950 110.052,18.097 C110.052,20.308 109.250,22.303 107.646,24.081 C106.041,25.860 104.247,26.750 102.260,26.750 ZM105.405,15.090 C104.353,15.090 103.405,15.817 102.563,17.270 C101.720,18.723 101.299,20.360 101.299,22.179 C101.299,24.583 102.038,25.784 103.518,25.784 C104.606,25.784 105.566,25.080 106.393,23.671 C107.220,22.263 107.635,20.626 107.635,18.762 C107.635,16.314 106.891,15.090 105.405,15.090 ZM97.877,13.193 C97.973,12.897 98.021,12.605 98.021,12.316 C98.021,11.355 96.516,10.875 93.506,10.875 L93.032,10.875 L91.630,17.986 L96.442,17.986 L95.349,19.117 C94.172,18.954 93.054,18.873 91.995,18.873 L91.454,18.873 L90.813,22.124 C90.276,24.860 89.236,27.045 87.695,28.680 C86.153,30.314 84.360,31.132 82.313,31.132 C81.209,31.132 80.223,30.714 79.356,29.878 L80.979,28.214 C81.560,29.427 82.494,30.033 83.782,30.033 C84.959,30.033 85.885,29.499 86.558,28.430 C87.231,27.361 87.837,25.470 88.374,22.756 L89.147,18.873 L87.369,18.873 L88.153,17.986 L89.323,17.986 L90.714,10.919 C89.205,10.919 87.982,11.328 87.043,12.145 C86.105,12.962 85.636,14.029 85.636,15.346 L85.647,15.589 L83.495,16.632 C83.687,14.362 84.564,12.697 86.129,11.640 C87.691,10.583 90.052,10.053 93.209,10.053 L99.577,10.053 L98.584,13.193 L97.877,13.193 ZM82.674,8.268 C81.502,8.268 80.622,8.697 80.033,9.554 C79.443,10.413 78.913,12.036 78.442,14.424 L76.708,23.189 C76.537,24.039 76.453,24.594 76.453,24.853 C76.453,25.318 76.670,25.551 77.104,25.551 C77.598,25.551 78.552,24.894 79.967,23.577 C80.078,23.473 80.273,23.300 80.552,23.056 L80.353,24.076 C78.616,25.859 77.120,26.750 75.870,26.750 C74.823,26.750 74.301,26.184 74.301,25.052 C74.301,24.586 74.377,23.961 74.533,23.177 L76.047,15.523 C76.577,12.845 77.576,10.762 79.045,9.271 C80.514,7.781 82.302,7.036 84.410,7.036 C85.146,7.036 85.808,7.114 86.398,7.269 L84.884,8.856 C84.029,8.464 83.292,8.268 82.674,8.268 ZM68.406,26.750 C67.346,26.750 66.818,26.191 66.818,25.074 C66.818,24.698 66.901,24.076 67.070,23.211 L67.832,19.350 C68.038,18.256 68.142,17.527 68.142,17.165 C68.142,16.543 67.902,16.233 67.424,16.233 C67.092,16.233 66.500,16.359 65.647,16.610 L65.780,15.933 L71.177,14.158 L70.338,17.708 L69.256,23.189 C69.086,24.047 69.002,24.594 69.002,24.831 C69.002,25.312 69.219,25.551 69.654,25.551 C70.382,25.551 71.478,24.738 72.944,23.111 L72.743,24.143 C71.132,25.881 69.687,26.750 68.406,26.750 ZM68.892,12.228 L69.631,10.719 L72.743,8.678 L71.795,10.719 L68.892,12.228 ZM64.378,13.193 C64.473,12.897 64.521,12.605 64.521,12.316 C64.521,11.355 63.016,10.875 60.006,10.875 L59.532,10.875 L58.130,17.986 L62.942,17.986 L61.850,19.117 C60.673,18.954 59.554,18.873 58.495,18.873 L57.954,18.873 L57.313,22.124 C56.776,24.860 55.737,27.045 54.196,28.680 C52.654,30.314 50.861,31.132 48.814,31.132 C47.710,31.132 46.724,30.714 45.856,29.878 L47.479,28.214 C48.060,29.427 48.995,30.033 50.282,30.033 C51.459,30.033 52.384,29.499 53.059,28.430 C53.732,27.361 54.336,25.470 54.874,22.756 L55.646,18.873 L53.869,18.873 L54.653,17.986 L55.824,17.986 L57.215,10.919 C55.706,10.919 54.483,11.328 53.544,12.145 C52.606,12.962 52.137,14.029 52.137,15.346 L52.148,15.589 L49.995,16.632 C50.186,14.362 51.065,12.697 52.628,11.640 C54.191,10.583 56.553,10.053 59.709,10.053 L66.078,10.053 L65.084,13.193 L64.378,13.193 ZM18.905,38.000 C8.464,38.000 0.000,29.493 0.000,19.000 C0.000,8.507 8.464,-0.000 18.905,-0.000 C29.345,-0.000 37.808,8.507 37.808,19.000 C37.808,29.493 29.345,38.000 18.905,38.000 ZM25.681,20.075 L21.276,20.075 L21.788,17.487 L22.380,17.487 C23.539,17.487 24.762,17.575 26.047,17.752 L27.242,16.520 L21.981,16.520 L23.514,8.778 L24.032,8.778 C27.324,8.778 28.967,9.302 28.967,10.348 C28.967,10.663 28.915,10.981 28.811,11.303 L29.584,11.303 L30.669,7.885 L23.707,7.885 C20.255,7.885 17.675,8.461 15.967,9.612 C14.258,10.763 13.298,12.575 13.088,15.047 L15.441,13.911 L15.431,13.646 C15.431,12.213 15.941,11.051 16.968,10.162 C17.993,9.272 19.332,8.827 20.980,8.827 L19.459,16.520 L18.181,16.520 L17.324,17.487 L19.268,17.487 L18.748,20.075 L17.122,20.075 L16.406,21.509 L18.462,21.509 L18.422,21.714 C17.835,24.669 17.174,26.728 16.437,27.891 C15.701,29.055 14.689,29.637 13.402,29.637 C11.994,29.637 10.973,28.976 10.337,27.656 L8.563,29.468 C9.512,30.378 10.590,30.833 11.797,30.833 C14.033,30.833 15.995,29.943 17.680,28.163 C19.269,26.485 20.352,24.254 20.963,21.509 L24.968,21.509 L25.681,20.075 Z"/>
</svg>