<svg 
 xmlns="http://www.w3.org/2000/svg"
 xmlns:xlink="http://www.w3.org/1999/xlink"
 width="25px" height="23px">
<path fill-rule="evenodd"  fill="rgb(26, 79, 201)"
 d="M23.652,7.158 L21.927,8.903 C21.702,9.130 21.398,9.257 21.081,9.256 C20.764,9.256 20.460,9.127 20.236,8.899 L19.656,8.312 C19.189,7.840 19.186,7.074 19.652,6.601 L21.377,4.857 C21.601,4.629 21.906,4.502 22.224,4.503 C22.540,4.503 22.845,4.632 23.068,4.860 L23.648,5.447 C24.115,5.918 24.117,6.684 23.652,7.158 ZM15.723,14.526 L8.569,14.526 C8.189,14.526 7.831,14.343 7.605,14.033 C7.379,13.723 7.313,13.323 7.427,12.955 L8.922,8.113 C9.078,7.607 9.541,7.263 10.064,7.263 L14.151,7.263 C14.668,7.263 15.126,7.599 15.287,8.096 L16.861,12.938 C16.981,13.307 16.918,13.711 16.692,14.026 C16.468,14.340 16.107,14.526 15.723,14.526 ZM12.557,4.882 L11.737,4.882 C11.077,4.883 10.541,4.343 10.539,3.675 L10.539,1.207 C10.539,0.886 10.664,0.578 10.889,0.351 C11.114,0.125 11.419,-0.002 11.737,-0.000 L12.557,-0.000 C13.218,-0.001 13.753,0.539 13.754,1.207 L13.754,3.675 C13.755,3.996 13.629,4.304 13.404,4.530 C13.179,4.757 12.875,4.884 12.557,4.882 ZM3.764,8.899 C3.299,9.371 2.542,9.373 2.075,8.903 L0.350,7.158 C0.124,6.931 -0.001,6.622 0.000,6.302 C0.000,5.981 0.128,5.673 0.352,5.447 L0.933,4.859 C1.400,4.387 2.156,4.385 2.624,4.855 L4.349,6.601 C4.574,6.828 4.700,7.136 4.699,7.457 C4.699,7.778 4.571,8.085 4.347,8.311 L3.764,8.899 ZM2.930,16.587 C3.085,16.081 3.547,15.737 4.071,15.737 L8.157,15.737 C8.675,15.737 9.132,16.073 9.294,16.569 L10.867,21.412 C10.987,21.781 10.925,22.186 10.700,22.500 C10.475,22.814 10.114,23.001 9.730,23.001 L2.576,23.001 C2.195,23.001 1.837,22.817 1.612,22.507 C1.387,22.197 1.321,21.796 1.434,21.430 L2.930,16.587 ZM14.893,16.587 C15.050,16.081 15.512,15.737 16.036,15.737 L20.120,15.737 C20.637,15.737 21.096,16.073 21.257,16.569 L22.830,21.412 C22.950,21.781 22.889,22.186 22.663,22.500 C22.437,22.814 22.077,23.001 21.694,23.001 L14.540,23.001 C14.159,23.001 13.801,22.817 13.576,22.507 C13.350,22.196 13.285,21.796 13.399,21.430 L14.893,16.587 Z"/>
</svg>