<svg xmlns="http://www.w3.org/2000/svg" width="14" height="16" viewBox="0 0 14 16" fill="none">
    <path d="M0 3.95447C0 5.80278 3.1336 7.30144 6.9991 7.30144C10.8646 7.30144 13.9987 5.80278 13.9987 3.95447C13.9987 2.10615 10.8651 0.604736 6.9991 0.604736C3.13314 0.604736 0 2.10569 0 3.95447Z" fill="#1a4fc9"/>
    <path d="M7.00048 8.8927C4.14173 8.8927 1.68312 8.16493 0.596527 6.99023C0.213832 7.40321 0 7.58676 0 8.0672C0 9.91597 3.1336 11.4169 6.9991 11.4169C10.8646 11.4169 13.9987 9.91827 13.9987 8.0672C13.9987 7.58584 13.7862 7.40367 13.4021 6.99023C12.3183 8.16493 9.85968 8.8927 7.00048 8.8927Z" fill="#1a4fc9"/>
    <path d="M7.00032 12.9657C4.10395 12.9657 1.61873 12.2163 0.554615 11.0168C0.198075 11.4184 0.0012207 11.5845 0.0012207 12.0479C0.0012207 13.8967 3.13482 15.3954 7.00032 15.3954C10.8658 15.3954 13.9999 13.8967 13.9999 12.0479C13.9999 11.5845 13.803 11.4184 13.4465 11.0168C12.3824 12.2163 9.89669 12.9657 7.00032 12.9657Z" fill="#1a4fc9"/>
</svg>