<svg width="513" height="513" viewBox="0 0 513 513" fill="none" xmlns="http://www.w3.org/2000/svg">
<path fill-rule="evenodd" clip-rule="evenodd" d="M202.164 0.794434H311.374C450.894 0.794434 512.794 62.6952 512.794 202.164V311.425C512.794 450.945 450.894 512.794 311.374 512.794H202.164C62.644 512.794 0.794434 450.894 0.794434 311.425V202.164C0.794434 62.644 62.6952 0.794434 202.164 0.794434Z" fill="#121212"/>
<path d="M379.398 288.735H321.168C314.236 326.705 285.814 337.75 260.165 337.75C224.118 337.75 196.736 309.446 196.736 256.634C196.736 205.548 224.118 176.208 259.472 176.208C287.547 176.208 312.849 191.051 319.435 225.223H377.665C369 168.269 324.634 127.539 261.551 127.539C183.218 127.539 134 177.589 134 256.634C134 336.715 181.485 386.42 259.818 386.42C323.248 386.42 370.386 346.725 379.398 288.735Z" fill="white"/>
</svg>
