<svg width="40" height="40" viewBox="0 0 40 40" fill="none" xmlns="http://www.w3.org/2000/svg">
<rect width="40" height="40" rx="20" fill="#724AFF"/>
<path d="M15.2725 17.0971C15.2725 17.1171 15.2765 17.1369 15.2843 17.1554C15.292 17.1738 15.3032 17.1905 15.3174 17.2046C15.3316 17.2187 15.3484 17.2299 15.3669 17.2375C15.3854 17.2451 15.4052 17.2489 15.4252 17.2489H27.847C27.867 17.2489 27.8868 17.2451 27.9053 17.2375C27.9238 17.2299 27.9406 17.2187 27.9548 17.2046C27.969 17.1905 27.9803 17.1738 27.988 17.1554C27.9957 17.1369 27.9997 17.1171 27.9997 17.0971V12.3097C27.9997 12.2897 27.9957 12.27 27.988 12.2515C27.9803 12.2331 27.969 12.2163 27.9548 12.2022C27.9406 12.1881 27.9238 12.177 27.9053 12.1694C27.8868 12.1618 27.867 12.1579 27.847 12.158H18.6979C18.6779 12.1579 18.6581 12.1618 18.6396 12.1694C18.6211 12.177 18.6043 12.1881 18.5901 12.2022C18.576 12.2163 18.5647 12.2331 18.557 12.2515C18.5493 12.27 18.5453 12.2897 18.5452 12.3097V13.8244C18.5453 13.8444 18.5493 13.8642 18.557 13.8826C18.5647 13.9011 18.576 13.9178 18.5901 13.9319C18.6043 13.946 18.6211 13.9572 18.6396 13.9648C18.6581 13.9723 18.6779 13.9762 18.6979 13.9762H25.4543C25.6472 13.9762 25.8322 14.0528 25.9686 14.1892C26.1049 14.3256 26.1816 14.5105 26.1816 14.7034C26.1816 14.8963 26.1049 15.0813 25.9686 15.2177C25.8322 15.3541 25.6472 15.4307 25.4543 15.4307H17.8179C17.6251 15.4307 17.4401 15.3541 17.3037 15.2177C17.1673 15.0813 17.0907 14.8963 17.0907 14.7034V11.4307C17.0907 11.2378 17.1673 11.0528 17.3037 10.9164C17.4401 10.7801 17.6251 10.7034 17.8179 10.7034H27.847C27.867 10.7035 27.8868 10.6996 27.9053 10.692C27.9238 10.6844 27.9406 10.6733 27.9548 10.6592C27.969 10.6451 27.9803 10.6283 27.988 10.6099C27.9957 10.5915 27.9997 10.5717 27.9997 10.5517V9.03701C27.9996 8.99665 27.9834 8.95802 27.9547 8.92957C27.9261 8.90113 27.8874 8.88519 27.847 8.88525H15.4252C15.3849 8.88519 15.3461 8.90113 15.3175 8.92957C15.2889 8.95802 15.2727 8.99665 15.2725 9.03701V17.0971Z" fill="white"/>
<path d="M27.847 23.8416C27.8874 23.8418 27.9262 23.8259 27.9549 23.7974C27.9836 23.769 27.9998 23.7303 28 23.6899V22.174C27.9998 22.1336 27.9836 22.0949 27.9549 22.0665C27.9262 22.038 27.8874 22.0221 27.847 22.0222H12.153C12.1126 22.0221 12.0738 22.038 12.0451 22.0665C12.0164 22.0949 12.0002 22.1336 12 22.174V23.6887C11.9999 23.7088 12.0038 23.7287 12.0115 23.7473C12.0192 23.7659 12.0304 23.7828 12.0447 23.797C12.0589 23.8112 12.0758 23.8225 12.0944 23.8301C12.1129 23.8378 12.1329 23.8417 12.153 23.8416H27.847Z" fill="white"/>
<path d="M27.847 20.5649C27.867 20.565 27.8868 20.5612 27.9053 20.5536C27.9238 20.5461 27.9407 20.5349 27.9549 20.5209C27.9691 20.5068 27.9804 20.4901 27.9881 20.4716C27.9959 20.4532 27.9999 20.4334 28 20.4134V18.8985C27.9998 18.8581 27.9836 18.8194 27.9549 18.791C27.9262 18.7625 27.8874 18.7466 27.847 18.7468H14.5455C14.3526 18.7468 14.1676 18.6701 14.0312 18.5337C13.8948 18.3974 13.8182 18.2124 13.8182 18.0195V9.08155C13.8183 9.04116 13.8024 9.00236 13.7739 8.97367C13.7455 8.94499 13.7068 8.92878 13.6664 8.92859H12.1518C12.1114 8.92878 12.0727 8.94499 12.0442 8.97367C12.0158 9.00236 11.9999 9.04116 12 9.08155V20.4134C12 20.452 12.0149 20.489 12.0415 20.5169L12.0448 20.5206C12.0588 20.5345 12.0754 20.5456 12.0936 20.5531C12.1118 20.5606 12.1313 20.5645 12.151 20.5645L27.847 20.5649Z" fill="white"/>
<path d="M12 30.9601C11.9998 30.9802 12.0035 31.0002 12.0111 31.0188C12.0186 31.0375 12.0297 31.0544 12.0438 31.0688C12.0579 31.0831 12.0747 31.0945 12.0932 31.1023C12.1118 31.1101 12.1317 31.1142 12.1518 31.1143H13.6664C13.7068 31.1141 13.7455 31.0979 13.774 31.0692C13.8024 31.0405 13.8183 31.0017 13.8182 30.9613C13.8182 30.809 13.8787 30.6629 13.9864 30.5552C14.0941 30.4475 14.2402 30.387 14.3925 30.387H27.847C27.8874 30.3871 27.9262 30.3712 27.9549 30.3428C27.9836 30.3143 27.9998 30.2757 28 30.2353V28.7194C27.9998 28.679 27.9836 28.6403 27.9549 28.6119C27.9262 28.5834 27.8874 28.5675 27.847 28.5676H14.5455C14.3526 28.5676 14.1676 28.491 14.0312 28.3546C13.8948 28.2182 13.8182 28.0332 13.8182 27.8404C13.8182 27.6475 13.8948 27.4625 14.0312 27.3261C14.1676 27.1897 14.3526 27.1131 14.5455 27.1131H27.847C27.8874 27.1132 27.9262 27.0973 27.9549 27.0688C27.9836 27.0404 27.9998 27.0017 28 26.9613V25.4467C27.9998 25.4063 27.9836 25.3676 27.9549 25.3391C27.9262 25.3107 27.8874 25.2948 27.847 25.2949H12.153C12.1126 25.2948 12.0738 25.3107 12.0451 25.3391C12.0164 25.3676 12.0002 25.4063 12 25.4467V30.9601Z" fill="white"/>
</svg>
