<svg xmlns="http://www.w3.org/2000/svg" width="14" height="16" viewBox="0 0 14 16" fill="none">
<path d="M12.871 0.0966797H1.12903C0.564516 0.0966797 0 0.661196 0 1.22571V3.70958H2.14516V5.29023H0V7.32249H2.14516V8.90313H0V10.9354H2.14516V12.516H0V14.7741C0 15.3386 0.564516 15.9031 1.12903 15.9031H12.871C13.4355 15.9031 14 15.3386 14 14.7741V1.22571C14 0.661196 13.4355 0.0966797 12.871 0.0966797ZM8.24193 4.2741C9.14516 4.2741 9.93548 5.06442 9.93548 5.96765C9.93548 6.87087 9.14516 7.6612 8.24193 7.6612C7.33871 7.6612 6.54839 6.87087 6.54839 5.96765C6.54839 5.06442 7.22581 4.2741 8.24193 4.2741ZM4.29032 12.1773C4.29032 9.91926 5.98387 8.22571 8.24193 8.22571C10.5 8.22571 12.1935 10.0322 12.1935 12.1773H4.29032Z" fill="#1a4fc9"/>
</svg>