<svg xmlns="http://www.w3.org/2000/svg" width="14" height="14" viewBox="0 0 14 14" fill="none">
    <path d="M7 14C3.14004 14 8.60688e-06 10.8591 8.60688e-06 7C-0.00441244 4.17383 1.69471 1.62349 4.30456 0.539096C4.38547 0.505262 4.47383 0.493324 4.5608 0.504476C4.64776 0.515628 4.73028 0.54948 4.80008 0.602642C4.8698 0.655707 4.92432 0.726255 4.95816 0.807174C4.99199 0.888093 5.00395 0.976524 4.99282 1.06355C4.98161 1.1506 4.94772 1.23316 4.89456 1.30292C4.84141 1.37267 4.77086 1.42716 4.69002 1.46091C2.45305 2.39105 0.996955 4.57737 1.00093 6.99998C1.00093 10.3091 3.69184 13 7.00092 13C9.42332 13.0041 11.6096 11.5484 12.54 9.31181C12.6545 9.07099 12.9379 8.96246 13.184 9.06511C13.4301 9.16778 13.5524 9.44552 13.4618 9.69635C12.3773 12.306 9.82695 14.0048 7.00092 14H7.00002L7 14ZM13.5 7.49999H7C6.72385 7.49999 6.49999 7.27613 6.49999 6.99998V0.500002C6.49999 0.223855 6.72385 0 7 0C10.8591 0 14 3.1409 14 7C14 7.27615 13.7761 7.49999 13.5 7.49999Z" fill="#1950C9" />
</svg>