<svg width="162" height="162" viewBox="0 0 162 162" fill="none" xmlns="http://www.w3.org/2000/svg">
<path d="M161.318 81.4925C161.419 66.5841 157.894 53.1363 151.145 42.4082C137.397 17.8295 111.11 1.1582 80.9946 1.1582C36.7285 1.1582 0.721404 37.1701 0.671045 81.4421C0.570326 96.3506 4.0955 109.798 10.8437 120.526C24.5918 145.105 50.8795 161.776 80.9946 161.776C125.261 161.776 161.268 125.765 161.318 81.4925Z" fill="#EAAC00"/>
<path d="M80.9947 146.893C44.9221 146.893 15.5776 117.544 15.5776 81.4669C15.5776 45.3895 44.9221 16.041 80.9947 16.041C117.067 16.041 146.412 45.3895 146.412 81.4669C146.412 117.544 117.067 146.893 80.9947 146.893ZM80.9947 24.6033C49.6459 24.6033 24.1388 50.1138 24.1388 81.4669C24.1388 112.82 49.6459 138.33 80.9947 138.33C112.344 138.33 137.851 112.82 137.851 81.4669C137.851 50.1138 112.344 24.6033 80.9947 24.6033Z" fill="white"/>
<path d="M51.9523 130.81C50.8544 130.81 49.7415 130.74 48.6185 130.599C39.9415 129.506 31.5113 124.092 25.4883 115.736C18.9265 106.63 15.497 94.7684 15.5725 81.4415L24.1336 81.4918C24.0329 99.6086 32.9516 120.002 49.6861 122.107C59.8637 123.382 67.9414 116.144 71.2853 102.726L82.3997 58.137C84.6255 49.202 88.8054 42.1003 94.4759 37.6026C99.9248 33.2862 106.456 31.4629 113.371 32.3292C122.048 33.4222 130.478 38.8366 136.501 47.1924C143.063 56.2986 146.492 68.1598 146.417 81.4868L137.856 81.4364C137.956 63.3197 129.038 42.9263 112.303 40.821C102.126 39.5367 94.0478 46.7844 90.7039 60.202L79.5896 104.791C77.3637 113.726 73.1839 120.828 67.5134 125.326C62.9508 128.942 57.6278 130.805 51.9523 130.805V130.81Z" fill="white"/>
<path d="M63.499 67.4955L62.9331 76.0391L99.6955 78.4747L100.261 69.9312L63.499 67.4955Z" fill="white"/>
<path d="M62.364 84.5834L61.7981 93.127L98.5606 95.5626L99.1265 87.019L62.364 84.5834Z" fill="white"/>
</svg>
