<svg width="18" height="18" viewBox="0 0 18 18" fill="none" xmlns="http://www.w3.org/2000/svg">
<path d="M7.70263 17.7547C7.5452 17.8676 7.36469 17.9441 7.17411 17.9788C6.98353 18.0135 6.78762 18.0055 6.60051 17.9554C6.4134 17.9052 6.23974 17.8142 6.09204 17.6889C5.94433 17.5636 5.82627 17.407 5.74636 17.2306C5.55426 16.8066 5.23419 16.4535 4.83109 16.2208C4.42799 15.9881 3.96212 15.8875 3.49892 15.9332C3.30618 15.9522 3.11162 15.9281 2.92927 15.8629C2.74692 15.7976 2.58131 15.6927 2.44438 15.5557C2.30745 15.4188 2.2026 15.2531 2.13738 15.0708C2.07216 14.8884 2.04819 14.6938 2.06721 14.5011C2.11286 14.0378 2.01222 13.5719 1.77945 13.1688C1.54668 12.7657 1.19347 12.4457 0.769441 12.2536C0.592982 12.1737 0.436445 12.0557 0.31111 11.908C0.185775 11.7603 0.0947612 11.5866 0.0446267 11.3995C-0.00550775 11.2124 -0.0135148 11.0165 0.0211825 10.8259C0.0558798 10.6353 0.132417 10.4548 0.245281 10.2974C0.516349 9.91908 0.662119 9.46538 0.662119 9C0.662119 8.53462 0.516349 8.08092 0.245281 7.70263C0.132417 7.5452 0.0558798 7.36469 0.0211825 7.17411C-0.0135148 6.98353 -0.00550775 6.78762 0.0446267 6.60051C0.0947612 6.4134 0.185775 6.23974 0.31111 6.09204C0.436445 5.94433 0.592982 5.82627 0.769441 5.74636C1.1934 5.55426 1.54652 5.23419 1.77922 4.83109C2.01191 4.42799 2.11249 3.96212 2.06681 3.49892C2.04784 3.30618 2.07186 3.11162 2.13713 2.92927C2.20241 2.74692 2.3073 2.58131 2.44428 2.44438C2.58125 2.30745 2.74688 2.2026 2.92925 2.13738C3.11162 2.07216 3.30618 2.04819 3.49892 2.06721C3.96217 2.11286 4.42807 2.01222 4.83117 1.77945C5.23428 1.54668 5.55433 1.19347 5.74636 0.769441C5.82627 0.592982 5.94433 0.436445 6.09204 0.31111C6.23974 0.185775 6.4134 0.0947612 6.60051 0.0446267C6.78762 -0.00550775 6.98353 -0.0135148 7.17411 0.0211825C7.36469 0.0558798 7.5452 0.132417 7.70263 0.245281C8.08092 0.516349 8.53462 0.662119 9 0.662119C9.46538 0.662119 9.91908 0.516349 10.2974 0.245281C10.4548 0.132417 10.6353 0.0558798 10.8259 0.0211825C11.0165 -0.0135148 11.2124 -0.00550775 11.3995 0.0446267C11.5866 0.0947612 11.7603 0.185775 11.908 0.31111C12.0557 0.436445 12.1737 0.592982 12.2536 0.769441C12.4457 1.1934 12.7658 1.54652 13.1689 1.77922C13.572 2.01191 14.0379 2.11249 14.5011 2.06681C14.6938 2.04784 14.8884 2.07186 15.0707 2.13713C15.2531 2.20241 15.4187 2.3073 15.5556 2.44428C15.6926 2.58125 15.7974 2.74688 15.8626 2.92925C15.9278 3.11162 15.9518 3.30618 15.9328 3.49892C15.8871 3.96217 15.9878 4.42807 16.2205 4.83117C16.4533 5.23428 16.8065 5.55433 17.2306 5.74636C17.407 5.82627 17.5636 5.94433 17.6889 6.09204C17.8142 6.23974 17.9052 6.4134 17.9554 6.60051C18.0055 6.78762 18.0135 6.98353 17.9788 7.17411C17.9441 7.36469 17.8676 7.5452 17.7547 7.70263C17.4837 8.08092 17.3379 8.53462 17.3379 9C17.3379 9.46538 17.4837 9.91908 17.7547 10.2974C17.8676 10.4548 17.9441 10.6353 17.9788 10.8259C18.0135 11.0165 18.0055 11.2124 17.9554 11.3995C17.9052 11.5866 17.8142 11.7603 17.6889 11.908C17.5636 12.0557 17.407 12.1737 17.2306 12.2536C16.8066 12.4457 16.4535 12.7658 16.2208 13.1689C15.9881 13.572 15.8875 14.0379 15.9332 14.5011C15.9522 14.6938 15.9281 14.8884 15.8629 15.0707C15.7976 15.2531 15.6927 15.4187 15.5557 15.5556C15.4188 15.6926 15.2531 15.7974 15.0708 15.8626C14.8884 15.9278 14.6938 15.9518 14.5011 15.9328C14.0378 15.8871 13.5719 15.9878 13.1688 16.2205C12.7657 16.4533 12.4457 16.8065 12.2536 17.2306C12.1737 17.407 12.0557 17.5636 11.908 17.6889C11.7603 17.8142 11.5866 17.9052 11.3995 17.9554C11.2124 18.0055 11.0165 18.0135 10.8259 17.9788C10.6353 17.9441 10.4548 17.8676 10.2974 17.7547C9.91908 17.4837 9.46538 17.3379 9 17.3379C8.53462 17.3379 8.08092 17.4837 7.70263 17.7547Z" fill="#C2C2C2"/>
<path d="M12.9457 6.23681C13.0547 6.12742 13.2016 6.06413 13.356 6.06005C13.5103 6.05598 13.6604 6.11142 13.775 6.21491C13.8896 6.31839 13.96 6.462 13.9717 6.61598C13.9833 6.76996 13.9353 6.92253 13.8376 7.0421L13.7963 7.08782L8.69186 12.1923C8.58659 12.2975 8.44603 12.36 8.29736 12.3676C8.14869 12.3753 8.00247 12.3275 7.88698 12.2336L7.84126 12.1923L5.0055 9.3569C4.89597 9.24798 4.83253 9.10109 4.82835 8.94667C4.82416 8.79225 4.87953 8.64214 4.983 8.52744C5.08647 8.41273 5.23009 8.34223 5.38412 8.33053C5.53815 8.31883 5.69078 8.36683 5.81039 8.46459L5.85611 8.5059L8.26636 10.9157L12.9457 6.23721V6.23681Z" fill="white"/>
</svg>
