<svg width="100" height="100" viewBox="0 0 100 100" fill="none" xmlns="http://www.w3.org/2000/svg">
<g clip-path="url(#clip0_6301_1067)">
<path fill-rule="evenodd" clip-rule="evenodd" d="M50 100C22.5 100 0 77.5 0 49.75C0.25 22.25 22.5 -0.250012 50.25 -1.18022e-05C77.75 0.249988 100 22.5 100 50.5C99.75 77.75 77.5 100 50 100Z" fill="#072146"/>
<path fill-rule="evenodd" clip-rule="evenodd" d="M53.1031 48.4607L53.5257 45.8536L53.7296 44.7784L63.9471 46.6619C64.9682 46.8502 65.9496 46.1809 66.1391 45.1671C66.3287 44.1532 65.6547 43.1788 64.6336 42.9906L54.5838 41.1379C55.1133 39.4006 55.5949 37.666 56.0726 35.9452C56.7554 33.4856 57.4304 31.0541 58.2265 28.6828C58.8675 27.1976 59.9359 25.7125 61.0043 24.6516C62.5 23.1665 64.4231 23.3786 65.7051 25.076C66.0257 25.3942 66.2928 25.7125 66.5599 26.0307C66.8269 26.349 67.094 26.6672 67.4145 26.9855C68.2692 27.8341 69.3376 28.0463 70.1923 27.4098C70.8334 26.7733 70.8334 25.7125 70.8334 24.8638C70.8334 24.4395 70.406 24.0151 70.1923 23.803C68.9103 22.3178 66.9872 21.6813 65.0641 21.6813C60.5769 21.4691 57.5855 23.5908 55.0214 26.9855C52.4573 30.3801 51.3889 34.1991 50.3205 38.0181C50.0716 38.6361 49.8951 39.2541 49.7067 39.9141C49.6776 40.0158 49.6483 40.1186 49.6184 40.2226L45.0407 39.3787C44.0197 39.1905 43.0383 39.8597 42.8488 40.8736C42.6592 41.8874 43.3332 42.8618 44.3543 43.0501L48.6754 43.8466L48.3975 45.0195L47.8357 47.4897L36.4945 45.399C35.4735 45.2107 34.4921 45.88 34.3025 46.8938C34.113 47.9077 34.787 48.8821 35.8081 49.0703L47.0068 51.1348L46.9017 51.5967L46.053 54.757L35.121 52.7417C34.1 52.5535 33.1186 53.2227 32.929 54.2366C32.7395 55.2504 33.4135 56.2248 34.4345 56.4131L45.4322 58.4404C44.6943 61.6944 43.8834 64.8924 43.0576 68.1496C42.8439 68.9923 42.6292 69.8389 42.4145 70.6916C41.7735 73.0254 40.7051 75.3592 38.7821 77.0565C37.0727 78.3295 35.3633 78.1174 34.0812 76.42C33.6539 75.5714 33.0128 74.7227 32.3718 74.0862C31.7308 73.874 30.6624 73.6619 30.2351 73.8741C29.594 74.2984 29.1667 75.3592 29.1667 76.2079C29.1667 76.8444 29.8077 77.693 30.4487 78.1174C32.3718 79.6025 34.9359 79.8147 37.2863 79.3904C41.3462 78.7539 44.3376 76.2079 46.047 72.6011C47.3291 69.8429 48.3975 66.8726 49.4658 63.9023C50.0519 62.5055 50.4451 60.9811 50.8218 59.434L54.2176 60.06C55.2386 60.2482 56.22 59.5789 56.4095 58.5651C56.5991 57.5513 55.9251 56.5768 54.904 56.3886L51.7608 55.8092C51.7791 55.7486 51.7976 55.6882 51.8163 55.6278L52.4573 52.4453L52.5054 52.1484L62.575 54.0047C63.596 54.193 64.5774 53.5237 64.767 52.5099C64.9565 51.496 64.2825 50.5216 63.2615 50.3334L53.1031 48.4607ZM38.5397 38.1322C37.5187 37.944 36.5374 38.6133 36.3478 39.6271C36.1582 40.6409 36.8322 41.6154 37.8532 41.8036C38.8742 41.9918 39.8556 41.3225 40.0452 40.3087C40.2347 39.2949 39.5607 38.3204 38.5397 38.1322ZM60.9302 61.3228C61.9512 61.5111 62.9325 60.8417 63.1221 59.8279C63.3116 58.8142 62.6376 57.8397 61.6166 57.6515C60.5956 57.4632 59.6143 58.1326 59.4247 59.1463C59.2352 60.1601 59.9092 61.1346 60.9302 61.3228Z" fill="white"/>
<path fill-rule="evenodd" clip-rule="evenodd" d="M68.177 11.0195L66.5227 14.5613C61.5087 12.2192 55.9127 10.9091 50 10.9091C44.0873 10.9091 38.4913 12.2192 33.4773 14.5613L31.8229 11.0195C37.3442 8.44051 43.5039 7 50 7C56.4961 7 62.6558 8.44051 68.177 11.0195ZM25.3344 14.7732L27.5794 17.9734C23.8467 20.5919 20.5919 23.8467 17.9734 27.5794L14.7732 25.3344C17.6522 21.2303 21.2303 17.6522 25.3344 14.7732ZM11.0195 31.8229L14.5613 33.4773C12.2192 38.4913 10.9091 44.0873 10.9091 50C10.9091 55.9127 12.2192 61.5087 14.5613 66.5227L11.0195 68.1771C8.44051 62.6558 7 56.4961 7 50C7 43.5039 8.44051 37.3442 11.0195 31.8229ZM14.7732 74.6656L17.9734 72.4206C20.5919 76.1533 23.8467 79.4081 27.5794 82.0266L25.3344 85.2268C21.2303 82.3478 17.6522 78.7697 14.7732 74.6656ZM31.8229 88.9805C37.3442 91.5595 43.5039 93 50 93C56.4961 93 62.6558 91.5595 68.1771 88.9805L66.5227 85.4387C61.5087 87.7808 55.9127 89.0909 50 89.0909C44.0873 89.0909 38.4913 87.7808 33.4773 85.4387L31.8229 88.9805ZM74.6656 85.2268L72.4206 82.0266C76.1533 79.4081 79.4081 76.1533 82.0266 72.4206L85.2268 74.6656C82.3478 78.7697 78.7697 82.3477 74.6656 85.2268ZM88.9805 68.177L85.4387 66.5227C87.7808 61.5087 89.0909 55.9127 89.0909 50C89.0909 44.0873 87.7808 38.4913 85.4387 33.4773L88.9805 31.8229C91.5595 37.3442 93 43.5039 93 50C93 56.4961 91.5595 62.6558 88.9805 68.177ZM85.2268 25.3344L82.0266 27.5794C79.4081 23.8467 76.1533 20.5919 72.4206 17.9734L74.6656 14.7732C78.7697 17.6522 82.3477 21.2303 85.2268 25.3344Z" fill="white"/>
</g>
<defs>
<clipPath id="clip0_6301_1067">
<rect width="100" height="100" fill="white"/>
</clipPath>
</defs>
</svg>
