<svg xmlns="http://www.w3.org/2000/svg" width="30" height="28" viewBox="0 0 30 28">
  <metadata><?xpacket begin="﻿" id="W5M0MpCehiHzreSzNTczkc9d"?>
<x:xmpmeta xmlns:x="adobe:ns:meta/" x:xmptk="Adobe XMP Core 5.6-c138 79.159824, 2016/09/14-01:09:01        ">
   <rdf:RDF xmlns:rdf="http://www.w3.org/1999/02/22-rdf-syntax-ns#">
      <rdf:Description rdf:about=""/>
   </rdf:RDF>
</x:xmpmeta>
                                                                                                    
                                                                                                    
                                                                                                    
                                                                                                    
                                                                                                    
                                                                                                    
                                                                                                    
                                                                                                    
                                                                                                    
                                                                                                    
                                                                                                    
                                                                                                    
                                                                                                    
                                                                                                    
                                                                                                    
                                                                                                    
                                                                                                    
                                                                                                    
                                                                                                    
                                                                                                    
                           
<?xpacket end="w"?></metadata>
<defs>
    <style>
      .cls-1 {
        fill-rule: evenodd;
      }
    </style>
  </defs>
  <path id="形状_1752" data-name="形状 1752" class="cls-1" d="M1672.24,7182.65a4.643,4.643,0,0,0-4.32,2.63l-9.49-3.96a5.425,5.425,0,0,0,.86-2.98,5.693,5.693,0,0,0-.17-1.36l6.06-4.6a5,5,0,0,0,2.96.94,4.661,4.661,0,1,0-4.76-4.66,4.865,4.865,0,0,0,.36,1.84l-5.59,4.21a6.1,6.1,0,0,0-5.01-2.77,6.227,6.227,0,0,0-4.35,1.76,5.953,5.953,0,0,0,.01,8.52,6.186,6.186,0,0,0,4.34,1.76,6.618,6.618,0,0,0,3.44-.92l10.9,4.55a4.762,4.762,0,1,0,4.76-4.96h0Zm-4.1-16.7a2.676,2.676,0,0,1,2.74,2.68,2.49,2.49,0,0,1-2.74,2.69,2.669,2.669,0,0,1-2.74-2.69,2.923,2.923,0,0,1,2.74-2.68h0Zm-15,16.02a3.686,3.686,0,1,1,3.77-3.69,3.768,3.768,0,0,1-3.77,3.69h0Zm19.1,8.02a2.488,2.488,0,0,1-2.74-2.68,2.741,2.741,0,0,1,5.48,0,2.516,2.516,0,0,1-2.74,2.68h0Zm0,0" transform="translate(-1647 -7164)"/>
</svg>
