<svg xmlns="http://www.w3.org/2000/svg" width="258" height="15" viewBox="0 0 258 15">
  <metadata><?xpacket begin="﻿" id="W5M0MpCehiHzreSzNTczkc9d"?>
<x:xmpmeta xmlns:x="adobe:ns:meta/" x:xmptk="Adobe XMP Core 5.6-c138 79.159824, 2016/09/14-01:09:01        ">
   <rdf:RDF xmlns:rdf="http://www.w3.org/1999/02/22-rdf-syntax-ns#">
      <rdf:Description rdf:about=""/>
   </rdf:RDF>
</x:xmpmeta>
                                                                                                    
                                                                                                    
                                                                                                    
                                                                                                    
                                                                                                    
                                                                                                    
                                                                                                    
                                                                                                    
                                                                                                    
                                                                                                    
                                                                                                    
                                                                                                    
                                                                                                    
                                                                                                    
                                                                                                    
                                                                                                    
                                                                                                    
                                                                                                    
                                                                                                    
                                                                                                    
                           
<?xpacket end="w"?></metadata>
<defs>
    <style>
      .cls-1 {
        fill-rule: evenodd;
        opacity: 0.2;
      }
    </style>
  </defs>
  <path id="形状_1221_拷贝_10" data-name="形状 1221 拷贝 10" class="cls-1" d="M7106.07,1402h-12.14a1.019,1.019,0,0,1,0-2.03h9.91l-2.3-2.55a1.115,1.115,0,0,1,.34-1.23,1,1,0,0,1,1.19.03l3.66,4.05a1.094,1.094,0,0,1,.2,1.1A0.929,0.929,0,0,1,7106.07,1402Zm-16,5H7086v0.03h-2.07a1.019,1.019,0,0,1,0-2.03h6.14A1,1,0,0,1,7090.07,1407Zm0-5h-6.14a1.019,1.019,0,0,1,0-2.03H7086V1400h4.07A1,1,0,0,1,7090.07,1402Zm-10,5H7076v0.03h-2.07a1.019,1.019,0,0,1,0-2.03h6.14A1,1,0,0,1,7080.07,1407Zm0-5h-6.14a1.019,1.019,0,0,1,0-2.03H7076V1400h4.07A1,1,0,0,1,7080.07,1402Zm-10,5H7066v0.03h-2.07a1.019,1.019,0,0,1,0-2.03h6.14A1,1,0,0,1,7070.07,1407Zm0-5h-6.14a1.019,1.019,0,0,1,0-2.03H7066V1400h4.07A1,1,0,0,1,7070.07,1402Zm-10,5H7056v0.03h-2.07a1.019,1.019,0,0,1,0-2.03h6.14A1,1,0,0,1,7060.07,1407Zm0-5h-6.14a1.019,1.019,0,0,1,0-2.03H7056V1400h4.07A1,1,0,0,1,7060.07,1402Zm-10,5H7046v0.03h-2.07a1.019,1.019,0,0,1,0-2.03h6.14A1,1,0,0,1,7050.07,1407Zm0-5h-6.14a1.019,1.019,0,0,1,0-2.03H7046V1400h4.07A1,1,0,0,1,7050.07,1402Zm-10,5H7036v0.03h-2.07a1.019,1.019,0,0,1,0-2.03h6.14A1,1,0,0,1,7040.07,1407Zm0-5h-6.14a1.019,1.019,0,0,1,0-2.03H7036V1400h4.07A1,1,0,0,1,7040.07,1402Zm-10,5H7026v0.03h-2.07a1.019,1.019,0,0,1,0-2.03h6.14A1,1,0,0,1,7030.07,1407Zm0-5h-6.14a1.019,1.019,0,0,1,0-2.03H7026V1400h4.07A1,1,0,0,1,7030.07,1402Zm-10,5H7016v0.03h-2.07a1.019,1.019,0,0,1,0-2.03h6.14A1,1,0,0,1,7020.07,1407Zm0-5h-6.14a1.019,1.019,0,0,1,0-2.03H7016V1400h4.07A1,1,0,0,1,7020.07,1402Zm-10,5H7006v0.03h-2.07a1.019,1.019,0,0,1,0-2.03h6.14A1,1,0,0,1,7010.07,1407Zm0-5h-6.14a1.019,1.019,0,0,1,0-2.03H7006V1400h4.07A1,1,0,0,1,7010.07,1402Zm-10,5H6996v0.03h-2.07a1.019,1.019,0,0,1,0-2.03h6.14A1,1,0,0,1,7000.07,1407Zm0-5h-6.14a1.019,1.019,0,0,1,0-2.03H6996V1400h4.07A1,1,0,0,1,7000.07,1402Zm-10,5H6986v0.03h-2.07a1.019,1.019,0,0,1,0-2.03h6.14A1,1,0,0,1,6990.07,1407Zm0-5h-6.14a1.019,1.019,0,0,1,0-2.03H6986V1400h4.07A1,1,0,0,1,6990.07,1402Zm-10,5H6976v0.03h-2.07a1.019,1.019,0,0,1,0-2.03h6.14A1,1,0,0,1,6980.07,1407Zm0-5h-6.14a1.019,1.019,0,0,1,0-2.03H6976V1400h4.07A1,1,0,0,1,6980.07,1402Zm-12,5H6964v0.03h-2.07a1.019,1.019,0,0,1,0-2.03h6.14A1,1,0,0,1,6968.07,1407Zm0-5h-6.14a1.019,1.019,0,0,1,0-2.03H6964V1400h4.07A1,1,0,0,1,6968.07,1402Zm-10,5H6954v0.03h-2.07a1.019,1.019,0,0,1,0-2.03h6.14A1,1,0,0,1,6958.07,1407Zm0-5h-6.14a1.019,1.019,0,0,1,0-2.03H6954V1400h4.07A1,1,0,0,1,6958.07,1402Zm-10,5H6944v0.03h-2.07a1.019,1.019,0,0,1,0-2.03h6.14A1,1,0,0,1,6948.07,1407Zm0-5h-6.14a1.019,1.019,0,0,1,0-2.03H6944V1400h4.07A1,1,0,0,1,6948.07,1402Zm-10,5H6934v0.03h-2.07a1.019,1.019,0,0,1,0-2.03h6.14A1,1,0,0,1,6938.07,1407Zm0-5h-6.14a1.019,1.019,0,0,1,0-2.03H6934V1400h4.07A1,1,0,0,1,6938.07,1402Zm-10,5H6924v0.03h-2.07a1.019,1.019,0,0,1,0-2.03h6.14A1,1,0,0,1,6928.07,1407Zm0-5h-6.14a1.019,1.019,0,0,1,0-2.03H6924V1400h4.07A1,1,0,0,1,6928.07,1402Zm-10,5H6914v0.03h-2.07a1.019,1.019,0,0,1,0-2.03h6.14A1,1,0,0,1,6918.07,1407Zm0-5h-6.14a1.019,1.019,0,0,1,0-2.03H6914V1400h4.07A1,1,0,0,1,6918.07,1402Zm-10,5H6904v0.03h-2.07a1.019,1.019,0,0,1,0-2.03h6.14A1,1,0,0,1,6908.07,1407Zm0-5h-6.14a1.019,1.019,0,0,1,0-2.03H6904V1400h4.07A1,1,0,0,1,6908.07,1402Zm-10,5H6894v0.03h-2.07a1.019,1.019,0,0,1,0-2.03h6.14A1,1,0,0,1,6898.07,1407Zm0-5h-6.14a1.019,1.019,0,0,1,0-2.03H6894V1400h4.07A1,1,0,0,1,6898.07,1402Zm-12,5H6882v0.03h-2.07a1.019,1.019,0,0,1,0-2.03h6.14A1,1,0,0,1,6886.07,1407Zm0-5h-6.14a1.019,1.019,0,0,1,0-2.03H6882V1400h4.07A1,1,0,0,1,6886.07,1402Zm-10,5H6872v0.03h-2.07a1.019,1.019,0,0,1,0-2.03h6.14A1,1,0,0,1,6876.07,1407Zm0-5h-6.14a1.019,1.019,0,0,1,0-2.03H6872V1400h4.07A1,1,0,0,1,6876.07,1402Zm-10,5H6862v0.03h-2.07a1.019,1.019,0,0,1,0-2.03h6.14A1,1,0,0,1,6866.07,1407Zm0-5h-6.14a1.019,1.019,0,0,1,0-2.03H6862V1400h4.07A1,1,0,0,1,6866.07,1402Zm-10,5H6852v0.03h-2.07a1.019,1.019,0,0,1,0-2.03h6.14A1,1,0,0,1,6856.07,1407Zm0-5h-6.14a1.019,1.019,0,0,1,0-2.03H6852V1400h4.07A1,1,0,0,1,6856.07,1402Zm237.86,3h12.14a0.929,0.929,0,0,1,.86.63,1.094,1.094,0,0,1-.2,1.1l-3.66,4.05a1,1,0,0,1-1.19.03,1.115,1.115,0,0,1-.34-1.23l2.3-2.55h-9.91A1.019,1.019,0,0,1,7093.93,1405Z" transform="translate(-6849 -1396)"/>
</svg>
