<svg xmlns="http://www.w3.org/2000/svg" width="16" height="44" viewBox="0 0 16 44">
  <metadata><?xpacket begin="﻿" id="W5M0MpCehiHzreSzNTczkc9d"?>
<x:xmpmeta xmlns:x="adobe:ns:meta/" x:xmptk="Adobe XMP Core 5.6-c138 79.159824, 2016/09/14-01:09:01        ">
   <rdf:RDF xmlns:rdf="http://www.w3.org/1999/02/22-rdf-syntax-ns#">
      <rdf:Description rdf:about=""/>
   </rdf:RDF>
</x:xmpmeta>
                                                                                                    
                                                                                                    
                                                                                                    
                                                                                                    
                                                                                                    
                                                                                                    
                                                                                                    
                                                                                                    
                                                                                                    
                                                                                                    
                                                                                                    
                                                                                                    
                                                                                                    
                                                                                                    
                                                                                                    
                                                                                                    
                                                                                                    
                                                                                                    
                                                                                                    
                                                                                                    
                           
<?xpacket end="w"?></metadata>
<defs>
    <style>
      .cls-1 {
        fill-rule: evenodd;
        opacity: 0.2;
      }
    </style>
  </defs>
  <path id="形状_1221_拷贝_9" data-name="形状 1221 拷贝 9" class="cls-1" d="M8554.78,1248.07l-4.05,3.66a1.094,1.094,0,0,1-1.1.2,0.929,0.929,0,0,1-.63-0.86v-12.14a1.019,1.019,0,0,1,2.03,0v9.91l2.55-2.3a1.115,1.115,0,0,1,1.23.34A1,1,0,0,1,8554.78,1248.07Zm-3.78-13a1,1,0,0,1-2,0V1231h0v-2.07a1.019,1.019,0,0,1,2.03,0V1231H8551v4.07Zm0-10a1,1,0,0,1-2,0V1221h0v-2.07a1.019,1.019,0,0,1,2.03,0V1221H8551v4.07Zm0-10a1,1,0,0,1-2,0V1211h0v-2.07a1.019,1.019,0,0,1,2.03,0V1211H8551v4.07Zm-6.63,36.86a1.094,1.094,0,0,1-1.1-.2l-4.05-3.66a1,1,0,0,1-.03-1.19,1.115,1.115,0,0,1,1.23-.34l2.55,2.3v-9.91a1.019,1.019,0,0,1,2.03,0v12.14A0.929,0.929,0,0,1,8544.37,1251.93Zm0.63-16.86a1,1,0,0,1-2,0V1231h-0.03v-2.07a1.019,1.019,0,0,1,2.03,0V1231h0v4.07Zm0-10a1,1,0,0,1-2,0V1221h-0.03v-2.07a1.019,1.019,0,0,1,2.03,0V1221h0v4.07Zm0-10a1,1,0,0,1-2,0V1211h-0.03v-2.07a1.019,1.019,0,0,1,2.03,0V1211h0v4.07Z" transform="translate(-8539 -1208)"/>
</svg>
