<svg id="组_9" data-name="组 9" xmlns="http://www.w3.org/2000/svg" width="54" height="54" viewBox="0 0 54 54">
  <metadata><?xpacket begin="﻿" id="W5M0MpCehiHzreSzNTczkc9d"?>
<x:xmpmeta xmlns:x="adobe:ns:meta/" x:xmptk="Adobe XMP Core 5.6-c138 79.159824, 2016/09/14-01:09:01        ">
   <rdf:RDF xmlns:rdf="http://www.w3.org/1999/02/22-rdf-syntax-ns#">
      <rdf:Description rdf:about=""/>
   </rdf:RDF>
</x:xmpmeta>
                                                                                                    
                                                                                                    
                                                                                                    
                                                                                                    
                                                                                                    
                                                                                                    
                                                                                                    
                                                                                                    
                                                                                                    
                                                                                                    
                                                                                                    
                                                                                                    
                                                                                                    
                                                                                                    
                                                                                                    
                                                                                                    
                                                                                                    
                                                                                                    
                                                                                                    
                                                                                                    
                           
<?xpacket end="w"?></metadata>
<defs>
    <style>
      .cls-1 {
        fill: #16c4af;
      }

      .cls-2 {
        fill: #0b9682;
      }

      .cls-2, .cls-3 {
        fill-rule: evenodd;
      }

      .cls-3 {
        fill: #fff;
      }
    </style>
  </defs>
  <circle id="形状_1215_拷贝_2" data-name="形状 1215 拷贝 2" class="cls-1" cx="27" cy="27" r="27"/>
  <path id="形状_1239_拷贝_2" data-name="形状 1239 拷贝 2" class="cls-2" d="M7584,1405a30.3,30.3,0,0,1-9.05-1.24c-4.07-1.35-4.95-3.37-4.95-4.87,0-5.14,3.41-9.75,8.75-11.66a1.5,1.5,0,0,1,1.64.38,5,5,0,0,0,3.61,1.57,5.063,5.063,0,0,0,3.61-1.57,1.5,1.5,0,0,1,1.64-.38c5.3,1.95,8.75,6.52,8.75,11.66-0.04,4.5-7.56,6.11-14,6.11h0Zm0,0" transform="translate(-7557 -1365)"/>
  <path id="形状_1239_拷贝" data-name="形状 1239 拷贝" class="cls-3" d="M7584,1391.3a7.152,7.152,0,1,1,7.3-7.15,7.239,7.239,0,0,1-7.3,7.15h0Zm0,0" transform="translate(-7557 -1365)"/>
</svg>
