<?xml version="1.0" encoding="utf-8"?>
<!-- Generator: Adobe Illustrator 19.0.0, SVG Export Plug-In . SVG Version: 6.00 Build 0)  -->
<svg version="1.1" id="图层_1" xmlns="http://www.w3.org/2000/svg" xmlns:xlink="http://www.w3.org/1999/xlink" x="0px" y="0px"
	 viewBox="0 0 850.4 850.4" style="enable-background:new 0 0 850.4 850.4;" xml:space="preserve">
<style type="text/css">
	.st0{fill:#16C4AF;}
	.st1{fill:#0B9682;}
	.st2{fill:#DCFFFA;}
</style>
<g>
	<path class="st0" d="M424.4,760.1C240,760.1,90,610.1,90,425.8C90,241.4,240,91.4,424.4,91.4c184.3,0,334.4,150,334.4,334.4
		C758.7,610.1,608.7,760.1,424.4,760.1L424.4,760.1z M424.4,760.1"/>
	<path class="st1" d="M424.4,588.8c-37.2,0-72.3-5-98.6-13.8c-44.3-15-53.9-37.6-53.9-54.3c0-57.3,37.2-108.7,95.3-130
		c6.3-2.5,13.4-0.8,18,4.2c10.4,11.3,24.7,17.6,39.3,17.6c14.6,0,28.4-6.3,39.3-17.6c4.6-5,11.7-6.7,18-4.2
		c57.7,21.7,95.3,72.7,95.3,130C576.5,570.8,494.6,588.8,424.4,588.8L424.4,588.8z M424.4,588.8"/>
	<path class="st2" d="M424.4,442.5c-49.7,0-89.9-40.5-89.9-89.9c0-49.3,40.1-89.9,89.9-89.9s89.9,40.5,89.9,89.9
		C514.2,401.9,474.1,442.5,424.4,442.5L424.4,442.5z M424.4,442.5"/>
</g>
</svg>
