<svg xmlns="http://www.w3.org/2000/svg" width="43" height="33" viewBox="0 0 43 33">
  <metadata><?xpacket begin="﻿" id="W5M0MpCehiHzreSzNTczkc9d"?>
<x:xmpmeta xmlns:x="adobe:ns:meta/" x:xmptk="Adobe XMP Core 5.6-c138 79.159824, 2016/09/14-01:09:01        ">
   <rdf:RDF xmlns:rdf="http://www.w3.org/1999/02/22-rdf-syntax-ns#">
      <rdf:Description rdf:about=""/>
   </rdf:RDF>
</x:xmpmeta>
                                                                                                    
                                                                                                    
                                                                                                    
                                                                                                    
                                                                                                    
                                                                                                    
                                                                                                    
                                                                                                    
                                                                                                    
                                                                                                    
                                                                                                    
                                                                                                    
                                                                                                    
                                                                                                    
                                                                                                    
                                                                                                    
                                                                                                    
                                                                                                    
                                                                                                    
                                                                                                    
                           
<?xpacket end="w"?></metadata>
<defs>
    <style>
      .cls-1 {
        fill: #1a4fc9;
        fill-rule: evenodd;
      }
    </style>
  </defs>
  <path id="形状_1220" data-name="形状 1220" class="cls-1" d="M6902.74,1380.42a10.766,10.766,0,0,1-7.95,3.58h-23.08c-4.78,0-8.71-4.34-8.71-9.8,0-4.72,3.06-8.86,7.28-9.62a14.639,14.639,0,0,1,7.09-11.97,11.366,11.366,0,0,1,9.38-1.04,13.407,13.407,0,0,1,7.95,7.17h0.09a10.457,10.457,0,0,1,7.95,3.77,13.385,13.385,0,0,1,3.26,8.95A13.562,13.562,0,0,1,6902.74,1380.42Zm-10.53-12.46a1.382,1.382,0,0,1-1.34,1.41h-12.26a1.375,1.375,0,0,1-1.34-1.41,1.4,1.4,0,0,1,1.34-1.51h12.26A1.41,1.41,0,0,1,6892.21,1367.96Zm-13.6,5.09h12.07a1.407,1.407,0,0,1,1.34,1.5,1.447,1.447,0,0,1-1.34,1.42h-12.07a1.378,1.378,0,0,1-1.34-1.42A1.4,1.4,0,0,1,6878.61,1373.05Z" transform="translate(-6863 -1351)"/>
</svg>
