<svg xmlns="http://www.w3.org/2000/svg" width="54" height="54" viewBox="0 0 54 54">
  <metadata><?xpacket begin="﻿" id="W5M0MpCehiHzreSzNTczkc9d"?>
<x:xmpmeta xmlns:x="adobe:ns:meta/" x:xmptk="Adobe XMP Core 5.6-c138 79.159824, 2016/09/14-01:09:01        ">
   <rdf:RDF xmlns:rdf="http://www.w3.org/1999/02/22-rdf-syntax-ns#">
      <rdf:Description rdf:about=""/>
   </rdf:RDF>
</x:xmpmeta>
                                                                                                    
                                                                                                    
                                                                                                    
                                                                                                    
                                                                                                    
                                                                                                    
                                                                                                    
                                                                                                    
                                                                                                    
                                                                                                    
                                                                                                    
                                                                                                    
                                                                                                    
                                                                                                    
                                                                                                    
                                                                                                    
                                                                                                    
                                                                                                    
                                                                                                    
                                                                                                    
                           
<?xpacket end="w"?></metadata>
<defs>
    <style>
      .cls-1 {
        fill: #f3ab6d;
        fill-rule: evenodd;
      }
    </style>
  </defs>
  <path id="形状_1215" data-name="形状 1215" class="cls-1" d="M7502,1419a27,27,0,1,1,27-27A27,27,0,0,1,7502,1419Zm11.67-35.03a0.461,0.461,0,0,0-.4-0.22h-1.99a8.493,8.493,0,0,0-3.73-6.32h0a0.453,0.453,0,0,0-.7.37v0.73a1.04,1.04,0,1,1-2.08,0v-1.94a0.441,0.441,0,0,0-.36-0.44,8.291,8.291,0,0,0-3.14,0,0.441,0.441,0,0,0-.36.44v1.94a1.049,1.049,0,0,1-.52.92,1.038,1.038,0,0,1-1.05,0,1.049,1.049,0,0,1-.52-0.92v-0.73a0.454,0.454,0,0,0-.23-0.39,0.447,0.447,0,0,0-.46.02,8.493,8.493,0,0,0-3.73,6.32h-1.39a0.445,0.445,0,0,0-.39.22,0.471,0.471,0,0,0,0,.46,0.445,0.445,0,0,0,.39.22h20.26a0.461,0.461,0,0,0,.4-0.22A0.471,0.471,0,0,0,7513.67,1383.97Zm3.07,17.72c-2.66-5.08-6.71-7.87-12.1-8.33a7.3,7.3,0,0,0,5.47-7.08v-0.31l-0.02-.43h-14.52l-0.02.43c-0.01.1-.01,0.21-0.01,0.31a7.308,7.308,0,0,0,5.57,7.1q-7.89.8-11.85,8.35a2.228,2.228,0,0,0,1.97,3.27l23.54-.03A2.233,2.233,0,0,0,7516.74,1401.69Zm-15.4-10.48a0.446,0.446,0,0,1-.44-0.45,0.44,0.44,0,0,1,.44-0.45h3.03a0.448,0.448,0,0,1,.45.45,0.455,0.455,0,0,1-.45.45h-3.03Z" transform="translate(-7475 -1365)"/>
</svg>
