<svg id="组_1" data-name="组 1" xmlns="http://www.w3.org/2000/svg" width="32" height="32" viewBox="0 0 32 32">
  <metadata><?xpacket begin="﻿" id="W5M0MpCehiHzreSzNTczkc9d"?>
<x:xmpmeta xmlns:x="adobe:ns:meta/" x:xmptk="Adobe XMP Core 5.6-c138 79.159824, 2016/09/14-01:09:01        ">
   <rdf:RDF xmlns:rdf="http://www.w3.org/1999/02/22-rdf-syntax-ns#">
      <rdf:Description rdf:about=""/>
   </rdf:RDF>
</x:xmpmeta>
                                                                                                    
                                                                                                    
                                                                                                    
                                                                                                    
                                                                                                    
                                                                                                    
                                                                                                    
                                                                                                    
                                                                                                    
                                                                                                    
                                                                                                    
                                                                                                    
                                                                                                    
                                                                                                    
                                                                                                    
                                                                                                    
                                                                                                    
                                                                                                    
                                                                                                    
                                                                                                    
                           
<?xpacket end="w"?></metadata>
<defs>
    <style>
      .cls-1 {
        fill: #fbb45a;
      }

      .cls-1, .cls-2 {
        fill-rule: evenodd;
      }

      .cls-2 {
        fill: #f59e2d;
      }
    </style>
  </defs>
  <path id="形状_4" data-name="形状 4" class="cls-1" d="M595.341,730.131l-2.159-2.679a2.991,2.991,0,0,1-.621-1.537l-0.379-3.4a3.017,3.017,0,0,0-2.658-2.66l-3.4-.378a3.044,3.044,0,0,1-1.559-.659l-2.678-2.161a3.006,3.006,0,0,0-3.757,0l-2.679,2.159a3.023,3.023,0,0,1-1.537.621l-3.4.379a3.017,3.017,0,0,0-2.66,2.658l-0.378,3.4a3.057,3.057,0,0,1-.659,1.561l-2.161,2.678a3.006,3.006,0,0,0,0,3.757l2.159,2.679a3.023,3.023,0,0,1,.621,1.537l0.379,3.4a3.017,3.017,0,0,0,2.658,2.66l3.4,0.378a3.057,3.057,0,0,1,1.561.659l2.678,2.161a3.006,3.006,0,0,0,3.757,0l2.679-2.159a3.023,3.023,0,0,1,1.537-.621l3.4-.379a3.017,3.017,0,0,0,2.66-2.658l0.378-3.4a3.061,3.061,0,0,1,.659-1.559l2.161-2.678a3.006,3.006,0,0,0,0-3.757h0Zm-18.328,9.874-7-7,3-3,4,4,9.993-9.994,3,3.1-12.991,12.891h0Zm0,0" transform="translate(-564 -716)"/>
  <path id="形状_4_拷贝" data-name="形状 4 拷贝" class="cls-2" d="M595.341,733.888l-2.161,2.678a3.061,3.061,0,0,0-.659,1.559l-0.378,3.4a3.017,3.017,0,0,1-2.66,2.658l-3.4.379a3.023,3.023,0,0,0-1.537.621l-2.679,2.159A3,3,0,0,1,580,748V737.043l10.006-9.929-3-3.1L580,731.023V716a3,3,0,0,1,1.888.657l2.678,2.161a3.044,3.044,0,0,0,1.559.659l3.4,0.378a3.017,3.017,0,0,1,2.658,2.66l0.379,3.4a2.991,2.991,0,0,0,.621,1.537l2.159,2.679A3.006,3.006,0,0,1,595.341,733.888Z" transform="translate(-564 -716)"/>
</svg>
