<svg t="1698214313312" class="icon" viewBox="0 0 1031 1024" version="1.1" xmlns="http://www.w3.org/2000/svg" p-id="4995" width="200" height="200"><path d="M548.68195555 930.05027556a27.39768889 27.39768889 0 0 1-27.36696888-27.36810667V434.55146667c0-6.54791111 2.34723555-12.87964445 6.61731555-17.83808l207.65923556-241.5104H172.42453333l190.66652445 242.43086222a27.47847111 27.47847111 0 0 1 5.85386667 16.91761778v279.48032l82.44110222 82.43541333a27.13486222 27.13486222 0 0 1 7.83587555 19.36952889 27.21109333 27.21109333 0 0 1-8.16128 19.29443556c-5.15640889 5.07904-11.97738667 7.87569778-19.20682667 7.87569777s-14.05724445-2.79096889-19.20568888-7.87569777l-90.41123556-90.41692445a27.21564445 27.21564445 0 0 1-8.01564444-19.35815111V444.02346667L94.57891555 164.74680889a27.39768889 27.39768889 0 0 1 4.57955556-38.43072 27.47847111 27.47847111 0 0 1 16.91648-5.85386667h679.12248889a27.17468445 27.17468445 0 0 1 19.34563555 8.02133334 27.16444445 27.16444445 0 0 1 8.00995556 19.35815111 27.36810667 27.36810667 0 0 1-6.61162666 17.83125333L576.03868445 444.69475556v457.98286222a27.39086222 27.39086222 0 0 1-27.35559112 27.37379556z" fill="#2C2C2C" p-id="4996"></path><path d="M681.47313778 857.16195556a27.17582222 27.17582222 0 0 1-19.33994667-8.02702222 27.19857778 27.19857778 0 0 1-7.99857778-19.36384 27.40224 27.40224 0 0 1 27.34421334-27.34421334h211.75978666a27.40224 27.40224 0 0 1 27.33852445 27.39086222 27.40224 27.40224 0 0 1-27.34421333 27.34421334h0.00568888-211.76547555z m0-171.29585778a27.39086222 27.39086222 0 0 1-27.33852445-27.38631111 27.40906667 27.40906667 0 0 1 27.34421334-27.34990222h211.75978666a27.40224 27.40224 0 0 1 27.33852445 27.392 27.40906667 27.40906667 0 0 1-27.34421333 27.34421333h0.00568888-211.76547555z m0-169.32750222c-15.00046222-0.19342222-27.12348445-12.62364445-26.9312-27.71171556a27.19288889 27.19288889 0 0 1 27.01880889-27.01880888h211.67786666c15.08807111 0 27.36241778 12.27434667 27.36241778 27.36810666s-12.27434667 27.36810667-27.36241778 27.36810667H681.47313778z" fill="#2C2C2C" p-id="4997"></path></svg>