<svg width="15" height="16" viewBox="0 0 15 16" fill="none" xmlns="http://www.w3.org/2000/svg">
<path d="M0.926702 14.3492V1.65096C0.926702 1.58036 0.983935 1.52289 1.05453 1.52289H11.7381C11.8087 1.52289 11.8661 1.58036 11.8661 1.65096V6.77406H12.7929V1.65096C12.7929 1.0695 12.3198 0.596191 11.7381 0.596191H1.05453C0.473074 0.596191 0 1.0695 0 1.65096V14.3492C0 14.9307 0.473074 15.404 1.05453 15.404H7.03556V14.4773H1.05453C0.983935 14.4773 0.926702 14.4198 0.926702 14.3492Z" fill="#F00000"/>
<path d="M3.69748 8.70883C3.44159 8.70883 3.23413 8.91607 3.23413 9.17218C3.23413 9.42829 3.44159 9.63553 3.69748 9.63553H5.54772C5.80361 9.63553 6.01108 9.42829 6.01108 9.17218C6.01108 8.91607 5.80361 8.70883 5.54772 8.70883H3.69748ZM9.48938 6.66538C9.48938 6.40927 9.28192 6.20203 9.02603 6.20203H3.69748C3.44159 6.20203 3.23413 6.40927 3.23413 6.66538C3.23413 6.92149 3.44159 7.12874 3.69748 7.12874H9.02603C9.28192 7.12874 9.48938 6.92149 9.48938 6.66538ZM9.02603 3.78662H3.69748C3.44159 3.78662 3.23413 3.99386 3.23413 4.24997C3.23413 4.50608 3.44159 4.71332 3.69748 4.71332H9.02603C9.28192 4.71332 9.48938 4.50608 9.48938 4.24997C9.48938 3.99386 9.28192 3.78662 9.02603 3.78662ZM12.5417 11.464H11.6179V9.9654C11.6179 9.70929 11.4104 9.50204 11.1545 9.50204C10.8987 9.50204 10.6912 9.70929 10.6912 9.9654V11.9274C10.6912 12.1835 10.8987 12.3908 11.1545 12.3908H12.5417C12.7976 12.3908 13.005 12.1835 13.005 11.9274C13.005 11.6713 12.7975 11.464 12.5417 11.464Z" fill="#F00000"/>
<path d="M11.1851 8.0835C9.17199 8.0835 7.54004 9.71543 7.54004 11.7285C7.54004 13.7416 9.17197 15.3736 11.1851 15.3736C13.1982 15.3736 14.8301 13.7417 14.8301 11.7285C14.8301 9.71543 13.1982 8.0835 11.1851 8.0835ZM11.1851 14.4469C9.68618 14.4469 8.46674 13.2274 8.46674 11.7285C8.46674 10.2296 9.68618 9.01018 11.1851 9.01018C12.684 9.01018 13.9034 10.2296 13.9034 11.7285C13.9034 13.2274 12.684 14.4469 11.1851 14.4469Z" fill="#F00000"/>
</svg>
