<svg width="15" height="16" viewBox="0 0 15 16" fill="none" xmlns="http://www.w3.org/2000/svg">
<path d="M0.926702 14.3492V1.65096C0.926702 1.58036 0.983935 1.52289 1.05453 1.52289H11.7381C11.8087 1.52289 11.8661 1.58036 11.8661 1.65096V6.77406H12.7929V1.65096C12.7929 1.0695 12.3198 0.596191 11.7381 0.596191H1.05453C0.473074 0.596191 0 1.0695 0 1.65096V14.3492C0 14.9307 0.473074 15.404 1.05453 15.404H7.03556V14.4773H1.05453C0.983935 14.4773 0.926702 14.4198 0.926702 14.3492Z" fill="#748094"/>
<path d="M3.69748 8.70883C3.44159 8.70883 3.23413 8.91607 3.23413 9.17218C3.23413 9.42829 3.44159 9.63553 3.69748 9.63553H5.54772C5.80361 9.63553 6.01108 9.42829 6.01108 9.17218C6.01108 8.91607 5.80361 8.70883 5.54772 8.70883H3.69748ZM9.48938 6.66538C9.48938 6.40927 9.28192 6.20203 9.02603 6.20203H3.69748C3.44159 6.20203 3.23413 6.40927 3.23413 6.66538C3.23413 6.92149 3.44159 7.12874 3.69748 7.12874H9.02603C9.28192 7.12874 9.48938 6.92149 9.48938 6.66538ZM9.02603 3.78662H3.69748C3.44159 3.78662 3.23413 3.99386 3.23413 4.24997C3.23413 4.50608 3.44159 4.71332 3.69748 4.71332H9.02603C9.28192 4.71332 9.48938 4.50608 9.48938 4.24997C9.48938 3.99386 9.28192 3.78662 9.02603 3.78662Z" fill="#748094"/>
<path d="M11.1851 8.0835C9.17199 8.0835 7.54004 9.71543 7.54004 11.7285C7.54004 13.7416 9.17197 15.3736 11.1851 15.3736C13.1982 15.3736 14.8301 13.7417 14.8301 11.7285C14.8301 9.71543 13.1982 8.0835 11.1851 8.0835ZM11.1851 14.4469C9.68618 14.4469 8.46674 13.2274 8.46674 11.7285C8.46674 10.2296 9.68618 9.01018 11.1851 9.01018C12.684 9.01018 13.9034 10.2296 13.9034 11.7285C13.9034 13.2274 12.684 14.4469 11.1851 14.4469Z" fill="#748094"/>
<path d="M13.1 11.1254V11.1255C13.1 11.1876 13.0747 11.244 13.034 11.2847C13.034 11.2847 13.034 11.2847 13.034 11.2847C13.0339 11.2847 13.0339 11.2847 13.0339 11.2848L11.2848 13.0345L13.1 11.1254ZM13.1 11.1254C13.1 11.0809 13.0868 11.0374 13.062 11.0004M13.1 11.1254L13.062 11.0004M13.062 11.0004C13.0373 10.9634 13.0021 10.9346 12.961 10.9176M13.062 11.0004L12.961 10.9176M12.961 10.9176C12.9198 10.9005 12.8746 10.8961 12.8309 10.9049M12.961 10.9176L12.8309 10.9049M12.8309 10.9049C12.7873 10.9136 12.7473 10.935 12.7158 10.9665M12.8309 10.9049L12.7158 10.9665M12.7158 10.9665C12.7158 10.9665 12.7158 10.9665 12.7158 10.9665M12.7158 10.9665L12.7158 10.9665M12.7158 10.9665C12.7158 10.9666 12.7158 10.9666 12.7157 10.9666M12.7158 10.9665L12.7157 10.9666M12.7157 10.9666L11.1442 12.5387L10.302 11.4855L12.7157 10.9666ZM11.1132 13.1001L11.1188 13.0003L10.9496 13.0159L11.028 12.9537L10.9498 13.0162L10.9497 13.016C10.9706 13.0423 10.9964 13.0617 11.0226 13.0753C11.0507 13.0899 11.0816 13.0983 11.1132 13.1001ZM9.95106 11.7663C9.95128 11.7666 9.9515 11.7668 9.95173 11.7671L10.0287 11.7033L9.95057 11.7657L9.95106 11.7663ZM11.214 12.9639L11.2847 13.0346L11.214 12.9639Z" fill="#748094" stroke="#748094" stroke-width="0.2"/>
</svg>
