<svg width="16" height="16" viewBox="0 0 16 16" fill="none" xmlns="http://www.w3.org/2000/svg">
<g clip-path="url(#clip0_116_2007)">
<path d="M13.3333 15.3335H7.33325C6.80282 15.3335 6.29411 15.1228 5.91904 14.7477C5.54397 14.3726 5.33325 13.8639 5.33325 13.3335V7.3335C5.33325 6.80306 5.54397 6.29436 5.91904 5.91928C6.29411 5.54421 6.80282 5.3335 7.33325 5.3335H13.3333C13.8637 5.3335 14.3724 5.54421 14.7475 5.91928C15.1225 6.29436 15.3333 6.80306 15.3333 7.3335V13.3335C15.3333 13.8639 15.1225 14.3726 14.7475 14.7477C14.3724 15.1228 13.8637 15.3335 13.3333 15.3335ZM7.33325 6.66683C7.15644 6.66683 6.98687 6.73707 6.86185 6.86209C6.73682 6.98712 6.66658 7.15669 6.66658 7.3335V13.3335C6.66658 13.5103 6.73682 13.6799 6.86185 13.8049C6.98687 13.9299 7.15644 14.0002 7.33325 14.0002H13.3333C13.5101 14.0002 13.6796 13.9299 13.8047 13.8049C13.9297 13.6799 13.9999 13.5103 13.9999 13.3335V7.3335C13.9999 7.15669 13.9297 6.98712 13.8047 6.86209C13.6796 6.73707 13.5101 6.66683 13.3333 6.66683H7.33325Z" fill="#2552C2"/>
<path d="M3.33341 10.6665H2.66675C2.13632 10.6665 1.62761 10.4558 1.25253 10.0807C0.877462 9.70564 0.666748 9.19694 0.666748 8.6665V2.6665C0.666748 2.13607 0.877462 1.62736 1.25253 1.25229C1.62761 0.877218 2.13632 0.666504 2.66675 0.666504H8.66675C9.19718 0.666504 9.70589 0.877218 10.081 1.25229C10.456 1.62736 10.6667 2.13607 10.6667 2.6665V3.33317C10.6667 3.50998 10.5965 3.67955 10.4715 3.80457C10.3465 3.9296 10.1769 3.99984 10.0001 3.99984C9.82327 3.99984 9.6537 3.9296 9.52868 3.80457C9.40365 3.67955 9.33341 3.50998 9.33341 3.33317V2.6665C9.33341 2.48969 9.26318 2.32012 9.13815 2.1951C9.01313 2.07008 8.84356 1.99984 8.66675 1.99984H2.66675C2.48994 1.99984 2.32037 2.07008 2.19534 2.1951C2.07032 2.32012 2.00008 2.48969 2.00008 2.6665V8.6665C2.00008 8.84332 2.07032 9.01288 2.19534 9.13791C2.32037 9.26293 2.48994 9.33317 2.66675 9.33317H3.33341C3.51023 9.33317 3.67979 9.40341 3.80482 9.52843C3.92984 9.65346 4.00008 9.82303 4.00008 9.99984C4.00008 10.1766 3.92984 10.3462 3.80482 10.4712C3.67979 10.5963 3.51023 10.6665 3.33341 10.6665Z" fill="#2552C2"/>
</g>
<defs>
<clipPath id="clip0_116_2007">
<rect width="16" height="16" fill="white"/>
</clipPath>
</defs>
</svg>
