<svg width="21" height="21" viewBox="0 0 21 21" fill="none" xmlns="http://www.w3.org/2000/svg">
<path d="M10.4996 12.5692C10.4422 12.5692 10.3848 12.5569 10.3294 12.5344L1.26084 8.71582C1.09883 8.64815 0.992188 8.48818 0.992188 8.31182C0.992188 8.13545 1.09678 7.97754 1.26084 7.90781L10.3294 4.08926C10.4384 4.04414 10.5608 4.04414 10.6698 4.08926L19.7384 7.90781C19.9004 7.97549 20.007 8.13545 20.007 8.31182C20.007 8.48818 19.9024 8.64609 19.7384 8.71582L10.6698 12.5344C10.6145 12.5569 10.557 12.5692 10.4996 12.5692ZM2.55898 8.31182L10.4996 11.6546L18.4402 8.31182L10.4996 4.96904L2.55898 8.31182Z" fill="#AEB5BC"/>
<path d="M10.4996 15.1943C10.4421 15.1943 10.3847 15.182 10.3293 15.1595L1.26079 11.3409C1.03726 11.2466 0.934718 10.9902 1.027 10.7687C1.12134 10.5452 1.37769 10.4427 1.59917 10.5349L10.4996 14.2817L19.3979 10.5349C19.6194 10.4406 19.8778 10.5452 19.9701 10.7687C20.0644 10.9923 19.9598 11.2486 19.7363 11.3409L10.6698 15.1595C10.6144 15.182 10.557 15.1943 10.4996 15.1943Z" fill="#AEB5BC"/>
<path d="M10.5002 17.8192C10.4489 17.8192 10.3976 17.811 10.3484 17.7905L1.27985 14.4087C1.05426 14.3247 0.937365 14.0724 1.0235 13.8468C1.10758 13.6212 1.36188 13.5064 1.58541 13.5905L10.492 16.9107L19.4005 13.1598C19.622 13.0675 19.8804 13.1701 19.9727 13.3936C20.0671 13.6171 19.9625 13.8735 19.7389 13.9658L10.6704 17.7843C10.615 17.8069 10.5576 17.8192 10.5002 17.8192Z" fill="#AEB5BC"/>
</svg>
