<svg width="19" height="19" viewBox="0 0 19 19" fill="none" xmlns="http://www.w3.org/2000/svg">
<path d="M11.2801 7.75329C11.1654 7.63866 11.0432 7.53533 10.9172 7.43953L10.917 7.43973C10.7874 7.31507 10.6114 7.23828 10.4173 7.23828C10.019 7.23828 9.6962 7.56114 9.6962 7.95939C9.6962 8.13561 9.7595 8.29702 9.86452 8.42228H9.8645C9.86452 8.4223 9.86456 8.42234 9.8646 8.42236C9.91505 8.48253 9.97507 8.5344 10.0425 8.57547C10.1104 8.63154 10.1772 8.68675 10.2396 8.74916L10.299 8.80863C11.0464 9.55507 10.8233 10.8411 10.0759 11.5885L6.88673 14.7767C6.13938 15.5232 4.92436 15.5232 4.17697 14.7767L4.11704 14.7168C3.36963 13.9694 3.36963 12.7535 4.11704 12.008L5.526 10.5995C5.70678 10.456 5.82283 10.2345 5.82283 9.98583C5.82283 9.55327 5.47217 9.20261 5.03961 9.20261C4.87638 9.20261 4.72486 9.25259 4.59939 9.33801C4.59899 9.33717 4.59858 9.33638 4.59816 9.33552L4.58314 9.34957C4.52768 9.38945 4.47753 9.43621 4.43422 9.48892L2.97001 10.859C1.59365 12.2363 1.59365 14.4889 2.97001 15.8643L3.02946 15.9238C4.40582 17.2992 6.65745 17.2992 8.0338 15.9238L11.222 12.7346C12.5965 11.3583 12.713 9.1872 11.3386 7.81179L11.2801 7.75329Z" fill="#2552C2"/>
<path d="M15.8757 3.07658L15.8162 3.01713C14.4399 1.64077 12.1883 1.64077 10.8119 3.01713L7.62368 6.2063C6.24733 7.58266 6.17153 9.5702 7.54789 10.9474L7.60639 11.0051C7.66889 11.0675 7.73377 11.1265 7.8 11.183C7.84794 11.2365 7.90426 11.2823 7.96686 11.3186C7.96733 11.319 7.96783 11.3194 7.9683 11.3197L7.96851 11.3196C8.06829 11.3769 8.1839 11.4099 8.30728 11.4099C8.68326 11.4099 8.98804 11.1051 8.98804 10.7292C8.98804 10.6231 8.96374 10.5226 8.92041 10.4331C8.83041 10.231 8.66194 10.108 8.54541 9.99143L8.4869 9.93386C7.73954 9.1865 8.02334 8.10073 8.7707 7.35337L11.9608 4.16511C12.7063 3.41772 13.9218 3.41772 14.6692 4.16511L14.7286 4.22361C15.476 4.97102 15.476 6.18741 14.7286 6.93385L13.3243 8.33915C13.1333 8.4807 13.0094 8.70774 13.0094 8.96375C13.0094 9.3928 13.3572 9.74064 13.7863 9.74064C13.9356 9.74064 14.075 9.69842 14.1934 9.62539C14.1943 9.62691 14.1952 9.62832 14.1961 9.62985L14.2178 9.60975C14.2849 9.56482 14.3445 9.50967 14.3946 9.44661L15.8747 8.08092C17.2521 6.70458 17.2521 4.45292 15.8757 3.07658Z" fill="#2552C2"/>
</svg>
