<svg xmlns="http://www.w3.org/2000/svg" width="14" height="14" viewBox="0 0 14 14" fill="none">
    <g clip-path="url(#clip0_1431_415)">
        <path d="M11.0907 13.9755H2.9103C2.27782 13.9748 1.67144 13.7233 1.22413 13.2762C0.776816 12.829 0.525096 12.2227 0.52417 11.5902V2.38612C0.524865 1.7535 0.776483 1.14698 1.22382 0.699647C1.67115 0.252313 2.27767 0.000694813 2.9103 0L11.0907 0C11.7234 0.000463192 12.3302 0.251979 12.7777 0.699338C13.2252 1.1467 13.477 1.75335 13.4777 2.38612V11.5902C13.4763 12.2227 13.2243 12.8289 12.7769 13.276C12.3295 13.723 11.7232 13.9746 11.0907 13.9755ZM2.9103 0.681625C2.45838 0.682088 2.0251 0.861818 1.70554 1.18137C1.38599 1.50093 1.20626 1.93421 1.20579 2.38612V11.5902C1.20672 12.0419 1.38665 12.4747 1.70616 12.7939C2.02567 13.113 2.45868 13.2925 2.9103 13.293H11.0907C11.5423 13.2925 11.9753 13.113 12.2948 12.7939C12.6143 12.4747 12.7942 12.0419 12.7952 11.5902V2.38612C12.7947 1.93421 12.615 1.50093 12.2954 1.18137C11.9759 0.861818 11.5426 0.682088 11.0907 0.681625H2.9103Z" fill="#AEB5BC"/>
        <path d="M10.0678 6.81712H8.02203C7.66062 6.81643 7.31423 6.67243 7.05884 6.41671C6.80344 6.16098 6.65989 5.81441 6.65966 5.453V3.40812C6.66012 3.04686 6.80378 2.70051 7.05915 2.44498C7.31452 2.18944 7.66077 2.04557 8.02203 2.04487H10.0678C10.4293 2.0451 10.7761 2.18878 11.0318 2.44436C11.2875 2.69994 11.4314 3.04656 11.4319 3.40812V5.453C11.431 6.2055 10.8194 6.81712 10.0678 6.81712ZM8.02203 2.7265C7.84148 2.72696 7.66846 2.79895 7.54087 2.9267C7.41328 3.05446 7.34151 3.22757 7.34128 3.40812V5.453C7.34128 5.82925 7.64753 6.1355 8.02203 6.1355H10.0678C10.1574 6.1355 10.2462 6.11784 10.329 6.08354C10.4118 6.04925 10.487 5.99897 10.5504 5.9356C10.6138 5.87222 10.664 5.79698 10.6983 5.71418C10.7326 5.63137 10.7503 5.54262 10.7503 5.453V3.40812C10.7501 3.22726 10.678 3.05389 10.5501 2.92609C10.4221 2.79828 10.2486 2.7265 10.0678 2.7265H8.02203ZM4.95516 2.7265H2.91028C2.86407 2.72884 2.81787 2.72176 2.77448 2.70569C2.7311 2.68962 2.69143 2.66489 2.65789 2.63302C2.62436 2.60114 2.59766 2.56277 2.57941 2.52026C2.56117 2.47774 2.55176 2.43195 2.55176 2.38568C2.55176 2.33942 2.56117 2.29363 2.57941 2.25111C2.59766 2.20859 2.62436 2.17023 2.65789 2.13835C2.69143 2.10647 2.7311 2.08175 2.77448 2.06568C2.81787 2.04961 2.86407 2.04253 2.91028 2.04487H4.95516C5.04555 2.04487 5.13223 2.08078 5.19615 2.14469C5.26006 2.20861 5.29597 2.29529 5.29597 2.38568C5.29597 2.47607 5.26006 2.56276 5.19615 2.62667C5.13223 2.69059 5.04555 2.7265 4.95516 2.7265ZM4.95516 4.77225H2.91028C2.86407 4.77459 2.81787 4.76751 2.77448 4.75144C2.7311 4.73537 2.69143 4.71064 2.65789 4.67877C2.62436 4.64689 2.59766 4.60852 2.57941 4.56601C2.56117 4.52349 2.55176 4.4777 2.55176 4.43143C2.55176 4.38517 2.56117 4.33938 2.57941 4.29686C2.59766 4.25434 2.62436 4.21598 2.65789 4.1841C2.69143 4.15222 2.7311 4.1275 2.77448 4.11143C2.81787 4.09536 2.86407 4.08828 2.91028 4.09062H4.95516C5.04555 4.09062 5.13223 4.12653 5.19615 4.19044C5.26006 4.25436 5.29597 4.34104 5.29597 4.43143C5.29597 4.52182 5.26006 4.60851 5.19615 4.67242C5.13223 4.73634 5.04555 4.77225 4.95516 4.77225ZM4.95516 6.81712H2.91028C2.86407 6.81946 2.81787 6.81238 2.77448 6.79631C2.7311 6.78024 2.69143 6.75552 2.65789 6.72364C2.62436 6.69176 2.59766 6.6534 2.57941 6.61088C2.56117 6.56836 2.55176 6.52258 2.55176 6.47631C2.55176 6.43004 2.56117 6.38426 2.57941 6.34174C2.59766 6.29922 2.62436 6.26085 2.65789 6.22898C2.69143 6.1971 2.7311 6.17237 2.77448 6.1563C2.81787 6.14023 2.86407 6.13315 2.91028 6.1355H4.95516C5.04555 6.1355 5.13223 6.1714 5.19615 6.23532C5.26006 6.29923 5.29597 6.38592 5.29597 6.47631C5.29597 6.5667 5.26006 6.65339 5.19615 6.7173C5.13223 6.78121 5.04555 6.81712 4.95516 6.81712ZM11.0907 8.86287H2.91028C2.81978 8.86287 2.73298 8.82692 2.66898 8.76292C2.60499 8.69893 2.56903 8.61213 2.56903 8.52162C2.56903 8.43112 2.60499 8.34432 2.66898 8.28032C2.73298 8.21632 2.81978 8.18037 2.91028 8.18037H11.0907C11.1812 8.18037 11.268 8.21632 11.332 8.28032C11.396 8.34432 11.4319 8.43112 11.4319 8.52162C11.4319 8.61213 11.396 8.69893 11.332 8.76292C11.268 8.82692 11.1812 8.86287 11.0907 8.86287ZM8.02203 10.9069H2.91028C2.86407 10.9092 2.81787 10.9021 2.77448 10.8861C2.7311 10.87 2.69143 10.8453 2.65789 10.8134C2.62436 10.7815 2.59766 10.7431 2.57941 10.7006C2.56117 10.6581 2.55176 10.6123 2.55176 10.5661C2.55176 10.5198 2.56117 10.474 2.57941 10.4315C2.59766 10.389 2.62436 10.3506 2.65789 10.3187C2.69143 10.2868 2.7311 10.2621 2.77448 10.2461C2.81787 10.23 2.86407 10.2229 2.91028 10.2252H8.02203C8.06824 10.2229 8.11444 10.23 8.15783 10.2461C8.20122 10.2621 8.24089 10.2868 8.27442 10.3187C8.30795 10.3506 8.33466 10.389 8.3529 10.4315C8.37115 10.474 8.38056 10.5198 8.38056 10.5661C8.38056 10.6123 8.37115 10.6581 8.3529 10.7006C8.33466 10.7431 8.30795 10.7815 8.27442 10.8134C8.24089 10.8453 8.20122 10.87 8.15783 10.8861C8.11444 10.9021 8.06824 10.9092 8.02203 10.9069Z" fill="#AEB5BC"/>
    </g>
    <defs>
        <clipPath id="clip0_1431_415">
            <rect width="14" height="14" fill="white"/>
        </clipPath>
    </defs>
</svg>