<svg width="16" height="14" viewBox="0 0 16 14" fill="none" xmlns="http://www.w3.org/2000/svg">
<path d="M3.3333 5.66656C2.9333 5.66656 2.6667 5.39997 2.6667 4.99996C2.6667 2.39996 4.7333 0.333252 7.3333 0.333252C9.3333 0.333252 11.1333 1.66656 11.8 3.59996C11.8667 3.93326 11.7333 4.33326 11.3333 4.39996C11 4.53326 10.6 4.33326 10.4667 3.99996C10.0667 2.59996 8.8 1.66656 7.3333 1.66656C5.4667 1.66656 4 3.13326 4 4.99996C4 5.39997 3.7333 5.66656 3.3333 5.66656ZM12 11C11.6 11 11.3333 10.7333 11.3333 10.3333C11.3333 9.93328 11.6 9.66657 12 9.66657C13.4667 9.66657 14.6667 8.46657 14.6667 6.99997C14.6667 5.53327 13.4667 4.33326 12 4.33326C11.8 4.33326 11.5333 4.33326 11.3333 4.39996C11 4.46656 10.6 4.26656 10.5333 3.93326C10.4667 3.59996 10.6667 3.19996 11 3.13326C11.3333 3.06656 11.6667 2.99996 12 2.99996C14.2 2.99996 16 4.79996 16 6.99997C16 9.19997 14.2 11 12 11ZM5.3333 11H3.3333C2.9333 11 2.6667 10.7333 2.6667 10.3333C2.6667 9.93328 2.9333 9.66657 3.3333 9.66657H5.3333C5.7333 9.66657 6 9.93328 6 10.3333C6 10.7333 5.7333 11 5.3333 11ZM12 11H10.6667C10.2667 11 10 10.7333 10 10.3333C10 9.93328 10.2667 9.66657 10.6667 9.66657H12C12.4 9.66657 12.6667 9.93328 12.6667 10.3333C12.6667 10.7333 12.4 11 12 11ZM3.3333 11C1.4667 11 0 9.53327 0 7.66657C0 5.79996 1.4667 4.33326 3.3333 4.33326C3.7333 4.33326 4 4.59996 4 4.99996C4 5.39997 3.7333 5.66656 3.3333 5.66656C2.2 5.66656 1.3333 6.53327 1.3333 7.66657C1.3333 8.79997 2.2 9.66657 3.3333 9.66657C3.7333 9.66657 4 9.93328 4 10.3333C4 10.7333 3.7333 11 3.3333 11ZM8 13.6666C7.6 13.6666 7.3333 13.4 7.3333 13V6.33327C7.3333 5.93327 7.6 5.66656 8 5.66656C8.4 5.66656 8.6667 5.93327 8.6667 6.33327V13C8.6667 13.4 8.4 13.6666 8 13.6666ZM6 8.99997C5.8 8.99997 5.6667 8.93327 5.5333 8.79997C5.2667 8.53327 5.2667 8.13327 5.5333 7.86657L7.5333 5.86657C7.8 5.59997 8.2 5.59997 8.4667 5.86657C8.7333 6.13327 8.7333 6.53327 8.4667 6.79997L6.4667 8.79997C6.3333 8.93327 6.2 8.99997 6 8.99997ZM10 8.99997C9.8 8.99997 9.6667 8.93327 9.5333 8.79997L7.5333 6.79997C7.2667 6.53327 7.2667 6.13327 7.5333 5.86657C7.8 5.59997 8.2 5.59997 8.4667 5.86657L10.4667 7.86657C10.7333 8.13327 10.7333 8.53327 10.4667 8.79997C10.3333 8.93327 10.2 8.99997 10 8.99997Z" fill="#44A0FF"/>
</svg>
