<svg xmlns="http://www.w3.org/2000/svg" width="14" height="13" viewBox="0 0 14 13" fill="none">
    <path d="M10.1612 0C12.5748 0 14 1.3895 14 3.7674H11.0383V3.7912C9.6635 3.7912 8.5491 4.8776 8.5491 6.2181C8.5491 7.5586 9.6635 8.645 11.0383 8.645H14V8.8634C14 11.2105 12.5748 12.6 10.1612 12.6H3.8388C1.4252 12.6 0 11.2105 0 8.8634V3.7366C0 1.3895 1.4252 0 3.8388 0H10.1612ZM13.4771 4.8104C13.7662 4.8104 14 5.0386 14 5.32V7.0917C13.9967 7.22812 13.9401 7.35784 13.8424 7.45308C13.7447 7.54832 13.6136 7.60152 13.4771 7.6013H11.095C10.3992 7.6104 9.7902 7.1463 9.6327 6.4848C9.59383 6.28164 9.60087 6.07236 9.65331 5.87228C9.70575 5.6722 9.80227 5.48637 9.9358 5.3284C10.0717 5.16791 10.2406 5.03857 10.431 4.94918C10.6213 4.8598 10.8287 4.81246 11.039 4.8104H13.4771ZM11.3743 5.6294H11.144C11.0033 5.62758 10.8676 5.68113 10.766 5.7785C10.7165 5.82595 10.6772 5.88289 10.6502 5.94592C10.6233 6.00895 10.6093 6.07676 10.6092 6.1453C10.6092 6.4344 10.8472 6.6703 11.144 6.6731H11.3743C11.5143 6.67478 11.6493 6.6208 11.7496 6.52302C11.8499 6.42524 11.9073 6.29165 11.9091 6.1516C11.9083 6.0822 11.8938 6.01363 11.8665 5.94983C11.8391 5.88602 11.7995 5.82822 11.7499 5.77973C11.7002 5.73124 11.6415 5.693 11.577 5.66721C11.5126 5.64142 11.4437 5.62857 11.3743 5.6294ZM7.2674 2.7244H3.3166C3.1775 2.72251 3.04327 2.77555 2.94302 2.872C2.84277 2.96845 2.78459 3.10053 2.7811 3.2396C2.7811 3.5287 3.0198 3.7646 3.3166 3.7674H7.2674C7.33686 3.76833 7.40583 3.75555 7.47035 3.72979C7.53487 3.70404 7.59368 3.66582 7.64341 3.61732C7.69315 3.56882 7.73284 3.51099 7.7602 3.44714C7.78757 3.38329 7.80208 3.31467 7.8029 3.2452C7.80199 3.1758 7.78741 3.10725 7.76 3.04348C7.7326 2.97971 7.6929 2.92196 7.64317 2.87353C7.59344 2.8251 7.53466 2.78695 7.47019 2.76124C7.40571 2.73553 7.3368 2.72277 7.2674 2.7237V2.7244Z" fill="#1950C9"/>
</svg>