<svg xmlns="http://www.w3.org/2000/svg" width="14" height="14" viewBox="0 0 14 14" fill="none">
<g clip-path="url(#clip0_1431_1920)">
<path d="M13.4785 7.53296C13.4628 7.43287 13.4338 7.33533 13.3922 7.24292C13.297 7.02741 13.1672 6.82885 13.0081 6.65502C12.8657 6.49745 12.6957 6.36727 12.5065 6.27092C12.4159 6.22374 12.3215 6.1844 12.2243 6.15334C12.1091 6.12041 11.9909 6.0994 11.8715 6.09063H11.8245C11.6966 6.09235 11.5697 6.11349 11.4482 6.15334C11.2958 6.19633 11.1542 6.27113 11.0328 6.37282C10.9556 6.43633 10.8823 6.50438 10.8133 6.57663L10.586 6.74125V6.84315L10.1705 7.23509L8.69683 8.74796L8.14811 9.32019L7.64643 9.83755L7.26234 10.2295L7.09772 10.4019C7.01425 10.4923 6.93823 10.5893 6.8704 10.692C6.81975 10.7748 6.77522 10.8613 6.73714 10.9507C6.68787 11.052 6.64596 11.1568 6.61172 11.2642C6.61172 11.3818 6.53333 11.515 6.49414 11.6561C6.45494 11.7972 6.41575 11.9227 6.3844 12.0481C6.34733 12.1741 6.31852 12.3024 6.29817 12.4322C6.27105 12.5682 6.2731 12.7083 6.30417 12.8435C6.33525 12.9786 6.39466 13.1056 6.47846 13.216C6.55953 13.3207 6.66442 13.4045 6.78441 13.4604C6.9044 13.5163 7.036 13.5427 7.16827 13.5374H7.34856C7.46249 13.5222 7.57515 13.4986 7.68563 13.4669L8.10108 13.3336C8.24218 13.3336 8.37544 13.2396 8.51654 13.1925L8.84576 13.0514C8.95641 12.9965 9.06143 12.9308 9.15931 12.8555L9.3396 12.6987C9.41487 12.6358 9.4856 12.5677 9.55125 12.4949L9.91183 12.1186L10.3978 11.6169L10.9465 11.0526L12.4046 9.53968L12.8827 9.05367L13.0238 8.92042L13.1257 8.81851L13.2825 8.66174C13.3923 8.54828 13.4753 8.41168 13.5255 8.26196C13.5793 8.1247 13.606 7.97826 13.6039 7.83083C13.5736 7.72709 13.5315 7.62715 13.4785 7.53296ZM10.343 10.6136L9.79425 11.178L9.30041 11.6875L8.93983 12.0638L8.76737 12.2284L8.6106 12.3616C8.55546 12.4079 8.49492 12.4474 8.43031 12.4792L8.14811 12.5968L7.76402 12.73L7.37992 12.8476L7.1134 12.9103H7.03501C7.00349 12.9124 6.97187 12.908 6.94218 12.8972C6.91248 12.8864 6.88537 12.8695 6.86256 12.8476C6.83129 12.7642 6.83129 12.6723 6.86256 12.5889C6.87776 12.4911 6.8987 12.3943 6.92527 12.2989C6.92527 12.1735 6.99582 12.0481 7.03501 11.9148C7.07421 11.7816 7.1134 11.6561 7.15259 11.5464C7.17294 11.4652 7.20184 11.3864 7.23882 11.3112C7.26221 11.2473 7.29383 11.1867 7.33288 11.1309C7.36756 11.0754 7.40689 11.023 7.45047 10.9742L7.64643 10.7782L8.02269 10.3863L8.51654 9.8689L9.07309 9.30451L10.586 7.77596L11.8637 9.09287L10.343 10.6136ZM12.7887 8.03464C12.7654 8.09959 12.7279 8.15851 12.6789 8.20709L12.5378 8.35603L12.4202 8.46577L12.3183 8.56767L11.0563 7.25076C11.1112 7.19589 11.1817 7.14102 11.2523 7.06263L11.4404 6.89018C11.5001 6.84438 11.5661 6.80742 11.6364 6.78044H11.8245C11.8866 6.76858 11.9505 6.76858 12.0126 6.78044C12.0697 6.79509 12.1249 6.81613 12.1772 6.84315C12.2954 6.91457 12.4013 7.00457 12.4908 7.10967C12.6024 7.23082 12.6949 7.36827 12.7651 7.51728C12.7696 7.56682 12.7696 7.61667 12.7651 7.66622C12.7728 7.72345 12.7728 7.78144 12.7651 7.83867C12.7903 7.90099 12.8036 7.96745 12.8043 8.03464H12.7887ZM6.56469 8.44225C6.56476 8.32226 6.51819 8.20694 6.43482 8.12065C6.35145 8.03435 6.2378 7.98383 6.11788 7.97977H3.17051C3.05059 7.98383 2.93694 8.03435 2.85357 8.12065C2.7702 8.20694 2.72363 8.32226 2.7237 8.44225C2.72266 8.50196 2.7334 8.56129 2.75529 8.61685C2.77719 8.6724 2.80981 8.7231 2.8513 8.76605C2.89279 8.809 2.94234 8.84335 2.99711 8.86715C3.05188 8.89095 3.1108 8.90372 3.17051 8.90474H6.11788C6.17759 8.90372 6.23651 8.89095 6.29128 8.86715C6.34605 8.84335 6.3956 8.809 6.43709 8.76605C6.47858 8.7231 6.5112 8.6724 6.5331 8.61685C6.55499 8.56129 6.56573 8.50196 6.56469 8.44225ZM10.4449 3.40194C10.4449 3.28195 10.3984 3.16663 10.315 3.08033C10.2316 2.99404 10.118 2.94352 9.99806 2.93945H3.17051C3.05408 2.94748 2.94519 2.99997 2.8664 3.08607C2.7876 3.17216 2.74493 3.28525 2.74722 3.40194C2.74511 3.46192 2.75511 3.52171 2.77662 3.57774C2.79813 3.63378 2.83071 3.6849 2.87241 3.72806C2.91411 3.77123 2.96408 3.80555 3.01934 3.82898C3.0746 3.85241 3.13401 3.86446 3.19403 3.86443H10.0216C10.138 3.8564 10.2469 3.80391 10.3257 3.71781C10.4045 3.63172 10.4472 3.51862 10.4449 3.40194ZM3.17051 5.3773C3.05408 5.38533 2.94519 5.43782 2.8664 5.52392C2.7876 5.61001 2.74493 5.7231 2.74722 5.83979C2.75436 5.95047 2.80103 6.05489 2.87873 6.13403C2.95643 6.21317 3.05998 6.26175 3.17051 6.27092H8.01485C8.13615 6.26886 8.25178 6.21923 8.33683 6.13272C8.42187 6.04621 8.46952 5.92975 8.4695 5.80843C8.47054 5.74807 8.45955 5.68811 8.43717 5.63204C8.41479 5.57597 8.38147 5.52492 8.33914 5.48187C8.29682 5.43882 8.24635 5.40463 8.19067 5.38129C8.13499 5.35795 8.07523 5.34594 8.01485 5.34595L3.17051 5.3773Z" fill="#AEB5BC"/>
<path d="M5.05221 13.2161H2.35568C2.04384 13.2161 1.74477 13.0922 1.52426 12.8717C1.30375 12.6512 1.17987 12.3522 1.17987 12.0403V1.95969C1.17987 1.64784 1.30375 1.34877 1.52426 1.12826C1.74477 0.907754 2.04384 0.783875 2.35568 0.783875H11.5035C11.8153 0.783875 12.1144 0.907754 12.3349 1.12826C12.5554 1.34877 12.6793 1.64784 12.6793 1.95969V4.61702C12.6793 4.66849 12.6894 4.71946 12.7091 4.76701C12.7288 4.81456 12.7577 4.85777 12.7941 4.89416C12.8305 4.93056 12.8737 4.95943 12.9213 4.97912C12.9688 4.99882 13.0198 5.00896 13.0712 5.00896C13.1752 5.00896 13.2749 4.96767 13.3484 4.89416C13.4219 4.82066 13.4632 4.72097 13.4632 4.61702V1.95969C13.4632 1.43995 13.2567 0.941491 12.8892 0.573979C12.5217 0.206466 12.0232 0 11.5035 0L2.35568 0C1.83594 0 1.33749 0.206466 0.969975 0.573979C0.602462 0.941491 0.395996 1.43995 0.395996 1.95969V12.0403C0.395996 12.5601 0.602462 13.0585 0.969975 13.426C1.33749 13.7935 1.83594 14 2.35568 14H5.05221C5.15616 14 5.25585 13.9587 5.32935 13.8852C5.40285 13.8117 5.44415 13.712 5.44415 13.6081C5.44415 13.5041 5.40285 13.4044 5.32935 13.3309C5.25585 13.2574 5.15616 13.2161 5.05221 13.2161Z" fill="#AEB5BC"/>
</g>
<defs>
<clipPath id="clip0_1431_1920">
<rect width="14" height="14" fill="white"/>
</clipPath>
</defs>
</svg>