<svg xmlns="http://www.w3.org/2000/svg" width="52" height="52" viewBox="0 0 52 52" fill="none">
<path d="M14.6128 6.31348V19.1546C14.6128 25.4175 19.7369 30.5417 25.9999 30.5417C32.2628 30.5417 37.387 25.4175 37.387 19.1546V6.31348H14.6128Z" fill="#1950C9"/>
<path d="M19.271 6.31348V13.9019C19.271 17.603 22.2991 20.6311 26.0002 20.6311C29.7012 20.6311 32.7293 17.603 32.7293 13.9019V6.31348H19.271Z" fill="#1950C9"/>
<path d="M32.7291 6.313V13.9014C32.7291 17.6025 29.701 20.6307 25.9999 20.6307C22.2988 20.6307 19.2707 17.6025 19.2707 13.9014V6.313H32.7291ZM33.7042 5.33795H18.2957V13.9014C18.2957 18.1496 21.7518 21.6057 25.9999 21.6057C30.2481 21.6057 33.7042 18.1496 33.7042 13.9014V5.33795Z" fill="white"/>
<path d="M8.78223 31.6229C8.78223 33.884 9.22757 36.1229 10.0928 38.2118C10.9581 40.3008 12.2264 42.1988 13.8252 43.7976C15.424 45.3964 17.322 46.6647 19.411 47.5299C21.4999 48.3952 23.7388 48.8405 25.9999 48.8405C28.2609 48.8405 30.4998 48.3952 32.5888 47.5299C34.6777 46.6647 36.5758 45.3964 38.1746 43.7976C39.7734 42.1988 41.0416 40.3008 41.9069 38.2118C42.7722 36.1229 43.2175 33.884 43.2175 31.6229C43.2175 27.0565 41.4035 22.6771 38.1746 19.4482C34.9456 16.2193 30.5663 14.4053 25.9999 14.4053C21.4335 14.4053 17.0541 16.2193 13.8252 19.4482C10.5962 22.6771 8.78223 27.0565 8.78223 31.6229Z" fill="#F8B643"/>
<path d="M13.3008 31.6229C13.3008 33.2906 13.6293 34.9419 14.2674 36.4826C14.9056 38.0233 15.841 39.4233 17.0203 40.6025C18.1995 41.7817 19.5994 42.7171 21.1401 43.3553C22.6809 43.9935 24.3322 44.322 25.9999 44.322C27.6675 44.322 29.3189 43.9935 30.8596 43.3553C32.4003 42.7171 33.8002 41.7817 34.9795 40.6025C36.1587 39.4233 37.0941 38.0233 37.7323 36.4826C38.3705 34.9419 38.6989 33.2906 38.6989 31.6229C38.6989 28.2549 37.361 25.0248 34.9795 22.6433C32.5979 20.2618 29.3679 18.9238 25.9999 18.9238C22.6318 18.9238 19.4018 20.2618 17.0203 22.6433C14.6387 25.0248 13.3008 28.2549 13.3008 31.6229Z" fill="#FFF89F"/>
<path d="M25.9999 18.9239C33.0134 18.9239 38.699 24.6094 38.699 31.6229C38.699 38.6364 33.0134 44.322 25.9999 44.322C18.9864 44.322 13.3008 38.6364 13.3008 31.6229C13.3008 24.6094 18.9864 18.9239 25.9999 18.9239ZM25.9999 17.7051C18.3255 17.7051 12.082 23.9486 12.082 31.6229C12.082 39.2973 18.3255 45.5408 25.9999 45.5408C33.6743 45.5408 39.9178 39.2973 39.9178 31.6229C39.9178 23.9485 33.6743 17.7051 25.9999 17.7051Z" fill="white"/>
<path d="M39.9147 6.31308H12.0851C11.2177 6.31308 10.5081 5.60341 10.5081 4.73607C10.5081 3.86873 11.2177 3.15906 12.0851 3.15906H39.9147C40.782 3.15906 41.4917 3.86873 41.4917 4.73607C41.4917 5.60341 40.7821 6.31308 39.9147 6.31308Z" fill="#1950C9"/>
<path d="M28.2644 40.6619H25.6538V26.8004L22.1521 28.8103L22.1728 26.1996L26.3789 23.7546H28.2644V40.6619Z" fill="black"/>
<circle cx="26" cy="32" r="17" fill="#1950C9" stroke="white" stroke-width="2"/>
<circle cx="26" cy="32" r="13.5" fill="#1950C9" stroke="white"/>
<path d="M21.752 35.2012L24.4082 34.8789C24.4928 35.556 24.7207 36.0736 25.0918 36.4316C25.4629 36.7897 25.9121 36.9688 26.4395 36.9688C27.0059 36.9688 27.4811 36.7539 27.8652 36.3242C28.2559 35.8945 28.4512 35.3151 28.4512 34.5859C28.4512 33.8958 28.2656 33.349 27.8945 32.9453C27.5234 32.5417 27.071 32.3398 26.5371 32.3398C26.1855 32.3398 25.7656 32.4082 25.2773 32.5449L25.5801 30.3086C26.3223 30.3281 26.8887 30.1686 27.2793 29.8301C27.6699 29.485 27.8652 29.0293 27.8652 28.4629C27.8652 27.9811 27.722 27.597 27.4355 27.3105C27.1491 27.0241 26.7682 26.8809 26.293 26.8809C25.8242 26.8809 25.4238 27.0436 25.0918 27.3691C24.7598 27.6947 24.5579 28.1699 24.4863 28.7949L21.957 28.3652C22.1328 27.4993 22.3965 26.8092 22.748 26.2949C23.1061 25.7741 23.6009 25.3672 24.2324 25.0742C24.8704 24.7747 25.5833 24.625 26.3711 24.625C27.7188 24.625 28.7995 25.0547 29.6133 25.9141C30.2839 26.6172 30.6191 27.4115 30.6191 28.2969C30.6191 29.5534 29.9323 30.556 28.5586 31.3047C29.3789 31.4805 30.0332 31.8743 30.5215 32.4863C31.0163 33.0983 31.2637 33.8372 31.2637 34.7031C31.2637 35.9596 30.8047 37.0306 29.8867 37.916C28.9688 38.8014 27.8262 39.2441 26.459 39.2441C25.1634 39.2441 24.0892 38.873 23.2363 38.1309C22.3835 37.3822 21.8887 36.4056 21.752 35.2012Z" fill="white"/>
</svg>