<svg xmlns="http://www.w3.org/2000/svg" width="52" height="52" viewBox="0 0 52 52" fill="none">
<path d="M14.6128 6.31348V19.1546C14.6128 25.4175 19.7369 30.5417 25.9999 30.5417C32.2628 30.5417 37.387 25.4175 37.387 19.1546V6.31348H14.6128Z" fill="#1950C9"/>
<path d="M19.271 6.31348V13.9019C19.271 17.603 22.2991 20.6311 26.0002 20.6311C29.7012 20.6311 32.7293 17.603 32.7293 13.9019V6.31348H19.271Z" fill="#FACC60"/>
<path d="M32.7291 6.313V13.9014C32.7291 17.6025 29.701 20.6307 25.9999 20.6307C22.2988 20.6307 19.2707 17.6025 19.2707 13.9014V6.313H32.7291ZM33.7042 5.33795H18.2957V13.9014C18.2957 18.1496 21.7518 21.6057 25.9999 21.6057C30.2481 21.6057 33.7042 18.1496 33.7042 13.9014V5.33795Z" fill="white"/>
<path d="M8.78223 31.6229C8.78223 33.884 9.22757 36.1229 10.0928 38.2118C10.9581 40.3008 12.2264 42.1988 13.8252 43.7976C15.424 45.3964 17.322 46.6647 19.411 47.5299C21.4999 48.3952 23.7388 48.8405 25.9999 48.8405C28.2609 48.8405 30.4998 48.3952 32.5888 47.5299C34.6777 46.6647 36.5758 45.3964 38.1746 43.7976C39.7734 42.1988 41.0416 40.3008 41.9069 38.2118C42.7722 36.1229 43.2175 33.884 43.2175 31.6229C43.2175 27.0565 41.4035 22.6771 38.1746 19.4482C34.9456 16.2193 30.5663 14.4053 25.9999 14.4053C21.4335 14.4053 17.0541 16.2193 13.8252 19.4482C10.5962 22.6771 8.78223 27.0565 8.78223 31.6229Z" fill="#F8B643"/>
<path d="M13.3008 31.6229C13.3008 33.2906 13.6293 34.9419 14.2674 36.4826C14.9056 38.0233 15.841 39.4233 17.0203 40.6025C18.1995 41.7817 19.5994 42.7171 21.1401 43.3553C22.6809 43.9935 24.3322 44.322 25.9999 44.322C27.6675 44.322 29.3189 43.9935 30.8596 43.3553C32.4003 42.7171 33.8002 41.7817 34.9795 40.6025C36.1587 39.4233 37.0941 38.0233 37.7323 36.4826C38.3705 34.9419 38.6989 33.2906 38.6989 31.6229C38.6989 28.2549 37.361 25.0248 34.9795 22.6433C32.5979 20.2618 29.3679 18.9238 25.9999 18.9238C22.6318 18.9238 19.4018 20.2618 17.0203 22.6433C14.6387 25.0248 13.3008 28.2549 13.3008 31.6229Z" fill="#FFF89F"/>
<path d="M25.9999 18.9239C33.0134 18.9239 38.699 24.6094 38.699 31.6229C38.699 38.6364 33.0134 44.322 25.9999 44.322C18.9864 44.322 13.3008 38.6364 13.3008 31.6229C13.3008 24.6094 18.9864 18.9239 25.9999 18.9239ZM25.9999 17.7051C18.3255 17.7051 12.082 23.9486 12.082 31.6229C12.082 39.2973 18.3255 45.5408 25.9999 45.5408C33.6743 45.5408 39.9178 39.2973 39.9178 31.6229C39.9178 23.9485 33.6743 17.7051 25.9999 17.7051Z" fill="white"/>
<path d="M39.9147 6.31308H12.0851C11.2177 6.31308 10.5081 5.60341 10.5081 4.73607C10.5081 3.86873 11.2177 3.15906 12.0851 3.15906H39.9147C40.782 3.15906 41.4917 3.86873 41.4917 4.73607C41.4917 5.60341 40.7821 6.31308 39.9147 6.31308Z" fill="#1950C9"/>
<path d="M28.2644 40.6619H25.6538V26.8004L22.1521 28.8103L22.1728 26.1996L26.3789 23.7546H28.2644V40.6619Z" fill="black"/>
<circle cx="26" cy="32" r="17" fill="#1950C9" stroke="white" stroke-width="2"/>
<circle cx="26" cy="32" r="18" fill="#1950C9" stroke="white" stroke-width="2"/>
<circle cx="26" cy="32" r="13.5" fill="#FFF89F" stroke="white"/>
<path d="M27.8711 39H25.127V28.6582C24.1243 29.5957 22.9427 30.2891 21.582 30.7383V28.248C22.2982 28.0137 23.0762 27.571 23.916 26.9199C24.7559 26.2624 25.332 25.4974 25.6445 24.625H27.8711V39Z" fill="black"/>
</svg>