<svg id="组_11" data-name="组 11" xmlns="http://www.w3.org/2000/svg" xmlns:xlink="http://www.w3.org/1999/xlink" width="42" height="20" viewBox="0 0 42 20">
  <metadata><?xpacket begin="﻿" id="W5M0MpCehiHzreSzNTczkc9d"?>
<x:xmpmeta xmlns:x="adobe:ns:meta/" x:xmptk="Adobe XMP Core 5.6-c138 79.159824, 2016/09/14-01:09:01        ">
   <rdf:RDF xmlns:rdf="http://www.w3.org/1999/02/22-rdf-syntax-ns#">
      <rdf:Description rdf:about=""/>
   </rdf:RDF>
</x:xmpmeta>
                                                                                                    
                                                                                                    
                                                                                                    
                                                                                                    
                                                                                                    
                                                                                                    
                                                                                                    
                                                                                                    
                                                                                                    
                                                                                                    
                                                                                                    
                                                                                                    
                                                                                                    
                                                                                                    
                                                                                                    
                                                                                                    
                                                                                                    
                                                                                                    
                                                                                                    
                                                                                                    
                           
<?xpacket end="w"?></metadata>
<defs>
    <style>
      .cls-1, .cls-2 {
        fill-rule: evenodd;
      }

      .cls-1 {
        fill: url(#linear-gradient);
      }

      .cls-2 {
        fill: #fff;
      }
    </style>
    <linearGradient id="linear-gradient" x1="5027" y1="1531" x2="5069" y2="1531" gradientUnits="userSpaceOnUse">
      <stop offset="0" stop-color="#bc00ef"/>
      <stop offset="1" stop-color="#1f00a4"/>
    </linearGradient>
  </defs>
  <path id="圆角矩形_1131_拷贝" data-name="圆角矩形 1131 拷贝" class="cls-1" d="M5034,1521h31.5a3.552,3.552,0,0,1,3.5,3.6v12.8a3.552,3.552,0,0,1-3.5,3.6H5034a3.552,3.552,0,0,1-3.5-3.6l-3.5-7,3.5-5.8A3.552,3.552,0,0,1,5034,1521Z" transform="translate(-5027 -1521)"/>
  <path id="HOT_拷贝" data-name="HOT 拷贝" class="cls-2" d="M5060.36,1526.88v8.04h-1.17v-8.04h-2.61v-1.04h6.4v1.04h-2.62Zm-8.96,8.19a4,4,0,0,1-3.1-1.27,4.7,4.7,0,0,1-1.17-3.31,5,5,0,0,1,1.19-3.5,4.153,4.153,0,0,1,3.22-1.3,3.9,3.9,0,0,1,3.05,1.27,4.738,4.738,0,0,1,1.16,3.31,5.025,5.025,0,0,1-1.19,3.51A4.079,4.079,0,0,1,5051.4,1535.07Zm2.3-7.37a2.757,2.757,0,0,0-2.23-.96,2.842,2.842,0,0,0-2.25,1.01,4.525,4.525,0,0,0-.02,5.28,2.734,2.734,0,0,0,2.2,1,2.871,2.871,0,0,0,2.28-.95,3.969,3.969,0,0,0,.83-2.67A4.078,4.078,0,0,0,5053.7,1527.7Zm-9.5,3.13h-4.59v4.09h-1.17v-9.08h1.17v3.95h4.59v-3.95h1.18v9.08h-1.18v-4.09Z" transform="translate(-5027 -1521)"/>
</svg>
