<svg id="组_10" data-name="组 10" xmlns="http://www.w3.org/2000/svg" width="19.47" height="19" viewBox="0 0 19.47 19">
  <metadata><?xpacket begin="﻿" id="W5M0MpCehiHzreSzNTczkc9d"?>
<x:xmpmeta xmlns:x="adobe:ns:meta/" x:xmptk="Adobe XMP Core 5.6-c138 79.159824, 2016/09/14-01:09:01        ">
   <rdf:RDF xmlns:rdf="http://www.w3.org/1999/02/22-rdf-syntax-ns#">
      <rdf:Description rdf:about=""/>
   </rdf:RDF>
</x:xmpmeta>
                                                                                                    
                                                                                                    
                                                                                                    
                                                                                                    
                                                                                                    
                                                                                                    
                                                                                                    
                                                                                                    
                                                                                                    
                                                                                                    
                                                                                                    
                                                                                                    
                                                                                                    
                                                                                                    
                                                                                                    
                                                                                                    
                                                                                                    
                                                                                                    
                                                                                                    
                                                                                                    
                           
<?xpacket end="w"?></metadata>
<defs>
    <style>
      .cls-1 {
        fill: #e7ecf6;
      }

      .cls-1, .cls-2 {
        fill-rule: evenodd;
      }

      .cls-2 {
        fill: #a1a5ac;
      }
    </style>
  </defs>
  <path id="椭圆_1115_拷贝_5" data-name="椭圆 1115 拷贝 5" class="cls-1" d="M5992.27,2325a9.5,9.5,0,1,1-9.72,9.5A9.611,9.611,0,0,1,5992.27,2325Z" transform="translate(-5982.53 -2325)"/>
  <path id="形状_27" data-name="形状 27" class="cls-2" d="M5995.42,2338h-6.84a0.577,0.577,0,0,1-.58-0.56v-4.51a0.577,0.577,0,0,1,.58-0.56h0.56v-0.56a2.86,2.86,0,0,1,5.72,0v0.56h0.56a0.577,0.577,0,0,1,.58.56v4.51A0.57,0.57,0,0,1,5995.42,2338Zm-3.82-2.91v1.36a0.433,0.433,0,0,0,.43.43,0.427,0.427,0,0,0,.43-0.43v-1.39A0.864,0.864,0,1,0,5991.6,2335.09Zm0.4-4.97a1.7,1.7,0,0,0-1.71,1.69v0.56h3.42v-0.56A1.7,1.7,0,0,0,5992,2330.12Z" transform="translate(-5982.53 -2325)"/>
</svg>
