<svg xmlns="http://www.w3.org/2000/svg" width="16" height="16" viewBox="0 0 16 16" fill="none">
    <path d="M7.99979 0C3.58154 0 0 3.58156 0 8.00002C0 12.4185 3.58154 16 7.99979 16C12.4185 16 16 12.4185 16 8.00002C16 3.58156 12.4185 0 7.99979 0ZM9.73952 11.4545C9.92961 11.6436 9.94851 11.9305 9.78273 12.0958C9.61653 12.261 9.32735 12.2417 9.13729 12.0531L5.41668 8.37696C5.30889 8.26965 5.2579 8.13155 5.26281 8.00162C5.25706 7.87052 5.30809 7.73117 5.4163 7.62306L9.13729 3.94697C9.32735 3.75788 9.61613 3.73896 9.78273 3.90422C9.94851 4.06946 9.92963 4.35639 9.73952 4.54546L6.24153 8.00002L9.73952 11.4545Z" fill="#1950C9"/>
</svg>