<?xml version="1.0" encoding="utf-8"?>
<!-- Generator: Adobe Illustrator 19.0.0, SVG Export Plug-In . SVG Version: 6.00 Build 0)  -->
<svg version="1.1" id="图层_1" xmlns="http://www.w3.org/2000/svg" xmlns:xlink="http://www.w3.org/1999/xlink" x="0px" y="0px"
	 viewBox="0 0 594 568.5" style="enable-background:new 0 0 594 568.5;" xml:space="preserve">
<style type="text/css">
	.st0{clip-path:url(#SVGID_2_);fill:#F0F7FF;}
	.st1{fill:#C8C8CC;}
	.st2{fill:#FFFFFF;}
	.st3{clip-path:url(#SVGID_4_);fill:#C8C8CC;}
	.st4{fill:#D8EAFF;}
	.st5{clip-path:url(#SVGID_6_);fill:#D8EAFF;}
	.st6{clip-path:url(#SVGID_6_);fill:#C8C8CC;}
</style>
<g>
	<defs>
		<rect id="SVGID_1_" x="46.3" y="32" width="514.4" height="490.4"/>
	</defs>
	<clipPath id="SVGID_2_">
		<use xlink:href="#SVGID_1_"  style="overflow:visible;"/>
	</clipPath>
	<path class="st0" d="M197.8,88.9l-43.2-43c-2-2-2.8-4.9-2.1-7.7c0.7-2.8,2.9-4.9,5.7-5.6c2.8-0.7,5.7,0.1,7.7,2.1l33.6,33.5
		c87-41.8,194.6-26.8,266.7,45.1c72.2,71.9,87.2,179.2,45.3,265.9l31.7,31.6c2,2,2.8,4.9,2.1,7.7c-0.7,2.8-2.9,4.9-5.7,5.6
		c-2.8,0.7-5.7-0.1-7.7-2.1l-41.3-41.2c-3.3-3.4-8.3-4.8-12.9-3.6c-4.6,1.2-8.2,4.8-9.5,9.4c-1.2,4.6,0.1,9.5,3.6,12.8l37.5,37.4
		c3.4,3.3,4.8,8.2,3.6,12.9c-1.2,4.6-4.8,8.2-9.5,9.4c-4.6,1.2-9.6-0.2-12.9-3.6l-28.2-28.1l-9.3-9.3c-5.4-5.4-13.2-7.5-20.6-5.6
		c-7.4,1.9-13.1,7.7-15.1,15c-2,7.3,0.2,15.2,5.6,20.5l31.9,31.8c5.4,5.3,7.6,13.2,5.6,20.5c-2,7.3-7.7,13.1-15.1,15
		c-7.4,2-15.2-0.2-20.6-5.6l-22.3-22.2c-87,41.8-194.6,26.8-266.7-45.1c-72.2-71.9-87.2-179.2-45.3-265.9l-24.2-24.1
		c-8.2-8.3-8.2-21.6,0.1-29.8c8.3-8.2,21.6-8.3,29.9-0.1l24.4,24.3c5.4,5.3,13.2,7.4,20.5,5.5c7.3-1.9,13-7.7,15-15
		c2-7.3-0.1-15.1-5.5-20.4l-4.6-4.6L120.8,87c-3.4-3.3-4.7-8.2-3.5-12.8c1.2-4.6,4.8-8.2,9.4-9.4c4.6-1.2,9.5,0.1,12.8,3.5
		l30.9,30.8l8.5,8.5c3.3,3.4,8.3,4.8,12.9,3.6c4.6-1.2,8.2-4.8,9.5-9.4C202.5,97.1,201.2,92.2,197.8,88.9L197.8,88.9z M197.8,88.9"
		/>
</g>
<path class="st1" d="M224,517.6c1.7,0,2.6,0.6,2.7,1.9l0,0.2c0,1.4-0.9,2.1-2.7,2.1H114.6c-1.7,0-2.6-0.6-2.7-1.9l0-0.2
	c0-1.4,0.9-2.1,2.7-2.1H224z M464.5,517.6c1.7,0,2.6,0.6,2.6,1.9l0,0.2c0,1.4-0.9,2.1-2.7,2.1H286.7c-1.7,0-2.6-0.6-2.6-1.9l0-0.2
	c0-1.4,0.9-2.1,2.7-2.1H464.5z M314.9,489.6c1.7,0,2.6,0.6,2.6,1.9l0,0.2c0,1.4-0.9,2.1-2.7,2.1h-122c-1.7,0-2.6-0.6-2.6-1.9l0-0.2
	c0-1.4,0.9-2.1,2.7-2.1H314.9z M431,489.6c1.7,0,2.6,0.6,2.7,1.9l0,0.2c0,1.4-0.9,2.1-2.7,2.1h-77.2c-1.7,0-2.6-0.6-2.7-1.9l0-0.2
	c0-1.4,0.9-2.1,2.7-2.1H431z M335.7,489.6c1.8,0,2.7,0.6,2.8,1.9l0,0.2c0,1.4-0.9,2.1-2.8,2.1h-5.6c-1.8,0-2.7-0.6-2.8-1.9l0-0.2
	c0-1.4,0.9-2.1,2.8-2.1H335.7z M465.9,460.2c1.7,0,2.6,0.6,2.6,1.9l0,0.2c0,1.4-0.9,2.1-2.7,2.1H110.4c-1.7,0-2.6-0.6-2.6-1.9l0-0.2
	c0-1.4,0.9-2.1,2.7-2.1H465.9z M498.1,460.2c1.7,0,2.5,0.6,2.6,1.9l0,0.2c0,1.4-0.9,2.1-2.6,2.1h-18.5c-1.7,0-2.5-0.6-2.6-1.9l0-0.2
	c0-1.4,0.9-2.1,2.6-2.1H498.1z M498.1,460.2"/>
<path class="st2" d="M514.4,242.3c0,6.2,4.5,11.6,10.6,12.7c6.2,1.1,12.2-2.4,14.3-8.3c2.1-5.9-0.2-12.4-5.7-15.5
	c-4-2.3-8.9-2.3-12.9,0C516.9,233.5,514.4,237.7,514.4,242.3L514.4,242.3z M514.4,242.3"/>
<path class="st1" d="M519.8,229.4c4.6-2.7,10.3-2.7,15,0c4.6,2.7,7.5,7.6,7.5,13c0,7.3-5.2,13.5-12.4,14.7
	c-7.2,1.3-14.2-2.8-16.7-9.6C510.8,240.6,513.5,233,519.8,229.4L519.8,229.4z M532.7,233c-3.3-1.9-7.4-1.9-10.8,0
	c-3.3,1.9-5.4,5.5-5.4,9.3c0,5.2,3.8,9.7,8.9,10.6c5.1,0.9,10.2-2,12-6.9C539.2,241.1,537.2,235.6,532.7,233L532.7,233z M532.7,233"
	/>
<path class="st2" d="M84,270.9c0,9.5,7.7,17.2,17.2,17.2c9.5,0,17.2-7.7,17.2-17.2c0-9.5-7.7-17.2-17.2-17.2
	C91.7,253.8,84,261.5,84,270.9L84,270.9z M84,270.9"/>
<g>
	<defs>
		<rect id="SVGID_3_" x="46.3" y="32" width="514.4" height="490.4"/>
	</defs>
	<clipPath id="SVGID_4_">
		<use xlink:href="#SVGID_3_"  style="overflow:visible;"/>
	</clipPath>
	<path class="st3" d="M91.5,254.3c6-3.4,13.3-3.4,19.3,0c6,3.4,9.6,9.8,9.6,16.7c0,10.6-8.6,19.3-19.3,19.3
		c-10.6,0-19.3-8.6-19.3-19.3C81.9,264.1,85.6,257.7,91.5,254.3L91.5,254.3z M108.7,257.9c-4.7-2.7-10.4-2.7-15.1,0
		c-4.7,2.7-7.5,7.7-7.5,13c0,8.3,6.7,15.1,15.1,15.1c8.3,0,15.1-6.7,15.1-15.1C116.2,265.6,113.4,260.6,108.7,257.9L108.7,257.9z
		 M486.4,339.8c0,2.3,0.9,4.4,2.5,6c1.6,1.6,3.8,2.5,6,2.5c3,0,5.8-1.6,7.4-4.3c1.5-2.6,1.5-5.9,0-8.5c-1.5-2.6-4.3-4.3-7.4-4.3
		c-2.3,0-4.4,0.9-6,2.5C487.3,335.4,486.4,337.5,486.4,339.8L486.4,339.8z M486.4,339.8"/>
	<path class="st3" d="M441.1,32.3c1.7,0,3,1.4,3,3v9.8h9.8c1.7,0,3,1.4,3,3c0,1.7-1.4,3-3,3h-9.8V61c0,1.1-0.6,2.1-1.5,2.6
		c-0.9,0.5-2.1,0.5-3,0c-0.9-0.5-1.5-1.5-1.5-2.6v-9.8h-9.8c-1.6,0-3-1.4-3-3c0-1.6,1.3-3,3-3h9.8v-9.8
		C438.1,33.6,439.5,32.3,441.1,32.3L441.1,32.3z M70,363c1.9,0,3.5,1.6,3.5,3.5v14.6h14.7c1.9,0,3.5,1.6,3.5,3.5v2.1
		c0,1.9-1.6,3.5-3.5,3.5H73.5v14.6c0,1.9-1.6,3.5-3.5,3.5h-2.1c-1.9,0-3.5-1.6-3.5-3.5v-14.6H49.7c-1.9,0-3.5-1.6-3.5-3.5v-2.1
		c0-1.9,1.6-3.5,3.5-3.5h14.7v-14.6c0-1.9,1.6-3.5,3.5-3.5H70z M70,363"/>
</g>
<path class="st4" d="M131,253.4c0,81.8,66.7,148.1,149,148.1c82.3,0,149-66.3,149-148.1c0-81.8-66.7-148.1-149-148.1
	C197.7,105.2,131,171.5,131,253.4L131,253.4z M131,253.4"/>
<path class="st1" d="M279.3,404.5c83.5,0,151.2-67.7,151.2-151.2c0-83.5-67.7-151.2-151.2-151.2c-83.5,0-151.2,67.7-151.2,151.2
	C128,336.8,195.7,404.5,279.3,404.5L279.3,404.5z M279.3,398.8c-80.4,0-145.5-65.1-145.5-145.4s65.1-145.4,145.5-145.4
	c80.4,0,145.5,65.1,145.5,145.4C424.8,333.7,359.6,398.8,279.3,398.8L279.3,398.8z M279.3,398.8"/>
<path class="st2" d="M325.6,343.5c-3.7-8.9-15.7-24.1-35.9-45.2c-5.4-5.6-5-10-3.1-22.8l0.2-1.4c1.3-8.8,3.5-14,33.2-18.7
	c15.1-2.4,19.1,3.6,24.6,12c0.6,0.9,1.2,1.8,1.8,2.7c5.2,7.6,9.1,9.4,15,12c2.6,1.2,5.9,2.7,10.3,5.2c10.4,5.9,10.4,12.6,10.4,27.3
	v1.7c0,23.4-8.6,36.1-12,40.1c-13,11.2-28,19.8-44.2,25.5C334,366.7,327.8,348.8,325.6,343.5L325.6,343.5z M280.7,117.3
	c20.5,0,40.6,4.6,59,13.5c-9.8,6.3-23.9,16-29.8,24.1c-2.2,3-4,5.8-5.7,8.4c-5.7,8.6-8.4,12.4-13.6,13.1c-2.6,0.3-6.1,0.1-9.8-0.1
	c-9.9-0.6-23.4-1.5-27.7,10.3c-2.7,7.5-3.2,27.9,5.7,38.4c1.4,1.7,1.7,4.8,0.7,8.3c-1.3,4.6-3.8,7.4-4.6,8c-1.5-0.9-4.6-4.5-6.7-6.9
	c-5-5.8-11.2-13.1-19.3-15.4c-2.9-0.8-6.1-1.5-9.3-2.2c-8.7-1.8-18.6-3.9-20.9-8.9c-1.7-3.6-1.7-8.6-1.7-13.9c0-6.7,0-14.2-3.2-21.5
	c-2.8-6.4-7.8-9.8-13-11.5C205.9,134.2,241.4,117.3,280.7,117.3L280.7,117.3L280.7,117.3z M280.7,117.3"/>
<path class="st1" d="M136.1,292.2c-59.7,84-43.5,114.9,46.9,87.5c87.9-26.7,177-83.5,267.1-170.6l-4-4.1
	c-89.6,86.5-177.8,142.9-264.8,169.2c-84.5,25.6-97.4,1.2-40.5-78.8L136.1,292.2L136.1,292.2z M136.1,292.2"/>
<g>
	<defs>
		<rect id="SVGID_5_" x="46.3" y="32" width="514.4" height="490.4"/>
	</defs>
	<clipPath id="SVGID_6_">
		<use xlink:href="#SVGID_5_"  style="overflow:visible;"/>
	</clipPath>
	<path class="st5" d="M537,96.3c-10.2-10-35.6-0.2-59.1,22.8c-3.1,3.1-6.1,6.3-8.9,9.7l0-0.1l-32.3,9.6l18.6,18.3l20.4,20.1
		l18.6,18.3l9.8-31.7l-0.1,0c3.4-2.8,6.7-5.7,9.8-8.8C537.3,131.4,547.2,106.4,537,96.3L537,96.3z M463.2,169.2
		c-0.4-0.4-0.8-0.7-1.2-1.1c-3.2-2.5-7.4-3.3-11.5-2.3c-4.3,1.1-7.8,4.1-9.5,8.2l-7.3,24.2l24.3-7.1l0.3-0.1
		c4.1-1.7,7.2-5.1,8.3-9.4c1.1-4,0.2-8.1-2.3-11.3C463.9,169.9,463.6,169.5,463.2,169.2L463.2,169.2z M463.2,169.2"/>
	<path class="st6" d="M470,165.8c4.1-1.1,8.3-0.2,11.5,2.3c0.4,0.3,0.9,0.7,1.2,1.1c0.4,0.4,0.7,0.8,1.1,1.2
		c2.5,3.2,3.4,7.3,2.3,11.3c-1.1,4.2-4.2,7.7-8.3,9.4l-0.3,0.1l-24.3,7.1l7.3-24.2C462.2,169.9,465.7,166.9,470,165.8L470,165.8z
		 M497.5,119.2c23.5-23.1,48.9-32.9,59.1-22.8c10.2,10.1,0.2,35-23.2,58.1c-3.1,3.1-6.4,6-9.8,8.8l0.1,0l-9.8,31.7l-18.6-18.3
		l-20.4-20.1l-18.6-18.3l32.3-9.6l0,0.1C491.4,125.5,494.4,122.3,497.5,119.2L497.5,119.2z M477.2,173.6c-2-1.6-4.2-1.3-5.3-1
		c-2.1,0.5-3.8,2-4.7,3.9l-3.4,11.4l11.6-3.4c2-0.8,3.4-2.5,4-4.6c0.3-1.1,0.6-3.2-1-5.2C478,174.3,477.6,173.9,477.2,173.6
		L477.2,173.6z M514.1,170.1c-3.1,2.1-6.4,4-9.8,5.6l6.2,6.1L514.1,170.1z M551.6,101.3c-6.1-6-27.8,1.9-49.1,22.8
		c-9.6,9.4-17.1,19.5-21.4,28.8l17.9,17.6c9.4-4.2,19.9-11.8,29.3-21C549.7,128.6,557.7,107.3,551.6,101.3L551.6,101.3z
		 M481.5,138.1l-11.9,3.5l6.2,6.1C477.5,144.4,479.4,141.2,481.5,138.1L481.5,138.1z M519.8,118.1c3.2,0,6.3,1.3,8.6,3.5
		c2.3,2.3,3.5,5.3,3.5,8.6c0,3.2-1.3,6.3-3.5,8.6c-2.3,2.3-5.3,3.6-8.6,3.5c-3.2,0-6.3-1.3-8.6-3.5c-2.3-2.3-3.6-5.3-3.5-8.6
		c0-3.2,1.3-6.3,3.5-8.6C513.5,119.4,516.6,118.1,519.8,118.1L519.8,118.1z M519.8,124.9L519.8,124.9c-1.4,0-2.7,0.6-3.7,1.5
		c-1,1-1.5,2.3-1.5,3.7c0,1.4,0.6,2.7,1.5,3.8c2,2,5.5,2,7.5,0c1-1,1.6-2.3,1.5-3.8c0-1.4-0.6-2.8-1.5-3.8
		C522.5,125.4,521.2,124.9,519.8,124.9L519.8,124.9z M519.8,124.9"/>
</g>
</svg>
