<svg xmlns="http://www.w3.org/2000/svg" width="18" height="18" viewBox="0 0 18 18" fill="none">
    <g clip-path="url(#clip0_1774_2446)">
        <path d="M9 18C4.02947 18 0 13.9705 0 9C0 4.02947 4.02947 0 9 0C13.9705 0 18 4.02947 18 9C18 13.9705 13.9705 18 9 18ZM9.84375 4.21875C9.84375 3.75272 9.46603 3.375 9 3.375C8.53397 3.375 8.15625 3.75272 8.15625 4.21875V10.4062C8.15625 10.8723 8.53397 11.25 9 11.25C9.46603 11.25 9.84375 10.8723 9.84375 10.4062V4.21875ZM9 12.9375C8.53397 12.9375 8.15625 13.3152 8.15625 13.7812C8.15625 14.2473 8.53397 14.625 9 14.625C9.46603 14.625 9.84375 14.2473 9.84375 13.7812C9.84375 13.3152 9.46603 12.9375 9 12.9375Z" fill="#D13030"/>
    </g>
    <defs>
        <clipPath id="clip0_1774_2446">
        <rect width="18" height="18" fill="white"/>
        </clipPath>
    </defs>
</svg>