<svg xmlns="http://www.w3.org/2000/svg" width="13" height="13" viewBox="0 0 13 13" fill="none">
<mask id="mask0_1460_145" style="mask-type:luminance" maskUnits="userSpaceOnUse" x="0" y="0" width="12" height="12">
<path fill-rule="evenodd" clip-rule="evenodd" d="M0 0H11.9353V11.9896H0V0Z" fill="white"/>
</mask>
<g mask="url(#mask0_1460_145)">
<path fill-rule="evenodd" clip-rule="evenodd" d="M5.95137 1.0662C4.68925 1.0662 3.42723 1.54494 2.46976 2.5024C0.554916 4.41725 0.554916 7.5942 2.46976 9.50905C4.38461 11.4239 7.56156 11.4239 9.47649 9.50905C11.3913 7.5942 11.3913 4.41725 9.47649 2.5024C8.51903 1.54494 7.21348 1.0662 5.95137 1.0662ZM5.95137 11.9897C4.42821 11.9897 2.90497 11.4239 1.7299 10.2489C-0.576634 7.89885 -0.576634 4.1126 1.7299 1.76254C4.07996 -0.587514 7.86621 -0.587514 10.1727 1.76254C12.5229 4.1126 12.5229 7.89885 10.1727 10.2054C9.0412 11.3804 7.47452 11.9897 5.95137 11.9897Z" fill="#B1B5BE"/>
</g>
<path fill-rule="evenodd" clip-rule="evenodd" d="M12.0186 12.7974L10.1667 10.9625C9.94444 10.7423 9.94444 10.3753 10.1667 10.1551C10.3889 9.93494 10.7593 9.93494 10.9815 10.1551L12.8333 11.99C13.0556 12.2102 13.0556 12.5772 12.8333 12.7974C12.6111 13.0542 12.2407 13.0542 12.0185 12.7974H12.0186Z" fill="#B1B5BE"/>
</svg>