<svg xmlns="http://www.w3.org/2000/svg" width="25" height="25" viewBox="0 0 25 25">
  <metadata><?xpacket begin="﻿" id="W5M0MpCehiHzreSzNTczkc9d"?>
<x:xmpmeta xmlns:x="adobe:ns:meta/" x:xmptk="Adobe XMP Core 5.6-c138 79.159824, 2016/09/14-01:09:01        ">
   <rdf:RDF xmlns:rdf="http://www.w3.org/1999/02/22-rdf-syntax-ns#">
      <rdf:Description rdf:about=""/>
   </rdf:RDF>
</x:xmpmeta>
                                                                                                    
                                                                                                    
                                                                                                    
                                                                                                    
                                                                                                    
                                                                                                    
                                                                                                    
                                                                                                    
                                                                                                    
                                                                                                    
                                                                                                    
                                                                                                    
                                                                                                    
                                                                                                    
                                                                                                    
                                                                                                    
                                                                                                    
                                                                                                    
                                                                                                    
                                                                                                    
                           
<?xpacket end="w"?></metadata>
<defs>
    <style>
      .cls-1 {
        fill: #1a4fc9;
        fill-rule: evenodd;
      }
    </style>
  </defs>
  <path id="形状_1043" data-name="形状 1043" class="cls-1" d="M10855.5,1338a12.5,12.5,0,1,1-12.5,12.5,12.5,12.5,0,0,1,12.5-12.5h0Zm-5.9,13.54h8.4l-3.4,3.34a1.119,1.119,0,0,0-.4.74,1.164,1.164,0,0,0,.4.75,1.068,1.068,0,0,0,1.5,0l5.1-4.96a1.031,1.031,0,0,0,.2-0.93,1.017,1.017,0,0,0-.2-0.92l-5.1-4.96a1.068,1.068,0,0,0-1.5,0,1.164,1.164,0,0,0-.4.75,1.142,1.142,0,0,0,.4.74l3.4,3.34h-8.4a1.056,1.056,0,1,0,0,2.11h0Zm0,0" transform="translate(-10843 -1338)"/>
</svg>
