<?xml version="1.0" encoding="UTF-8"?>
<svg width="19px" height="19px" viewBox="0 0 19 19" version="1.1" xmlns="http://www.w3.org/2000/svg" xmlns:xlink="http://www.w3.org/1999/xlink">
    <title>编组 3</title>
    <g id="Filfox" stroke="none" stroke-width="1" fill="none" fill-rule="evenodd">
        <g id="Filfox-首页--banner-英文版" transform="translate(-1774.000000, -358.000000)">
            <g id="编组-4" transform="translate(1566.000000, 265.000000)">
                <g id="编组-3" transform="translate(208.000000, 93.000000)">
                    <g id="Android" transform="translate(1.427370, 1.900105)" fill="#FFFFFF" fill-rule="nonzero">
                        <path d="M14.6580808,5.54707188 C14.9123374,5.54707188 15.1278983,5.62723553 15.3048013,5.78752486 C15.4816474,5.9477952 15.5701085,6.14402714 15.5701085,6.37614476 L15.5701085,11.2677033 C15.5701085,11.4887894 15.4816664,11.6794961 15.3048013,11.8397854 C15.1279173,12.0000368 14.9123374,12.0801814 14.6580808,12.0801814 L14.3596222,12.0801814 C14.1053656,12.0801814 13.8898047,12.0000368 13.7129396,11.8397854 C13.5360935,11.6795151 13.4476325,11.4887894 13.4476325,11.2677033 L13.4476325,6.37614476 C13.4476325,6.14400814 13.5360745,5.9477762 13.7129396,5.78752486 C13.8897857,5.62723553 14.1053656,5.54707188 14.3596222,5.54707188 L14.6580808,5.54707188 L14.6580808,5.54707188 Z M1.21044833,5.54707188 C1.46470493,5.54707188 1.67474053,5.62723553 1.84055512,5.78752486 C2.0063697,5.9477952 2.08930548,6.14402714 2.08930548,6.37614476 L2.08930548,11.2677033 C2.08930548,11.4887894 2.0063887,11.6794961 1.84055512,11.8397854 C1.67474055,12.0000368 1.46470495,12.0801814 1.21044833,12.0801814 L0.911989684,12.0801814 C0.657733075,12.0801814 0.442172212,12.0000368 0.265307131,11.8397854 C0.0884420498,11.6795151 0,11.4887894 0,11.2677033 L0,6.37614476 C0,6.14400814 0.0884420313,5.9477762 0.265307131,5.78752486 C0.442172212,5.62723553 0.657733075,5.54707188 0.911989684,5.54707188 L1.21044833,5.54707188 L1.21044833,5.54707188 Z M10.3634776,1.70014709 C10.5624627,1.78858912 10.7697261,1.91018268 10.985306,2.06494676 C11.2008478,2.21969185 11.4081113,2.40210116 11.6070964,2.61213676 C11.8060815,2.82217235 11.9801934,3.05155582 12.1294322,3.3002872 C12.2786521,3.54899957 12.386461,3.81155356 12.452764,4.08791119 L3.03440867,4.08791119 C3.21129276,3.50202541 3.49040352,3.02115744 3.87177894,2.64528827 C4.25317336,2.2694381 4.63730191,1.97097946 5.02422158,1.74989334 L4.17853496,0.423357723 C4.15641495,0.401256715 4.15366183,0.359807807 4.17023758,0.299011036 C4.18681334,0.238214264 4.24485698,0.174664348 4.34434954,0.108342306 C4.43279157,0.0309507787 4.51567038,-0.00497285902 4.59306191,0.000552392932 C4.67043446,0.00609662633 4.72019971,0.0199002748 4.74228173,0.0420202826 L5.60454411,1.40170741 C5.91405326,1.25801284 6.24015716,1.1474508 6.58283684,1.07007826 C6.9255355,0.99268673 7.27926566,0.954009948 7.64404634,0.954009948 C8.39574668,0.954009948 9.09771975,1.10877402 9.74990856,1.41830215 L10.6286897,0.042039264 C10.6508287,0.0199192562 10.6922966,0.00886875231 10.7531124,0.00886875231 C10.8138902,0.00886875231 10.9051233,0.042039264 11.0266789,0.108380287 C11.137222,0.163651807 11.2007909,0.213379093 11.2174046,0.257619109 C11.2339424,0.301840124 11.2312083,0.334991655 11.2090883,0.357092662 L10.3634776,1.70014709 L10.3634776,1.70014709 Z M5.73720718,3.12617524 C5.88090175,3.12617524 6.00251431,3.07640998 6.10200684,2.97693642 C6.2014804,2.87744389 6.25124566,2.75585033 6.25124566,2.61213676 C6.25124566,2.46844219 6.2014804,2.34682963 6.10200684,2.24735607 C6.00251431,2.14784454 5.88090175,2.09811725 5.73720718,2.09811725 C5.59351261,2.09811725 5.47191905,2.14784454 5.37240751,2.24735607 C5.27291498,2.34682963 5.22316869,2.46844217 5.22316869,2.61213676 C5.22316869,2.75585033 5.27291496,2.87746287 5.37240751,2.97693642 C5.47191905,3.07640998 5.59351261,3.12617524 5.73720718,3.12617524 L5.73720718,3.12617524 Z M9.81628756,3.05981524 C9.95998213,3.05981524 10.0815947,3.01008795 10.1810872,2.91059542 C10.2805418,2.81110288 10.3303071,2.68949032 10.3303071,2.54581473 C10.3303071,2.40210116 10.2805418,2.2805076 10.1810872,2.18099609 C10.0815947,2.08152253 9.95998213,2.03177626 9.81628756,2.03177626 C9.67255501,2.03177626 9.55098043,2.08152253 9.4514879,2.18099609 C9.35199536,2.28050762 9.30226808,2.40210118 9.30226808,2.54581473 C9.30226808,2.68949032 9.35199536,2.81110286 9.4514879,2.91059542 C9.55099943,3.01008795 9.67255501,3.05981524 9.81628756,3.05981524 L9.81628756,3.05981524 Z M12.452764,5.13252593 L12.4693398,12.5942579 C12.4693398,12.837445 12.3891951,13.0419553 12.2289248,13.2077699 C12.0686165,13.3735845 11.8724035,13.4565013 11.6402859,13.4565013 L11.4080923,13.4565013 L11.4080923,15.7779244 C11.4080923,15.9990105 11.3279477,16.1924513 11.1676773,16.3582659 C11.007369,16.5240805 10.811156,16.6069783 10.5790384,16.6069783 L10.0981704,16.6069783 C9.87706533,16.6069783 9.68641561,16.5240994 9.5261073,16.3582659 C9.36583696,16.1924513 9.2856923,15.9989915 9.2856923,15.7779244 L9.2856923,13.4564823 L6.23468889,13.4564823 L6.23468889,15.7779054 C6.23468889,15.9989915 6.15450625,16.1924323 5.99423591,16.3582469 C5.83396557,16.5240615 5.63773362,16.6069783 5.405597,16.6069783 L4.92472903,16.6069783 C4.70364293,16.6069783 4.51293622,16.5240805 4.3526659,16.3582469 C4.19237657,16.1924323 4.11221292,15.9989725 4.11221292,15.7779054 L4.11221294,13.4564823 L3.9298226,13.4564823 C3.69768598,13.4564823 3.50147302,13.3735845 3.3411837,13.2077509 C3.18091335,13.0419553 3.10076868,12.837426 3.10076868,12.5942389 L3.10076868,5.13252593 L12.452745,5.13252593 L12.452764,5.13252593 L12.452764,5.13252593 Z" id="形状"></path>
                    </g>
                    <rect id="矩形" x="0" y="0" width="19" height="19"></rect>
                </g>
            </g>
        </g>
    </g>
</svg>