<?xml version="1.0" encoding="UTF-8"?>
<svg width="16px" height="16px" viewBox="0 0 16 16" version="1.1" xmlns="http://www.w3.org/2000/svg" xmlns:xlink="http://www.w3.org/1999/xlink">
    <title>googleplay</title>
    <g id="web端" stroke="none" stroke-width="1" fill="none" fill-rule="evenodd">
        <g id="Filfox-首页--banner-英文版" transform="translate(-1694.000000, -400.000000)" fill="#FFFFFF" fill-rule="nonzero">
            <g id="编组-4" transform="translate(1566.000000, 265.000000)">
                <g id="googleplay" transform="translate(128.000000, 135.000000)">
                    <rect id="矩形" opacity="0" x="0" y="0" width="16" height="16"></rect>
                    <path d="M0.813333328,0 C0.793333328,0.062 0.773333328,0.123333328 0.773333328,0.205333328 L0.773333328,15.6913333 C0.773333328,15.836 0.814,15.918 0.896,16 L8.506,7.938 L0.813333328,0 Z M9.01933333,8.472 L10.9866667,10.502 L8.178,12.102 C8.178,12.102 4.608,14.1313333 2.63933333,15.2613333 L9.01933333,8.472 L9.01933333,8.472 Z M9.55333333,7.918 L11.664,10.1126667 C11.9946667,9.92866667 14.578,8.45133334 14.9466667,8.246 C15.336,8.02066667 15.2966667,7.71266667 14.966,7.54866667 C14.66,7.37866667 12.0766667,5.89866667 11.686,5.65866667 L9.55066667,7.92 L9.55333333,7.918 L9.55333333,7.918 Z M9.018,7.38466667 L11.0073333,5.272 L8.168,3.65133333 C8.168,3.65133333 3.53933333,1.00333333 1.99933333,0.119333328 L9.01933333,7.38466667 L9.018,7.38466667 L9.018,7.38466667 Z" id="形状"></path>
                </g>
            </g>
        </g>
    </g>
</svg>