<?xml version="1.0" encoding="UTF-8"?>
<svg width="19px" height="19px" viewBox="0 0 19 19" version="1.1" xmlns="http://www.w3.org/2000/svg" xmlns:xlink="http://www.w3.org/1999/xlink">
    <title>编组 2</title>
    <g id="Filfox" stroke="none" stroke-width="1" fill="none" fill-rule="evenodd">
        <g id="Filfox-首页--banner-英文版" transform="translate(-1686.000000, -358.000000)">
            <g id="编组-4" transform="translate(1566.000000, 265.000000)">
                <g id="编组-2" transform="translate(120.000000, 93.000000)">
                    <g id="iOS" transform="translate(2.868501, 0.950000)" fill="#FFFFFF" fill-rule="nonzero">
                        <path d="M10.0041146,0 C9.17818825,0.0330370526 8.15403962,0.561629894 7.55937267,1.255408 C7.03077983,1.883112 6.56826109,2.87422358 6.7004093,3.79926105 C7.62544678,3.86533515 8.5835213,3.33674231 9.1451512,2.64296421 C9.73981814,1.9491861 10.1362628,0.958074525 10.0041146,0 Z M9.70678109,3.99748336 C8.5174472,3.99748336 7.46026151,4.75733557 6.83255751,4.75733557 C6.17181646,4.75733557 5.18070488,4.03052042 4.09048215,4.03052042 C2.70292594,4.06355747 1.38144383,4.85644673 0.68766573,6.11185473 C-0.765964584,8.62267073 0.324258151,12.3888947 1.74485141,14.437192 C2.43862952,15.4283036 3.26455583,16.5846004 4.35477857,16.5185263 C5.41196425,16.4854892 5.80840888,15.8247482 7.06381688,15.8247482 C8.31922488,15.8247482 8.68263246,16.5185263 9.80589225,16.4854892 C10.929152,16.4524522 11.6559672,15.4613406 12.3497453,14.470229 C13.1426346,13.3139322 13.4730051,12.1906724 13.5060421,12.1245983 C13.4730051,12.1245983 11.3255967,11.298672 11.2925596,8.78785599 C11.2595226,6.70652168 13.0104863,5.68237305 13.0765605,5.64933599 C12.1184859,4.22874273 10.5987815,4.03052042 10.0371516,3.99748336 L9.70678109,3.99748336 Z" id="形状"></path>
                    </g>
                    <rect id="矩形" x="0" y="0" width="19" height="19"></rect>
                </g>
            </g>
        </g>
    </g>
</svg>