<?xml version="1.0" encoding="UTF-8"?>
<svg width="30px" height="30px" viewBox="0 0 30 30" version="1.1" xmlns="http://www.w3.org/2000/svg" xmlns:xlink="http://www.w3.org/1999/xlink">
    <title>数据</title>
    <g id="Filfox" stroke="none" stroke-width="1" fill="none" fill-rule="evenodd">
        <g id="Filfox--监控账户变动-详情" transform="translate(-713.000000, -263.000000)" fill="#000000" fill-rule="nonzero">
            <g id="数据" transform="translate(713.000000, 263.000000)">
                <rect id="矩形" opacity="0" x="0" y="0" width="30" height="30"></rect>
                <path d="M18.1428606,21.2851142 L19.7143032,21.2851142 L19.7216924,25.9882573 L18.1428606,26 L18.1428606,21.2851142 Z M21.2857213,22.8611156 L22.8571639,22.8553671 L22.8571639,25.9958483 L21.2857213,25.9958483 L21.2857213,22.8611156 Z M24.4285819,19.7148613 L26,19.7148613 L26,25.9958483 L24.4285819,25.9958483 L24.4285819,19.7148613 Z M15,22.8553671 L16.5714426,22.8553671 L16.5714426,26 L15,25.9958483 L15,22.8553671 Z M14.6116625,21.2802255 L13.4978096,20.1709345 L17.9386637,15.7269412 L21.2721704,19.0628227 L24.6094575,15.7231334 L25.7206346,16.8351021 L21.2737906,21.2851142 L17.9402839,17.9492326 L14.6116625,21.2802255 Z M24.4285819,4 L4,4.00191617 L4,24.4335303 L13.4285819,24.4335303 L13.4285819,22.8632774 L5.5714426,22.8643583 L5.57058339,5.57521529 L22.8571394,5.57521529 L22.8571394,13.4417846 L24.4285819,13.4417846 L24.4285819,4 L24.4285819,4 Z M7.14286065,10.2890448 L16.5714426,10.2890448 L16.5714426,8.71879187 L7.14286065,8.71879187 L7.14286065,10.2890448 Z M7.14286065,13.4278309 L15,13.429526 L15,11.8592731 L7.14286065,11.8592731 L7.14286065,13.4278309 L7.14286065,13.4278309 Z M7.14286065,16.580104 L11.8571394,16.580104 L11.8571394,15.0105389 L7.14286065,15.0098511 L7.14286065,16.580104 Z" id="形状"></path>
            </g>
        </g>
    </g>
</svg>