<?xml version="1.0" encoding="UTF-8"?>
<svg width="30px" height="30px" viewBox="0 0 30 30" version="1.1" xmlns="http://www.w3.org/2000/svg" xmlns:xlink="http://www.w3.org/1999/xlink">
    <title>搜索类目</title>
    <g id="Filfox" stroke="none" stroke-width="1" fill="none" fill-rule="evenodd">
        <g id="Filfox--监控账户变动-详情" transform="translate(-844.000000, -263.000000)" fill="#000000" fill-rule="nonzero">
            <g id="搜索类目" transform="translate(844.000000, 263.000000)">
                <rect id="矩形" opacity="0" x="0" y="0" width="30" height="30"></rect>
                <path d="M28.3571309,23.9123131 L24.0383,18.2731396 C25.5703007,16.8116916 26.5328406,14.7656643 26.5328406,12.4878212 C26.5328406,8.07324035 22.9296153,4.48009403 18.5049555,4.48009403 C14.0752562,4.48009403 10.4770704,8.07324035 10.4770704,12.4878212 C10.4770704,16.9024021 14.0802957,20.4955484 18.5049555,20.4955484 C19.9311272,20.4955484 21.2665883,20.1175878 22.4307072,19.4674954 L26.7646565,25.1268268 C26.961196,25.3838401 27.2585251,25.5199059 27.5659332,25.5199059 C27.7775912,25.5199059 27.9942886,25.4543927 28.1706703,25.3132874 C28.6091046,24.9756425 28.6947757,24.3507475 28.3571309,23.9123131 L28.3571309,23.9123131 Z M12.336637,12.4878213 C12.336637,9.096254 15.1033093,6.33966067 18.5049555,6.33966067 C21.9066017,6.33966067 24.673274,9.09625397 24.673274,12.4878213 C24.673274,15.8793886 21.9066017,18.6359819 18.5049555,18.6359819 C15.1033093,18.6359819 12.336637,15.8793885 12.336637,12.4878213 L12.336637,12.4878213 Z M8.45120106,8.46128004 L2.43910632,8.46128004 C1.88476397,8.46128004 1.43625062,8.01276668 1.43625062,7.46346381 C1.43625062,6.91416094 1.88476397,6.46564758 2.43910632,6.46564758 L8.45120106,6.46564758 C9.00554341,6.46564758 9.45405677,6.91416094 9.45405677,7.46346381 C9.45405677,8.01276668 9.00554344,8.46128004 8.45120106,8.46128004 L8.45120106,8.46128004 Z M8.20930623,18.3436922 L2.43910632,18.3436922 C1.88476397,18.3436922 1.43625062,17.8951789 1.43625062,17.345876 C1.43625062,16.7965731 1.88476397,16.3480598 2.43910632,16.3480598 L8.20930623,16.3480598 C8.76364857,16.3480598 9.21216193,16.7965731 9.21216193,17.345876 C9.21216193,17.8951789 8.76364857,18.3436922 8.20930623,18.3436922 L8.20930623,18.3436922 Z M7.02502939,13.3898875 L2.43910632,13.3898875 C1.88476397,13.3898875 1.43625062,12.9413741 1.43625062,12.3870318 C1.43625062,11.8326894 1.88476397,11.3841761 2.43910632,11.3841761 L7.02502939,11.3841761 C7.57937174,11.3841761 8.0278851,11.8326894 8.0278851,12.3870318 C8.02284563,12.9413741 7.57433227,13.3898875 7.02502939,13.3898875 L7.02502939,13.3898875 Z M13.480598,23.4738787 L2.43910632,23.4738787 C1.88476397,23.4738787 1.43625062,23.0253654 1.43625062,22.471023 C1.43625062,21.9166807 1.88476397,21.4681673 2.43910632,21.4681673 L13.480598,21.4681673 C14.0349403,21.4681673 14.4834537,21.9166807 14.4834537,22.471023 C14.4834537,23.0253654 14.0349404,23.4738787 13.480598,23.4738787 L13.480598,23.4738787 Z" id="形状"></path>
            </g>
        </g>
    </g>
</svg>