<?xml version="1.0" encoding="UTF-8"?>
<svg width="30px" height="30px" viewBox="0 0 30 30" version="1.1" xmlns="http://www.w3.org/2000/svg" xmlns:xlink="http://www.w3.org/1999/xlink">
    <title>我的收藏</title>
    <g id="Filfox" stroke="none" stroke-width="1" fill="none" fill-rule="evenodd">
        <g id="Filfox--监控账户变动-详情" transform="translate(-975.000000, -263.000000)" fill="#000000" fill-rule="nonzero">
            <g id="我的收藏" transform="translate(975.000000, 263.000085)">
                <rect id="矩形" opacity="0" x="0" y="0" width="29.999915" height="29.999915"></rect>
                <path d="M14.9853416,22.8667082 L5.13910494,26.9295366 C4.89050647,27.0399236 4.60191756,27.0194623 4.37205584,26.875152 C4.14219412,26.7308416 4.00221456,26.4822418 4,26.2143909 L4,3.94439678 C4.01137386,3.41440953 4.45620777,2.99272221 4.99612595,3.00000803 L25.0038979,3.00000803 C25.5538979,3.00127535 25.9987824,3.42366438 26,3.94439678 L26,26.2143909 C26,26.4747806 25.8618912,26.7171468 25.6333492,26.8611463 C25.402623,27.0049285 25.1153484,27.0304029 24.8621126,26.9295366 L14.9865591,22.8667082 L14.9853416,22.8667082 Z M24.562666,25.3228787 L24.562666,4.97029916 C24.553361,4.63884409 24.2758779,4.37549048 23.9381326,4.37754562 L6.03376812,4.37754562 C5.69553228,4.37481084 5.41728311,4.63835761 5.40796943,4.97029916 L5.40796943,25.3228787 L14.9841002,21.3416359 L24.5614246,25.3228787 L24.562666,25.3228787 Z M14.9621365,18.3875142 L10.983792,20.2233432 C10.8149161,20.3045124 10.6143115,20.2882943 10.4612364,20.1810967 C10.3081614,20.0738991 10.2272394,19.8929656 10.2504427,19.7097826 L10.8041193,15.4177832 L7.80600094,12.2752482 C7.67760122,12.1420002 7.63353288,11.9505699 7.69108602,11.7760644 C7.74863915,11.601559 7.89863323,11.4718144 8.08221849,11.4377357 L12.3771269,10.6133951 L14.5062223,6.86373733 C14.5951799,6.7018621 14.7674296,6.60095072 14.9547834,6.60095072 C15.1421372,6.60095072 15.3143869,6.7018621 15.4033445,6.86373733 L17.5300048,10.6410043 L21.8248893,11.4377357 C22.008196,11.4717333 22.1580547,11.6011134 22.215827,11.7752506 C22.2735993,11.9493878 22.2300993,12.1405944 22.1023483,12.2740529 L19.1054475,15.4465643 L19.6578826,19.7110014 C19.679419,19.893377 19.5982232,20.0728207 19.4459413,20.1793936 C19.2936595,20.2859666 19.09439,20.3028039 18.9257987,20.2233432 L14.9621126,18.3874907 L14.9621365,18.3875142 Z M18.0824637,18.3335144 L17.6962366,15.3505881 C17.6688044,15.1093437 17.7490267,14.8682451 17.9162319,14.6894188 L20.0160105,12.475638 L17.033792,11.9092964 C16.7894094,11.8634165 16.5774773,11.7153669 16.4532338,11.5037355 L14.9621126,8.85795638 L13.497897,11.5037355 C13.3747314,11.7190241 13.1632781,11.8719805 12.9173387,11.923687 L9.92167938,12.4888333 L12.021458,14.7026375 C12.1886566,14.8814582 12.2688784,15.1225468 12.2414532,15.3637834 L11.8539847,18.3467096 L14.6174494,17.0772222 C14.8443354,16.9690519 15.1092304,16.9690519 15.3361164,17.0772222 L18.0824637,18.3335144 L18.0824637,18.3335144 Z" id="形状"></path>
            </g>
        </g>
    </g>
</svg>