<?xml version="1.0" encoding="UTF-8"?>
<svg width="30px" height="30px" viewBox="0 0 30 30" version="1.1" xmlns="http://www.w3.org/2000/svg" xmlns:xlink="http://www.w3.org/1999/xlink">
    <title>二维码</title>
    <g id="Filfox" stroke="none" stroke-width="1" fill="none" fill-rule="evenodd">
        <g id="Filfox--监控账户变动-详情" transform="translate(-583.000000, -263.000000)" fill="#000000" fill-rule="nonzero">
            <g id="二维码" transform="translate(583.000000, 263.000000)">
                <rect id="矩形" opacity="0" x="0" y="0" width="30" height="30"></rect>
                <path d="M25.2011719,2.62792969 L18.0527344,2.62792969 C16.9599609,2.62792969 16.0693359,3.52148438 16.0693359,4.61132813 L16.0693359,11.7597656 C16.0693359,12.8525391 16.9628906,13.7431641 18.0527344,13.7431641 L25.2011719,13.7431641 C26.2939453,13.7431641 27.1845775,12.8496094 27.1845775,11.7597656 L27.1845775,4.61132812 C27.1875,3.52148438 26.2939453,2.62792969 25.2011719,2.62792969 Z M25.3974609,11.7597656 C25.3974609,11.8623047 25.3066406,11.953125 25.2041016,11.953125 L18.0556641,11.953125 C17.953125,11.953125 17.8623047,11.8623047 17.8623047,11.7597656 L17.8623047,4.61132813 C17.8623047,4.50878906 17.953125,4.41796875 18.0556641,4.41796875 L25.2041016,4.41796875 C25.3066406,4.41796875 25.3974609,4.50878906 25.3974609,4.61132813 L25.3974609,11.7597656 Z M20.484375,7.04296875 L22.7724609,7.04296875 L22.7724609,9.33105469 L20.484375,9.33105469 L20.484375,7.04296875 Z M11.9384766,2.62792969 L4.79003906,2.62792969 C3.69726562,2.62792969 2.80664062,3.52148438 2.80664062,4.61132813 L2.80664062,11.7597656 C2.80664062,12.8525391 3.70019531,13.7431641 4.79003906,13.7431641 L11.9384766,13.7431641 C13.03125,13.7431641 13.9218822,12.8496094 13.9218822,11.7597656 L13.9218822,4.61132812 C13.9248047,3.52148438 13.03125,2.62792969 11.9384766,2.62792969 Z M12.1347656,11.7597656 C12.1347656,11.8623047 12.0439453,11.953125 11.9414062,11.953125 L4.79296875,11.953125 C4.69042969,11.953125 4.59960938,11.8623047 4.59960938,11.7597656 L4.59960938,4.61132813 C4.59960938,4.50878906 4.69042969,4.41796875 4.79296875,4.41796875 L11.9414062,4.41796875 C12.0439453,4.41796875 12.1347656,4.50878906 12.1347656,4.61132813 L12.1347656,11.7597656 Z M7.22167969,7.04296875 L9.50976562,7.04296875 L9.50976562,9.33105469 L7.22167969,9.33105469 L7.22167969,7.04296875 Z M11.9384766,15.890625 L4.79003906,15.890625 C3.69726562,15.890625 2.80664062,16.7841797 2.80664062,17.8769531 L2.80664062,25.0253906 C2.80664062,26.1181641 3.70019531,27.0087891 4.79003906,27.0087891 L11.9384766,27.0087891 C13.03125,27.0087891 13.9218822,26.1152344 13.9218822,25.0253906 L13.9218822,17.8769531 C13.9248047,16.7841797 13.03125,15.890625 11.9384766,15.890625 Z M12.1347656,25.0224609 C12.1347656,25.125 12.0439453,25.2158203 11.9414062,25.2158203 L4.79296875,25.2158203 C4.69042969,25.2158203 4.59960938,25.125 4.59960938,25.0224609 L4.59960938,17.8740234 C4.59960938,17.7714844 4.69042969,17.6806641 4.79296875,17.6806641 L11.9414062,17.6806641 C12.0439453,17.6806641 12.1347656,17.7714844 12.1347656,17.8740234 L12.1347656,25.0224609 Z M7.22167969,20.3056641 L9.50976562,20.3056641 L9.50976562,22.59375 L7.22167969,22.59375 L7.22167969,20.3056641 Z M25.0078125,20.0039062 L22.1630859,20.0039062 C21.2226563,20.0039062 20.4580078,20.7685547 20.4580078,21.7089844 L20.4580078,25.1513672 L17.9033203,25.1806641 L17.9033203,20.8974609 C17.9033203,20.4023438 17.5019531,20.0009766 17.0068359,20.0009766 C16.5117188,20.0009766 16.1103516,20.4023438 16.1103516,20.8974609 L16.1103516,25.1777344 C16.1103516,26.1474609 16.9013672,26.9384766 17.8710938,26.9384766 L20.5107422,26.9384766 C21.46875,26.9384766 22.2480469,26.1591797 22.2480469,25.2011719 L22.2480469,21.7939453 L24.8027344,21.7939453 L24.8027344,26.0449219 C24.8027344,26.5400391 25.2041016,26.9414063 25.6992188,26.9414063 C26.1943359,26.9414063 26.5957031,26.5400391 26.5957031,26.0449219 L26.5957031,21.5917969 C26.5957031,20.7158203 25.8837891,20.0039062 25.0078125,20.0039062 L25.0078125,20.0039062 Z M17.0097656,18.7910156 C17.5048828,18.7910156 17.90625,18.3896484 17.90625,17.8945313 L17.90625,15.75 C17.90625,15.2548828 17.5048828,14.8535156 17.0097656,14.8535156 C16.5146484,14.8535156 16.1132812,15.2548828 16.1132812,15.75 L16.1132812,17.8945313 C16.1162109,18.3896484 16.5175781,18.7910156 17.0097656,18.7910156 L17.0097656,18.7910156 Z M22.2509766,17.8945313 L22.2509766,15.75 C22.2509766,15.2548828 21.8496094,14.8535156 21.3544922,14.8535156 C20.859375,14.8535156 20.4580078,15.2548828 20.4580078,15.75 L20.4580078,17.8945313 C20.4580078,18.3896484 20.859375,18.7910156 21.3544922,18.7910156 C21.8496094,18.7910156 22.2509766,18.3896484 22.2509766,17.8945313 Z M25.6992188,14.8564453 C25.2041016,14.8564453 24.8027344,15.2578125 24.8027344,15.7529297 L24.8027344,17.8974609 C24.8027344,18.3925781 25.2041016,18.7939453 25.6992188,18.7939453 C26.1943359,18.7939453 26.5957031,18.3925781 26.5957031,17.8974609 L26.5957031,15.7529297 C26.5957031,15.2578125 26.1943359,14.8564453 25.6992188,14.8564453 Z" id="形状"></path>
            </g>
        </g>
    </g>
</svg>